<svg width="1788" height="1723" viewBox="0 0 1788 1723" fill="none" xmlns="http://www.w3.org/2000/svg">
<path d="M893.631 1722.55C463.764 1722.55 0 1452.92 0 861.275C0 269.63 463.764 0 893.631 0C1132.45 0 1352.77 78.5779 1516.09 221.867C1693.28 379.023 1787.26 600.89 1787.26 861.275C1787.26 1121.66 1693.28 1341.99 1516.09 1499.14C1352.77 1642.43 1130.91 1722.55 893.631 1722.55Z" fill="url(#paint0_radial_801_1878)"/>
<path d="M1631.5 349.285C1713.62 481.789 1756.45 639.561 1756.45 815.052C1756.45 1075.44 1662.47 1295.76 1485.28 1452.92C1321.96 1596.21 1100.1 1676.33 862.821 1676.33C584.563 1676.33 292.746 1563.08 120.491 1322.88C286.275 1594.98 598.121 1722.55 893.636 1722.55C1130.91 1722.55 1352.78 1642.43 1516.1 1499.14C1693.28 1341.99 1787.27 1121.66 1787.27 861.274C1787.27 664.983 1733.8 490.571 1631.5 349.285V349.285Z" fill="#D84213"/>
<path d="M1207.01 1481.27C1201.77 1479.27 1196.99 1476.03 1193.3 1471.72C1043.38 1315.95 795.477 1311.17 639.708 1461.09C636.164 1464.63 632.466 1468.17 629.077 1471.72C625.379 1476.03 620.603 1479.27 615.364 1481.27C603.809 1485.58 590.712 1483.12 581.468 1474.95C572.378 1466.94 569.296 1454.15 573.918 1442.91C619.832 1325.04 756.342 1232.59 911.187 1232.59C1066.03 1232.59 1202.54 1325.04 1248.46 1442.75C1253.08 1454 1250 1466.79 1240.91 1474.8C1231.66 1482.96 1218.57 1485.43 1207.01 1481.27Z" fill="#422B0D"/>
<path d="M809.493 952.475C774.981 909.026 632.77 825.518 581.463 801.174C562.358 792.392 542.482 785.305 522.145 780.066C518.447 778.988 514.441 778.525 510.589 778.525C490.097 778.988 472.533 793.625 468.373 813.808C463.596 834.763 474.382 856.333 494.103 864.961C518.293 876.825 560.509 899.32 604.266 924.126C567.751 945.85 545.41 985.293 545.41 1027.82V1050.31C545.41 1114.1 597.179 1165.87 660.966 1165.87C724.752 1165.87 776.521 1114.1 776.521 1050.31V1027.82C776.521 1026.89 776.521 1026.12 776.521 1025.2C793.007 1024.12 807.798 1014.26 815.04 999.468C822.589 984.061 820.432 965.726 809.493 952.475Z" fill="#422B0D"/>
<path d="M1354.62 813.801C1350.31 793.463 1332.44 778.98 1311.64 778.826C1307.78 778.826 1303.78 779.288 1300.08 780.367C1279.74 785.451 1259.87 792.539 1240.76 801.167C1189.45 825.203 1047.24 909.019 1012.73 952.16C1001.79 965.564 999.944 984.053 1007.65 999.461C1015.04 1014.41 1029.68 1024.11 1046.32 1025.19V1027.81V1050.3C1046.32 1114.09 1098.09 1165.86 1161.88 1165.86C1225.66 1165.86 1277.43 1114.09 1277.43 1050.3V1027.81C1277.43 985.44 1255.09 946.151 1218.73 924.426C1262.49 899.62 1304.7 877.126 1328.89 865.262C1348.77 856.634 1359.71 834.909 1354.62 813.801V813.801Z" fill="#422B0D"/>
<path d="M655.133 946.789C633.254 936.311 606.908 945.556 596.277 967.435C588.111 984.537 591.808 1005.03 605.521 1018.28C627.4 1028.76 653.746 1019.51 664.377 997.633C672.543 980.531 668.845 960.039 655.133 946.789Z" fill="#896024"/>
<path d="M1156.02 946.789C1134.15 936.311 1107.8 945.556 1097.17 967.435C1089 984.537 1092.7 1005.03 1106.41 1018.28C1128.29 1028.76 1154.64 1019.51 1165.27 997.633C1173.43 980.531 1169.74 960.039 1156.02 946.789Z" fill="#896024"/>
<defs>
<radialGradient id="paint0_radial_801_1878" cx="0" cy="0" r="1" gradientUnits="userSpaceOnUse" gradientTransform="translate(893.631 861.274) scale(877.602 877.602)">
<stop offset="0.12" stop-color="#FAC742"/>
<stop offset="0.32" stop-color="#FAC440"/>
<stop offset="0.48" stop-color="#FBBA3B"/>
<stop offset="0.62" stop-color="#FBA931"/>
<stop offset="0.76" stop-color="#FC9224"/>
<stop offset="0.88" stop-color="#FE7413"/>
<stop offset="1" stop-color="#FF5100"/>
</radialGradient>
</defs>
</svg>
