<svg width="1788" height="1723" viewBox="0 0 1788 1723" fill="none" xmlns="http://www.w3.org/2000/svg">
<path d="M893.631 1722.55C463.764 1722.55 0 1452.92 0 861.275C0 269.63 463.764 0 893.631 0C1132.45 0 1352.77 78.5779 1516.09 221.867C1693.28 379.023 1787.26 600.89 1787.26 861.275C1787.26 1121.66 1693.28 1341.99 1516.09 1499.14C1352.77 1642.43 1130.91 1722.55 893.631 1722.55Z" fill="url(#paint0_radial_801_1894)"/>
<path d="M1631.5 349.285C1713.62 481.789 1756.45 639.561 1756.45 815.052C1756.45 1075.44 1662.47 1295.76 1485.28 1452.92C1321.96 1596.21 1100.1 1676.33 862.821 1676.33C584.563 1676.33 292.746 1563.08 120.491 1322.88C286.275 1594.98 598.121 1722.55 893.636 1722.55C1130.91 1722.55 1352.78 1642.43 1516.1 1499.14C1693.28 1341.99 1787.27 1121.66 1787.27 861.274C1787.27 664.983 1733.8 490.571 1631.5 349.285V349.285Z" fill="#EB8F00"/>
<path d="M1007.64 1448.29C998.857 1448.29 990.075 1446.44 982.063 1442.74C925.364 1417.63 860.806 1417.17 803.953 1441.82C773.6 1457.07 736.469 1444.75 721.215 1414.39C705.962 1384.04 718.288 1346.91 748.64 1331.65C839.082 1290.67 942.466 1290.36 1033.22 1330.58C1064.18 1344.75 1077.9 1381.27 1063.72 1412.24C1053.71 1434.27 1031.83 1448.29 1007.64 1448.29Z" fill="#422B0D"/>
<path d="M576.239 627.07C723.842 627.533 843.25 747.556 842.787 895.159C842.325 1042.76 722.301 1162.17 574.698 1161.71C427.095 1161.25 307.688 1041.22 308.15 893.619C309.074 746.17 428.79 627.224 576.239 627.07Z" fill="white"/>
<path d="M571.603 1097.02C702.646 1097.02 808.878 990.784 808.878 859.741C808.878 728.698 702.646 622.467 571.603 622.467C440.56 622.467 334.329 728.698 334.329 859.741C334.329 990.784 440.56 1097.02 571.603 1097.02Z" fill="#422B0D"/>
<path d="M678.966 977.724C695.911 963.501 699.004 939.29 685.874 923.649C672.745 908.008 648.365 906.858 631.42 921.082C614.475 935.305 611.382 959.516 624.511 975.157C637.641 990.799 662.021 991.948 678.966 977.724Z" fill="white"/>
<path d="M577.025 876.183C638.46 830.455 658.196 752.989 621.105 703.158C584.015 653.327 504.144 650.001 442.708 695.729C381.273 741.457 361.538 818.923 398.628 868.754C435.719 918.585 515.59 921.911 577.025 876.183Z" fill="white"/>
<path d="M1238.76 627.072C1386.36 627.534 1505.77 747.558 1505.31 895.161C1504.84 1042.76 1384.82 1162.17 1237.22 1161.71C1089.61 1161.25 970.206 1041.22 970.668 893.621C971.593 746.172 1091.31 627.226 1238.76 627.072Z" fill="white"/>
<path d="M1234.12 1097.02C1365.17 1097.02 1471.4 990.784 1471.4 859.741C1471.4 728.698 1365.17 622.467 1234.12 622.467C1103.08 622.467 996.849 728.698 996.849 859.741C996.849 990.784 1103.08 1097.02 1234.12 1097.02Z" fill="#422B0D"/>
<path d="M1342.72 976.791C1359.66 962.567 1362.76 938.357 1349.63 922.715C1336.5 907.074 1312.12 905.925 1295.17 920.148C1278.23 934.372 1275.14 958.582 1288.27 974.224C1301.39 989.865 1325.77 991.014 1342.72 976.791Z" fill="white"/>
<path d="M1239.73 876.302C1301.16 830.574 1320.9 753.108 1283.81 703.277C1246.71 653.446 1166.84 650.12 1105.41 695.849C1043.97 741.577 1024.24 819.042 1061.33 868.873C1098.42 918.704 1178.29 922.03 1239.73 876.302Z" fill="white"/>
<path d="M335.882 505.375C301.985 511.538 300.445 560.842 337.422 562.383C419.082 563.461 497.968 533.109 557.749 477.642C580.552 457.92 599.811 434.501 614.756 408.308C623.692 395.52 620.611 377.956 607.823 369.02C595.035 360.083 577.47 363.165 568.534 375.953L566.993 377.494C506.596 444.978 425.091 490.122 335.882 505.375Z" fill="#422B0D"/>
<path d="M1215.65 375.953C1206.71 363.165 1189.14 360.083 1176.36 369.02C1163.57 377.956 1160.49 395.52 1169.42 408.308C1184.37 434.501 1203.63 457.92 1226.43 477.642C1286.52 532.646 1365.25 562.999 1446.76 562.383C1485.28 560.842 1482.19 511.538 1448.3 505.375C1358.01 490.584 1275.89 444.824 1215.65 375.953Z" fill="#422B0D"/>
<defs>
<radialGradient id="paint0_radial_801_1894" cx="0" cy="0" r="1" gradientUnits="userSpaceOnUse" gradientTransform="translate(893.631 861.275) scale(877.602 877.602)">
<stop offset="0.5" stop-color="#FDE030"/>
<stop offset="0.92" stop-color="#F7C02B"/>
<stop offset="1" stop-color="#F4A223"/>
</radialGradient>
</defs>
</svg>
