<svg width="568" height="570" viewBox="0 0 568 570" fill="none" xmlns="http://www.w3.org/2000/svg">
<path d="M510.128 442.235C514.162 445.04 519.718 444.041 522.382 439.913C549.03 398.619 564.6 351.056 567.504 301.844C570.582 249.663 559.301 197.637 534.893 151.458C510.486 105.279 473.893 66.7253 429.117 40.0153C386.893 14.8272 338.926 1.08626 289.916 0.0618098C285.005 -0.0408521 281.063 3.99757 281.114 8.90972V8.90972C281.166 13.8224 285.191 17.7476 290.103 17.8605C335.86 18.913 380.63 31.7874 420.058 55.3078C462.039 80.3505 496.348 116.497 519.232 159.794C542.116 203.09 552.693 251.868 549.807 300.792C547.094 346.767 532.591 391.205 507.771 429.825C505.127 433.939 506.114 439.444 510.128 442.235V442.235Z" fill="#FE5248"/>
<path d="M248.533 11.2069C247.901 6.33214 243.432 2.87949 238.58 3.66831C204.745 9.16939 172.156 20.7763 142.401 37.9511C112.624 55.1384 86.2227 77.5918 64.462 104.202C61.3663 107.987 62.0994 113.553 65.969 116.543V116.543C69.8573 119.547 75.435 118.81 78.5543 115.014C98.8821 90.2722 123.498 69.3849 151.24 53.3725C178.981 37.3599 209.35 26.5094 240.883 21.3169C245.727 20.5192 249.163 16.0755 248.533 11.2069V11.2069Z" fill="#4080ED"/>
<path d="M52.5405 135.78C48.4125 133.118 42.8945 134.311 40.3767 138.528C8.42984 192.037 -5.18314 254.674 1.77619 316.825C8.73491 378.97 35.8567 437.008 78.8342 482.066C82.2275 485.624 87.8785 485.562 91.3158 482.047V482.047C94.736 478.549 94.6705 472.953 91.3006 469.407C51.2031 427.213 25.8992 372.94 19.3933 314.838C12.8869 256.733 25.5591 198.175 55.3289 148.1C57.8274 143.897 56.6499 138.429 52.5405 135.78V135.78Z" fill="#FEB03A"/>
<path d="M114.572 502.583C111.565 506.445 112.241 512.024 116.185 514.923C171.687 555.72 240.164 574.973 308.897 568.903C377.634 562.832 441.712 531.87 489.26 481.967C492.634 478.426 492.326 472.818 488.693 469.543V469.543C485.043 466.252 479.422 466.566 476.023 470.116C431.486 516.644 371.585 545.507 307.343 551.181C243.105 556.854 179.104 538.935 127.155 500.933C123.186 498.03 117.594 498.703 114.572 502.583V502.583Z" fill="#F17741"/>
<path d="M413 175.079C412.939 164.342 410.981 153.7 407.215 143.639C403.71 133.799 397.231 125.281 388.668 119.258C380.106 113.234 369.88 110 359.396 110C348.913 110 338.687 113.234 330.124 119.258C321.561 125.281 315.082 133.799 311.577 143.639C307.812 153.7 305.854 164.342 305.792 175.079C305.792 213.261 319.339 221.669 330.746 234.118C339.393 243.554 346.882 254.14 346.687 271C346.058 325.567 330.54 385.071 339.935 448.712C342.425 465.581 349.33 471 359.396 471C369.463 471 376.367 465.581 378.857 448.712C388.253 385.071 372.734 325.567 372.105 271C371.911 254.14 379.399 243.554 388.046 234.118C399.454 221.669 413 213.261 413 175.079ZM271.799 155.297L267.882 115.297C267.74 113.847 267.061 112.501 265.978 111.522C264.894 110.542 263.483 110 262.019 110H261.726C260.163 110 258.665 110.618 257.56 111.718C256.455 112.819 255.835 114.311 255.835 115.867V188.013C255.997 189.628 255.519 191.242 254.504 192.511C254.331 192.728 254.144 192.931 253.947 193.12C252.029 194.956 248.766 194.956 246.848 193.12C246.65 192.931 246.464 192.728 246.291 192.511C245.275 191.242 244.797 189.628 244.96 188.013V115.867C244.955 114.314 244.333 112.825 243.229 111.728C242.124 110.632 240.628 110.016 239.069 110.016C237.509 110.016 236.013 110.632 234.909 111.728C233.805 112.825 233.182 114.314 233.178 115.867V188.013C233.34 189.628 232.863 191.242 231.847 192.511C231.674 192.728 231.488 192.931 231.29 193.12C229.372 194.956 226.109 194.956 224.191 193.12C223.994 192.931 223.807 192.727 223.634 192.511C222.619 191.242 222.141 189.628 222.303 188.013V115.867C222.299 114.314 221.677 112.825 220.572 111.728C219.468 110.632 217.972 110.016 216.413 110.016C214.853 110.016 213.357 110.632 212.253 111.728C211.148 112.825 210.526 114.314 210.522 115.867V188.013C210.684 189.628 210.206 191.242 209.191 192.511C209.018 192.728 208.831 192.931 208.633 193.12C206.716 194.956 203.453 194.956 201.535 193.12C201.337 192.931 201.151 192.728 200.978 192.512C199.962 191.242 199.484 189.628 199.647 188.013V115.867C199.647 115.096 199.494 114.334 199.198 113.622C198.902 112.91 198.468 112.263 197.921 111.718C197.374 111.174 196.725 110.741 196.01 110.447C195.296 110.152 194.53 110 193.756 110H193.462C191.999 110 190.588 110.543 189.504 111.522C188.42 112.501 187.741 113.847 187.599 115.297L183.682 155.298C179.598 197.005 182.391 213.988 198.294 230.004C203.55 234.736 207.731 240.532 210.556 247.003C213.382 253.474 214.787 260.471 214.679 267.527C214.032 323.041 198.082 383.579 207.738 448.325C210.294 465.46 217.395 471 227.741 471C238.087 471 245.184 465.487 247.743 448.325C257.4 383.579 241.449 323.042 240.803 267.527C240.694 260.471 242.1 253.474 244.925 247.003C247.751 240.532 251.932 234.736 257.187 230.004C273.091 213.988 275.884 197.004 271.799 155.297Z" fill="#4080ED"/>
</svg>
