<svg width="1849" height="1782" viewBox="0 0 1849 1782" fill="none" xmlns="http://www.w3.org/2000/svg">
<path d="M924.445 1781.95C479.755 1781.95 0 1503.02 0 890.974C0 278.927 479.755 0 924.445 0C1171.5 0 1399.42 81.2874 1568.37 229.517C1751.66 392.092 1848.89 621.61 1848.89 890.974C1848.89 1160.34 1751.66 1388.26 1568.37 1550.84C1399.42 1699.07 1169.9 1781.95 924.445 1781.95Z" fill="url(#paint0_radial_922_1873)"/>
<path d="M611.969 540.938C545.185 540.938 484.459 597.361 484.459 691.08C484.459 784.8 545.185 841.063 611.969 841.063C678.911 841.063 739.478 784.64 739.478 691.08C739.478 597.52 679.549 540.938 611.969 540.938Z" fill="#202224"/>
<path d="M1224.05 540.938C1157.27 540.938 1096.54 597.361 1096.54 691.08C1096.54 784.8 1157.27 841.063 1224.05 841.063C1290.84 841.063 1351.56 784.64 1351.56 691.08C1351.56 597.52 1290.84 540.938 1224.05 540.938Z" fill="#202224"/>
<path d="M1687.66 361.383C1772.62 498.456 1816.93 661.668 1816.93 843.21C1816.93 1112.57 1719.7 1340.5 1536.4 1503.07C1367.45 1651.3 1137.94 1734.18 892.48 1734.18C604.627 1734.18 302.748 1617.03 124.553 1368.55C296.053 1650.03 618.653 1782 924.357 1782C1169.81 1782 1399.33 1699.12 1568.28 1550.89C1751.58 1388.31 1848.8 1160.39 1848.8 891.026C1848.8 687.967 1793.5 507.541 1687.66 361.383V361.383Z" fill="#EB8F00"/>
<rect x="627.422" y="1221.54" width="561.272" height="198.096" fill="black"/>
<defs>
<radialGradient id="paint0_radial_922_1873" cx="0" cy="0" r="1" gradientUnits="userSpaceOnUse" gradientTransform="translate(924.445 890.974) scale(907.864 907.864)">
<stop offset="0.5" stop-color="#FDE030"/>
<stop offset="0.92" stop-color="#F7C02B"/>
<stop offset="1" stop-color="#F4A223"/>
</radialGradient>
</defs>
</svg>
