<svg width="363" height="364" viewBox="0 0 363 364" fill="none" xmlns="http://www.w3.org/2000/svg">
<path d="M326.021 282.477C328.595 284.266 332.14 283.629 333.84 280.995C350.847 254.646 360.784 224.297 362.637 192.896C364.602 159.6 357.402 126.403 341.825 96.9376C326.248 67.4718 302.894 42.8718 274.318 25.8288C247.37 9.75663 216.757 0.988801 185.478 0.335314C182.344 0.269841 179.829 2.84667 179.862 5.981V5.981C179.895 9.11565 182.463 11.6202 185.597 11.6923C214.8 12.3636 243.373 20.5785 268.537 35.5866C295.329 51.5658 317.225 74.6302 331.83 102.257C346.435 129.883 353.185 161.007 351.343 192.225C349.612 221.559 340.356 249.914 324.516 274.556C322.829 277.182 323.459 280.695 326.021 282.477V282.477Z" fill="#FE5248"/>
<path d="M159.068 7.44648C158.665 4.33611 155.813 2.13315 152.718 2.63634C131.123 6.14636 110.324 13.5526 91.3335 24.5116C72.3302 35.4783 55.4811 49.8048 41.5934 66.7835C39.6173 69.1994 40.0852 72.7522 42.5552 74.6601V74.6601C45.0364 76.5768 48.5953 76.1066 50.5858 73.6843C63.5593 57.8969 79.2697 44.5689 96.9746 34.3516C114.68 24.1343 134.062 17.2107 154.187 13.8976C157.278 13.3887 159.47 10.5531 159.068 7.44648V7.44648Z" fill="#4080ED"/>
<path d="M33.9832 86.9332C31.349 85.2353 27.8282 85.9963 26.2214 88.6871C5.83246 122.83 -2.85554 162.797 1.58597 202.455C6.02712 242.109 23.3367 279.142 50.7658 307.892C52.9311 310.162 56.5366 310.123 58.73 307.88V307.88C60.9131 305.648 60.8713 302.076 58.7203 299.813C33.1303 272.89 16.9814 238.26 12.8293 201.187C8.67698 164.112 16.7642 126.748 35.7629 94.7964C37.3578 92.1141 36.6062 88.6239 33.9832 86.9332V86.9332Z" fill="#FEB03A"/>
<path d="M73.574 320.982C71.6547 323.446 72.0862 327.007 74.6032 328.857C110.025 354.888 153.727 367.173 197.593 363.3C241.461 359.426 282.355 339.67 312.701 307.829C314.855 305.569 314.658 301.99 312.339 299.9V299.9C310.01 297.8 306.424 298 304.255 300.266C275.831 329.954 237.601 348.372 196.601 351.992C155.603 355.612 114.757 344.178 81.6026 319.929C79.0698 318.077 75.5021 318.506 73.574 320.982V320.982Z" fill="#F17741"/>
<path d="M164.106 265.626V265.626C163.249 265.523 162.636 264.745 162.737 263.887L163.967 253.48C164.388 249.93 164.028 246.331 162.91 242.935C161.793 239.539 159.946 236.429 157.499 233.823L126.947 201.217C119.918 193.716 116.937 183.287 118.94 173.204L121.397 160.838C121.708 159.273 121.701 157.661 121.376 156.099C121.051 154.537 120.415 153.056 119.506 151.745C118.597 150.433 117.433 149.318 116.084 148.466C114.735 147.614 113.228 147.042 111.654 146.784C111.014 146.68 110.367 146.627 109.72 146.626C107.186 146.619 104.717 147.425 102.674 148.925C100.632 150.425 99.1253 152.541 98.3743 154.961L86.9954 191.243C84.9345 197.84 85.0875 204.93 87.4311 211.432L95.7626 234.451C97.7618 239.971 101.261 244.825 105.867 248.466L111.06 252.571C112.159 253.445 113.073 254.529 113.749 255.76V255.76C114.794 257.665 112.916 259.532 110.853 260.215C109.699 260.596 108.612 261.185 107.649 261.962C105.582 263.63 104.247 266.037 103.926 268.673L103.192 274.793L101.343 290.197C101.237 291.118 101.5 292.044 102.075 292.771C102.649 293.499 103.488 293.97 104.409 294.08C105.329 294.19 106.256 293.932 106.986 293.361C107.717 292.79 108.191 291.953 108.306 291.033V291.033C109.091 284.491 115.054 279.839 121.591 280.67L153.391 284.715C159.738 285.522 164.245 291.3 163.483 297.653V297.653C163.422 298.113 163.453 298.58 163.575 299.028C163.696 299.476 163.905 299.895 164.189 300.262C164.474 300.628 164.828 300.935 165.232 301.163C165.636 301.392 166.081 301.538 166.541 301.593C167.002 301.649 167.469 301.612 167.915 301.485C168.362 301.359 168.779 301.145 169.142 300.856C169.505 300.568 169.807 300.21 170.031 299.803C170.255 299.397 170.396 298.95 170.446 298.489L172.233 283.587L172.235 283.576L172.236 283.562L173.028 276.965C173.187 275.635 173.082 274.286 172.72 272.996C172.357 271.707 171.745 270.501 170.916 269.448C170.088 268.395 169.06 267.515 167.892 266.86C166.723 266.204 165.437 265.785 164.106 265.626ZM110.217 242.966C106.634 240.133 103.912 236.357 102.356 232.063L94.0248 209.044C92.2022 203.988 92.0832 198.474 93.6858 193.344L105.066 157.06C105.374 156.067 105.992 155.199 106.829 154.583C107.667 153.968 108.68 153.637 109.72 153.639C109.989 153.64 110.258 153.662 110.524 153.705C111.17 153.811 111.788 154.046 112.341 154.396C112.894 154.746 113.371 155.204 113.744 155.742C114.117 156.28 114.377 156.888 114.51 157.529C114.643 158.17 114.646 158.831 114.518 159.473L111.007 177.148C109.602 184.219 104.282 190.226 102.584 197.232V197.232C101.691 200.915 102.187 204.798 103.976 208.139C105.761 211.471 113.87 226.646 113.911 226.723C113.913 226.725 113.912 226.724 113.913 226.727C114.352 227.545 115.098 228.156 115.986 228.426C116.427 228.559 116.89 228.605 117.348 228.56C117.806 228.514 118.251 228.379 118.657 228.162C119.064 227.945 119.423 227.65 119.715 227.294C120.007 226.938 120.226 226.528 120.36 226.087C120.494 225.647 120.539 225.184 120.494 224.726C120.449 224.267 120.314 223.822 120.097 223.416L110.16 204.83C109.504 203.615 109.161 202.255 109.163 200.874V200.874C109.159 197.352 113.545 197.171 115.953 199.741L152.381 238.618C154.129 240.479 155.448 242.701 156.247 245.127C157.045 247.552 157.303 250.123 157.002 252.659V252.659C156.223 259.253 150.24 263.962 143.648 263.171L129.786 261.508C125.361 260.977 122.221 257.077 120.252 253.079V253.079C119.102 250.742 117.448 248.69 115.409 247.07L110.217 242.966ZM214.289 166.522C224.007 152.744 229.142 137.009 229.142 121.016V84.1446C229.142 83.3069 228.843 82.497 228.297 81.8612C227.752 81.2255 226.997 80.806 226.169 80.6787C217.234 79.3124 208.497 76.872 200.148 73.4104C193.33 70.587 186.836 67.0397 180.776 62.8296C180.17 62.4064 179.446 62.1856 178.706 62.1988C177.967 62.212 177.252 62.4585 176.661 62.903C172.217 66.2364 167.474 69.1498 162.491 71.6057C152.506 76.485 141.778 79.6691 130.747 81.0275C129.902 81.1361 129.124 81.5491 128.561 82.1894C127.998 82.8296 127.687 83.6532 127.687 84.506V121.017C127.687 137.009 132.823 152.744 142.541 166.522C150.96 178.458 162.778 188.847 176.716 196.565C177.236 196.853 177.821 197.004 178.415 197.004C179.009 197.004 179.593 196.853 180.113 196.565C194.052 188.847 205.869 178.458 214.289 166.522ZM193.465 178.877C184.781 186.265 172.048 186.265 163.365 178.877C157.541 173.921 152.449 168.402 148.271 162.479C139.393 149.891 134.7 135.554 134.7 121.017V114.968C134.7 99.2036 146.513 86.2715 160.984 80.0185C162.538 79.3473 164.076 78.6388 165.598 77.8931V77.8931C173.942 73.7756 183.872 73.5795 192.274 77.5796C193.98 78.3919 195.707 79.1608 197.454 79.8853V79.8853C211.224 85.5983 222.129 97.9695 222.129 112.877V121.017C222.129 135.554 217.437 149.892 208.558 162.479C204.38 168.402 199.289 173.921 193.465 178.877ZM215.116 95.6114C215.116 94.8293 214.855 94.0696 214.374 93.4531C213.892 92.8366 213.219 92.3988 212.46 92.2091C206.423 90.7017 200.506 88.7465 194.76 86.3598C189.955 84.3623 185.286 82.053 180.782 79.4468C180.234 79.1295 179.611 78.9662 178.978 78.9743C178.346 78.9823 177.727 79.1614 177.187 79.4926C174.433 81.184 171.602 82.7483 168.704 84.1806C160.972 87.9829 152.826 90.8787 144.429 92.8104C143.657 92.9891 142.968 93.4241 142.475 94.0444C141.982 94.6647 141.713 95.4338 141.713 96.2262V121.017C141.713 134.099 145.963 147.038 154.002 158.437C159.789 166.641 167.346 173.895 176.464 179.997C177.041 180.383 177.72 180.59 178.415 180.59C179.109 180.59 179.788 180.383 180.365 179.997C189.483 173.895 197.04 166.641 202.827 158.437C210.867 147.038 215.116 134.099 215.116 121.017V95.6114ZM269.835 191.246L258.455 154.959C257.544 152.054 255.553 149.609 252.894 148.127C250.234 146.645 247.108 146.239 244.158 146.993C241.208 147.746 238.659 149.602 237.036 152.178C235.413 154.753 234.839 157.854 235.432 160.84L237.889 173.204C239.892 183.287 236.911 193.716 229.883 201.217L199.331 233.823C196.884 236.429 195.037 239.54 193.919 242.936C192.802 246.332 192.441 249.931 192.862 253.482L194.092 263.887C194.193 264.745 193.581 265.523 192.723 265.626V265.626C191.393 265.785 190.107 266.204 188.939 266.86C187.77 267.515 186.742 268.395 185.914 269.448C185.086 270.5 184.473 271.706 184.11 272.996C183.748 274.286 183.643 275.634 183.802 276.965L184.593 283.563L184.594 283.576L184.596 283.587L186.384 298.489C186.438 298.947 186.581 299.39 186.807 299.792C187.032 300.195 187.334 300.549 187.697 300.834C188.059 301.12 188.474 301.331 188.918 301.456C189.362 301.581 189.827 301.617 190.285 301.562C190.742 301.507 191.185 301.362 191.587 301.135C191.989 300.909 192.342 300.606 192.627 300.243C192.911 299.879 193.121 299.464 193.245 299.019C193.368 298.575 193.403 298.111 193.347 297.653V297.653C192.585 291.3 197.091 285.522 203.439 284.715L235.238 280.67C241.775 279.839 247.738 284.49 248.523 291.033V291.033C248.638 291.953 249.113 292.79 249.843 293.361C250.573 293.932 251.5 294.19 252.421 294.08C253.341 293.97 254.18 293.499 254.755 292.771C255.329 292.044 255.592 291.118 255.486 290.197L253.639 274.799L252.904 268.673C252.582 266.038 251.246 263.631 249.18 261.964C248.216 261.186 247.13 260.598 245.976 260.216C243.913 259.533 242.035 257.666 243.08 255.761V255.761C243.756 254.53 244.669 253.446 245.768 252.572L250.964 248.466C255.569 244.824 259.068 239.97 261.067 234.45L269.398 211.434C271.742 204.932 271.895 197.843 269.835 191.246ZM262.804 209.046L254.473 232.062C252.918 236.356 250.196 240.132 246.614 242.964L241.42 247.07C239.381 248.691 237.727 250.743 236.577 253.079V253.079C234.609 257.078 231.469 260.977 227.044 261.508L213.18 263.172C206.588 263.963 200.606 259.253 199.827 252.66V252.66C199.526 250.124 199.784 247.553 200.583 245.127C201.381 242.701 202.701 240.48 204.449 238.618L240.876 199.741C243.284 197.17 247.671 197.352 247.666 200.874V200.874C247.668 202.256 247.325 203.616 246.668 204.832L236.733 223.416C236.516 223.822 236.381 224.267 236.336 224.726C236.291 225.184 236.336 225.647 236.47 226.087C236.603 226.528 236.823 226.938 237.115 227.294C237.407 227.65 237.766 227.945 238.172 228.162C238.578 228.379 239.023 228.514 239.482 228.559C239.94 228.604 240.403 228.559 240.843 228.425C241.284 228.292 241.694 228.072 242.05 227.78C242.406 227.488 242.701 227.129 242.918 226.723L252.852 208.14C254.642 204.8 255.139 200.916 254.246 197.233V197.233C252.548 190.227 247.227 184.219 245.822 177.147L242.312 159.475C242.184 158.834 242.186 158.173 242.319 157.533C242.451 156.893 242.711 156.286 243.082 155.748C243.454 155.21 243.93 154.752 244.482 154.401C245.033 154.051 245.65 153.815 246.295 153.707C246.564 153.663 246.837 153.64 247.11 153.639C248.149 153.637 249.162 153.967 250 154.583C250.838 155.199 251.456 156.066 251.764 157.059L263.145 193.347C264.747 198.477 264.627 203.99 262.804 209.046Z" fill="#FE5248"/>
</svg>
