<svg width="1788" height="1707" viewBox="0 0 1788 1707" fill="none" xmlns="http://www.w3.org/2000/svg">
<path d="M901.875 1706.66C475.973 1706.66 16.4873 1439.52 16.4873 853.33C16.4873 267.143 475.973 0 901.875 0C1138.49 0 1356.78 77.853 1518.59 219.82C1694.14 375.526 1787.26 595.347 1787.26 853.33C1787.26 1111.31 1694.14 1329.61 1518.59 1485.31C1356.78 1627.28 1136.96 1706.66 901.875 1706.66Z" fill="url(#paint0_radial_801_1908)"/>
<path d="M1632.94 346.062C1714.3 477.344 1756.74 633.661 1756.74 807.533C1756.74 1065.52 1663.62 1283.81 1488.07 1439.52C1326.26 1581.48 1106.44 1660.86 871.349 1660.86C595.658 1660.86 306.533 1548.66 135.867 1310.68C300.122 1580.26 609.092 1706.66 901.88 1706.66C1136.97 1706.66 1356.79 1627.28 1518.6 1485.31C1694.15 1329.61 1787.27 1111.31 1787.27 853.328C1787.27 658.849 1734.3 486.045 1632.94 346.062V346.062Z" fill="#EB8F00"/>
<path d="M907.967 1223.52C1073.14 1223.52 1180.15 1344.42 1207.93 1400.14C1218.62 1421.67 1219.23 1439.53 1210.07 1447.92C1200.45 1454.18 1187.93 1454.18 1178.32 1447.92C1173.58 1445.63 1168.85 1443.04 1164.58 1439.98C1011.16 1330.07 804.926 1330.07 651.51 1439.98C647.236 1443.04 642.656 1445.63 637.771 1447.92C628.154 1454.33 615.636 1454.33 606.019 1447.92C596.86 1439.53 597.471 1421.67 608.156 1400.14C635.787 1344.58 742.796 1223.52 907.967 1223.52Z" fill="#422B0D"/>
<path d="M349.11 500.242C315.526 506.196 313.847 555.045 350.484 556.724C431.39 557.945 509.548 528.025 569.083 473.223C591.675 453.683 610.91 430.633 625.717 404.682C634.571 392.011 631.518 374.609 619 365.603C606.483 356.596 588.928 359.802 579.921 372.319L578.395 373.846C518.402 440.86 437.648 485.282 349.11 500.242V500.242Z" fill="#422B0D"/>
<path d="M1245.64 374.31L1244.11 372.783C1235.26 360.113 1217.71 357.06 1205.04 365.914C1192.37 374.768 1189.31 392.323 1198.32 404.993C1213.28 430.791 1232.51 453.842 1255.26 473.229C1314.79 528.031 1392.95 557.799 1473.86 556.425C1510.49 554.746 1508.81 505.897 1475.08 499.943C1386.54 485.136 1305.79 440.866 1245.64 374.31V374.31Z" fill="#422B0D"/>
<path d="M228.98 1526.52C99.8351 1526.52 0 1401.2 0 1293.88C0 1218.47 33.7363 1131 81.5167 1009.79C87.4702 991.932 95.4081 973.919 103.346 954.074C126.091 897.288 146.089 835.768 176.62 782.492C191.122 756.541 223.942 747.382 249.74 761.884C258.289 766.769 265.464 773.791 270.348 782.492C298.742 834.852 318.282 891.487 347.744 957.586C431.245 1144.43 454.601 1220 454.601 1295.41C457.501 1401.81 356.139 1526.52 228.98 1526.52V1526.52Z" fill="url(#paint1_radial_801_1908)"/>
<path d="M368.663 1383.8C339.506 1429.6 273.255 1420.44 273.255 1345.49C273.255 1297.55 283.025 1051.48 324.241 1085.98C391.103 1142 410.185 1319.99 368.663 1383.8Z" fill="#81D4FA"/>
<path d="M612.908 731.811C548.946 731.811 490.785 785.85 490.785 875.61C490.785 965.37 548.946 1019.26 612.908 1019.26C676.869 1019.26 735.03 965.217 735.03 875.61C735.03 786.002 676.869 731.811 612.908 731.811Z" fill="#422B0D"/>
<path d="M606.961 791.813C585.284 781.433 559.18 790.592 548.647 812.269C540.556 829.213 544.22 849.516 557.806 862.644C579.483 873.025 605.587 863.865 616.12 842.189C624.21 825.244 620.547 804.941 606.961 791.813Z" fill="#896024"/>
<path d="M1198.03 731.811C1134.07 731.811 1075.91 785.85 1075.91 875.61C1075.91 965.37 1134.07 1019.26 1198.03 1019.26C1261.99 1019.26 1320.15 965.217 1320.15 875.61C1320.15 786.002 1262.29 731.811 1198.03 731.811Z" fill="#422B0D"/>
<path d="M1192.38 791.813C1170.7 781.433 1144.6 790.592 1134.07 812.269C1125.98 829.213 1129.64 849.516 1143.23 862.644C1164.9 873.025 1191.01 863.865 1201.54 842.189C1209.63 825.244 1205.97 804.941 1192.38 791.813Z" fill="#896024"/>
<defs>
<radialGradient id="paint0_radial_801_1908" cx="0" cy="0" r="1" gradientUnits="userSpaceOnUse" gradientTransform="translate(901.875 853.33) scale(869.507 869.507)">
<stop offset="0.5" stop-color="#FDE030"/>
<stop offset="0.92" stop-color="#F7C02B"/>
<stop offset="1" stop-color="#F4A223"/>
</radialGradient>
<radialGradient id="paint1_radial_801_1908" cx="0" cy="0" r="1" gradientUnits="userSpaceOnUse" gradientTransform="translate(245.313 853.941) scale(509.861 785.186)">
<stop offset="0.46" stop-color="#29B6F6"/>
<stop offset="1" stop-color="#1E88E5"/>
</radialGradient>
</defs>
</svg>
