<svg width="1788" height="1723" viewBox="0 0 1788 1723" fill="none" xmlns="http://www.w3.org/2000/svg">
<path d="M893.631 1722.55C463.764 1722.55 0 1452.92 0 861.275C0 269.63 463.764 0 893.631 0C1132.45 0 1352.77 78.5779 1516.09 221.867C1693.28 379.023 1787.26 600.89 1787.26 861.275C1787.26 1121.66 1693.28 1341.99 1516.09 1499.14C1352.77 1642.43 1130.91 1722.55 893.631 1722.55Z" fill="url(#paint0_radial_801_1955)"/>
<path d="M1631.5 349.285C1713.62 481.789 1756.45 639.561 1756.45 815.052C1756.45 1075.44 1662.47 1295.76 1485.28 1452.92C1321.96 1596.21 1100.09 1676.33 862.82 1676.33C584.562 1676.33 292.745 1563.08 120.49 1322.88C286.274 1594.98 598.12 1722.55 893.635 1722.55C1130.91 1722.55 1352.78 1642.43 1516.09 1499.14C1693.28 1341.99 1787.27 1121.66 1787.27 861.274C1787.27 664.983 1733.8 490.571 1631.5 349.285V349.285Z" fill="#EB8F00"/>
<path d="M607.835 466.677C589.192 455.43 565.002 461.593 553.755 480.236C553.446 480.852 552.984 481.468 552.676 482.085C538.501 498.57 540.196 523.531 556.682 537.705C557.144 538.168 557.607 538.476 558.223 538.938C576.712 550.185 600.901 544.176 612.149 525.688C612.611 524.917 612.919 524.301 613.381 523.53C627.556 506.89 625.707 481.93 609.067 467.756C608.605 467.293 608.297 466.985 607.835 466.677Z" fill="#896024"/>
<path d="M1195.76 466.683C1176.96 455.59 1152.62 461.752 1141.53 480.55C1141.22 481.012 1140.91 481.628 1140.6 482.09C1126.58 498.884 1128.89 523.69 1145.69 537.711C1145.84 537.865 1146.15 538.019 1146.3 538.173C1164.79 549.421 1188.98 543.412 1200.23 524.923C1200.69 524.153 1201 523.536 1201.46 522.766C1215.48 505.972 1213.17 481.166 1196.38 467.145C1196.22 466.991 1195.91 466.837 1195.76 466.683Z" fill="#896024"/>
<path d="M1486.36 995.62C1464.79 956.639 1417.95 939.537 1376.35 955.253C1218.27 1001.32 1054.34 1024.28 889.633 1023.51C724.928 1024.28 560.993 1001.32 402.913 955.253C361.467 939.537 314.628 956.485 293.058 995.312C272.104 1033.98 287.203 1078.82 304.922 1117.49C403.837 1334.74 621.852 1464.78 888.401 1465.55H890.866C1157.41 1465.55 1375.43 1334.74 1474.5 1117.49C1492.06 1078.51 1507.32 1034.29 1486.36 995.62V995.62Z" fill="#422B0D"/>
<path d="M1136.29 1404.22C1130.59 1398.98 1124.73 1394.2 1118.88 1388.81C1056.02 1333.5 974.666 1303.76 890.849 1305.46C804.568 1304.07 720.597 1332.73 653.267 1386.65C647.412 1391.43 641.249 1396.05 635.548 1402.06C629.848 1408.07 626.766 1412.38 623.068 1417.47C707.809 1450.6 798.097 1467.54 889.155 1467.08H891.62C978.826 1467.08 1065.26 1451.52 1146.92 1420.86C1143.84 1415 1140.3 1409.46 1136.29 1404.22Z" fill="#ED7770"/>
<path d="M1376.35 955.257C1218.27 1001.33 1054.34 1024.28 889.634 1023.51C724.928 1024.28 560.993 1001.33 402.913 955.257C361.467 939.542 314.629 956.49 293.058 995.317C289.977 1001.17 287.511 1007.33 285.971 1013.65C291.055 1016.27 296.91 1018.89 303.843 1021.66C489.349 1114.57 694.422 1161.72 901.806 1159.25C1100.72 1161.56 1297.31 1118.27 1476.96 1032.91C1484.21 1029.83 1490.22 1026.9 1495.61 1024.13C1494.38 1014.11 1491.14 1004.25 1486.36 995.317C1464.79 956.49 1417.95 939.388 1376.35 955.257V955.257Z" fill="white"/>
<path d="M1486.98 995.774C1465.1 956.793 1418.11 939.537 1376.2 955.253C1218.12 1001.32 1054.18 1024.28 889.633 1023.51C724.928 1024.28 560.993 1001.32 402.913 955.253C361.467 939.537 314.628 956.485 293.058 995.312C272.104 1033.98 287.203 1078.82 304.922 1117.49C312.779 1134.9 321.562 1152.01 331.268 1168.49C331.268 1168.49 298.913 1048.62 326.954 1013.8C336.507 999.01 352.531 989.765 370.095 988.841C377.336 988.841 384.424 990.074 391.357 992.231C552.211 1039.53 719.073 1063.41 886.86 1063.1H892.253C1060.04 1063.41 1226.9 1039.53 1387.76 992.231C1394.69 990.074 1401.78 988.841 1409.02 988.841C1426.58 989.765 1442.76 999.01 1452.31 1013.8C1480.82 1048.62 1448 1168.95 1448 1168.95C1457.55 1152.47 1467.1 1135.52 1475.12 1117.96C1492.68 1079.28 1507.93 1034.6 1486.98 995.774V995.774Z" fill="#EB8F00"/>
<path d="M561.572 249.628L623.898 391.783C628.667 402.664 638.993 410.119 650.847 411.184L802.679 424.798C819.858 427.298 826.711 448.367 814.255 460.498L699.883 556.58C690.622 564.359 686.409 576.583 688.955 588.391L722.202 744.02C725.119 761.106 707.199 774.164 691.826 766.061L559.303 688.455C549.116 682.482 536.521 682.482 526.334 688.455L393.811 766.015C378.485 774.072 360.518 761.06 363.436 743.974L396.682 588.345C399.183 576.537 395.015 564.313 385.754 556.534L271.336 460.545C258.927 448.459 265.78 427.344 282.912 424.844L434.744 411.231C446.598 410.166 456.924 402.71 461.694 391.829L524.019 249.674C531.752 234.116 553.886 234.116 561.572 249.628V249.628Z" fill="#FF3131"/>
<path d="M557.035 400.305L546.478 295.565C546.061 289.73 544.857 279.729 554.211 279.729C561.619 279.729 565.648 295.148 565.648 295.148L597.32 379.237C609.267 411.233 604.358 422.207 592.829 428.69C579.586 436.098 560.045 430.31 557.035 400.305V400.305Z" fill="#FFFF8D"/>
<path d="M687.659 547.276L778.508 476.384C783 472.634 791.103 466.66 784.62 459.854C779.48 454.482 765.589 462.215 765.589 462.215L686.084 493.285C662.377 501.481 646.633 513.613 645.244 528.893C643.438 549.267 661.728 564.964 687.659 547.276Z" fill="#E9B77A"/>
<path d="M1229.57 255.628L1291.9 397.783C1296.67 408.664 1306.99 416.119 1318.85 417.184L1470.68 430.798C1487.86 433.298 1494.71 454.367 1482.26 466.498L1367.88 562.58C1358.62 570.359 1354.41 582.583 1356.96 594.391L1390.2 750.02C1393.12 767.106 1375.2 780.164 1359.83 772.061L1227.3 694.455C1217.12 688.482 1204.52 688.482 1194.33 694.455L1061.81 772.015C1046.48 780.072 1028.52 767.06 1031.44 749.974L1064.68 594.345C1067.18 582.537 1063.02 570.313 1053.75 562.534L939.336 466.545C926.927 454.459 933.78 433.344 950.912 430.844L1102.74 417.231C1114.6 416.166 1124.92 408.71 1129.69 397.829L1192.02 255.674C1199.75 240.116 1221.89 240.116 1229.57 255.628V255.628Z" fill="#FF3131"/>
<path d="M1225.04 406.305L1214.48 301.565C1214.06 295.73 1212.86 285.729 1222.21 285.729C1229.62 285.729 1233.65 301.148 1233.65 301.148L1265.32 385.237C1277.27 417.233 1272.36 428.207 1260.83 434.69C1247.59 442.098 1228.05 436.31 1225.04 406.305V406.305Z" fill="#FFFF8D"/>
<path d="M1355.66 553.276L1446.51 482.384C1451 478.634 1459.1 472.66 1452.62 465.854C1447.48 460.482 1433.59 468.215 1433.59 468.215L1354.08 499.285C1330.38 507.481 1314.63 519.613 1313.24 534.893C1311.44 555.267 1329.73 570.964 1355.66 553.276Z" fill="#E9B77A"/>
<defs>
<radialGradient id="paint0_radial_801_1955" cx="0" cy="0" r="1" gradientUnits="userSpaceOnUse" gradientTransform="translate(893.631 861.275) scale(877.602 877.602)">
<stop offset="0.5" stop-color="#FDE030"/>
<stop offset="0.92" stop-color="#F7C02B"/>
<stop offset="1" stop-color="#F4A223"/>
</radialGradient>
</defs>
</svg>
