<svg width="710" height="713" viewBox="0 0 710 713" fill="none" xmlns="http://www.w3.org/2000/svg">
<path d="M637.662 552.607C642.703 556.112 649.647 554.863 652.977 549.705C686.287 498.097 705.75 438.656 709.379 377.153C713.228 311.94 699.126 246.921 668.616 189.209C638.107 131.497 592.366 83.3148 536.396 49.9341C483.615 18.4551 423.656 1.28232 362.393 0.00239098C356.255 -0.125845 351.329 4.92115 351.393 11.0601C351.458 17.1996 356.488 22.1051 362.627 22.2462C419.824 23.5611 475.786 39.6508 525.073 69.0458C577.549 100.343 620.435 145.517 649.04 199.626C677.645 253.736 690.866 314.696 687.258 375.839C683.868 433.294 665.739 488.83 634.715 537.094C631.41 542.236 632.643 549.118 637.662 552.607Z" fill="#FE5248"/>
<path d="M310.666 13.9304C309.877 7.83839 304.292 3.52365 298.229 4.5092C255.933 11.384 215.196 25.8898 178.001 47.3543C140.781 68.8337 107.78 96.8938 80.5797 130.148C76.7094 134.88 77.6258 141.839 82.4635 145.576C87.3232 149.33 94.2936 148.409 98.1923 143.664C123.602 112.743 154.373 86.6388 189.05 66.6271C223.727 46.6153 261.689 33.0548 301.106 26.5655C307.16 25.5688 311.455 20.0151 310.666 13.9304Z" fill="#4080ED"/>
<path d="M65.6744 169.614C60.515 166.288 53.619 167.779 50.472 173.049C10.538 239.922 -6.47836 318.202 2.22083 395.875C10.9193 473.542 44.8221 546.075 98.5448 602.386C102.786 606.832 109.848 606.754 114.144 602.362C118.419 597.99 118.338 590.995 114.125 586.562C64.0038 533.83 32.3745 466.004 24.2422 393.392C16.1094 320.776 31.949 247.595 69.1601 185.015C72.2839 179.761 70.8118 172.925 65.6744 169.614Z" fill="#FEB03A"/>
<path d="M143.217 628.024C139.458 632.85 140.303 639.825 145.233 643.448C214.61 694.433 300.206 718.494 386.122 710.908C472.042 703.321 552.138 664.627 611.574 602.262C615.792 597.836 615.406 590.826 610.865 586.732C606.302 582.62 599.278 583.012 595.03 587.449C539.359 645.597 464.482 681.67 384.179 688.76C303.88 695.85 223.879 673.456 158.942 625.962C153.981 622.334 146.994 623.175 143.217 628.024Z" fill="#F17741"/>
<path d="M423.473 225.294C436.234 225.294 488.882 238.054 488.882 299.481C488.882 360.907 428.949 450.056 406.319 452.239C381.594 454.632 366.038 439.076 366.038 413.949C366.038 388.821 405.123 372.471 387.174 334.583C369.226 296.685 364.842 225.294 423.473 225.294Z" fill="#FE5248"/>
<path d="M491.249 246.65C487.114 253.667 488.157 261.947 493.566 265.125C498.984 268.313 506.719 265.192 510.844 258.166C514.98 251.14 513.936 242.859 508.528 239.681C503.11 236.494 495.375 239.624 491.249 246.65Z" fill="#FE5248"/>
<path d="M463.407 219.256C462.287 227.325 466.681 234.61 473.219 235.519C479.766 236.429 485.988 230.628 487.118 222.558C488.238 214.479 483.844 207.204 477.297 206.295C470.759 205.376 464.527 211.177 463.407 219.256Z" fill="#FE5248"/>
<path d="M432.533 206.139C432.533 214.956 438.257 222.097 445.302 222.097C452.348 222.097 458.063 214.956 458.063 206.139C458.063 197.333 452.348 190.182 445.302 190.182C438.257 190.182 432.533 197.333 432.533 206.139Z" fill="#FE5248"/>
<path d="M396.388 199.553C396.388 209.356 402.466 217.301 409.943 217.301C417.438 217.301 423.507 209.356 423.507 199.553C423.507 189.751 417.438 181.806 409.943 181.806C402.466 181.806 396.388 189.751 396.388 199.553Z" fill="#FE5248"/>
<path d="M345.554 220.202C349.172 234.168 360.908 243.223 371.792 240.409C382.676 237.595 388.553 223.992 384.935 210.026C381.326 196.06 369.59 187.004 358.706 189.818C347.822 192.633 341.945 206.245 345.554 220.202Z" fill="#FE5248"/>
<path d="M271.709 292.303C258.948 292.303 206.3 305.064 206.3 366.49C206.3 427.917 266.233 517.066 288.862 519.248C313.588 521.642 329.144 506.086 329.144 480.958C329.144 455.831 290.059 439.481 308.007 401.593C325.956 363.695 330.34 292.303 271.709 292.303Z" fill="#FE5248"/>
<path d="M203.87 313.661C208.005 320.678 206.962 328.958 201.553 332.136C196.135 335.323 188.391 332.203 184.275 325.177C180.14 318.15 181.173 309.87 186.582 306.692C192 303.504 199.744 306.635 203.87 313.661Z" fill="#FE5248"/>
<path d="M231.691 286.266C232.811 294.336 228.417 301.621 221.879 302.53C215.332 303.44 209.11 297.639 207.98 289.569C206.86 281.49 211.254 274.215 217.801 273.305C224.349 272.386 230.562 278.187 231.691 286.266Z" fill="#FE5248"/>
<path d="M262.413 273.15C262.413 281.966 256.698 289.107 249.653 289.107C242.598 289.107 236.883 281.966 236.883 273.15C236.883 264.343 242.598 257.193 249.653 257.193C256.698 257.193 262.413 264.343 262.413 273.15Z" fill="#FE5248"/>
<path d="M298.753 266.563C298.753 276.365 292.684 284.311 285.189 284.311C277.703 284.311 271.634 276.365 271.634 266.563C271.634 256.761 277.703 248.816 285.189 248.816C292.684 248.816 298.753 256.761 298.753 266.563Z" fill="#FE5248"/>
<path d="M349.624 287.213C346.015 301.18 334.27 310.235 323.386 307.421C312.512 304.607 306.625 291.004 310.233 277.038C313.842 263.071 325.588 254.016 336.462 256.83C347.346 259.645 353.233 273.257 349.624 287.213Z" fill="#FE5248"/>
</svg>
