<svg width="2734" height="3038" viewBox="0 0 2734 3038" fill="none" xmlns="http://www.w3.org/2000/svg">
<path d="M1338.57 2404.62H1508.09L1508.21 2405.27C1511.89 2424.05 1519.59 2441.82 1530.8 2457.34C1542.01 2472.86 1556.45 2485.76 1573.12 2495.16C1639.17 2531.98 1751.86 2587.37 1841.06 2593.25H1312.24V2430.97C1312.24 2423.99 1315.01 2417.29 1319.95 2412.35C1324.89 2407.41 1331.58 2404.63 1338.57 2404.63V2404.62Z" fill="#F49D1A"/>
<path d="M1602.83 2404.62L1709.41 2462.35H1802.26C1836.98 2462.35 1870.28 2476.14 1894.83 2500.69C1919.38 2525.24 1933.17 2558.54 1933.17 2593.26H1312.24V2430.96C1312.24 2423.97 1315.01 2417.27 1319.95 2412.33C1324.89 2407.39 1331.59 2404.62 1338.58 2404.62H1602.83Z" fill="#F9BC40"/>
<path d="M1354.19 1856.19H1587.07V2346.83H1354.19V1856.19Z" fill="#FDD39D"/>
<path d="M1354.56 2319.71H1586.21C1590.59 2319.71 1594.79 2321.45 1597.88 2324.54C1600.98 2327.64 1602.71 2331.83 1602.71 2336.21V2404.61H1338.06V2336.21C1338.06 2331.83 1339.8 2327.64 1342.89 2324.54C1345.99 2321.45 1350.18 2319.71 1354.56 2319.71V2319.71ZM1907.27 2633.27H1332.58C1326.05 2633.27 1319.78 2630.67 1315.16 2626.05C1310.54 2621.43 1307.95 2615.17 1307.95 2608.64V2593.24H1931.9V2608.64C1931.9 2615.17 1929.31 2621.43 1924.69 2626.05C1920.07 2630.67 1913.8 2633.27 1907.27 2633.27Z" fill="#5BA6E2"/>
<path d="M1709.55 2462.33H1802.41C1837.13 2462.33 1870.43 2476.12 1894.98 2500.67C1919.53 2525.22 1933.32 2558.52 1933.32 2593.24H1709.55V2462.33Z" fill="#E42E21"/>
<path d="M1709.55 2462.33H1802.41C1837.13 2462.33 1870.43 2476.12 1894.98 2500.67C1919.53 2525.22 1933.32 2558.52 1933.32 2593.24H1709.55V2462.33Z" fill="#E42E21"/>
<path d="M1480.68 2633.28H1332.58C1326.05 2633.28 1319.78 2630.69 1315.16 2626.07C1310.54 2621.45 1307.95 2615.18 1307.95 2608.65V2593.26H1503.51C1497.02 2607.2 1489.38 2620.59 1480.68 2633.28Z" fill="#4481D1"/>
<path d="M1869.99 2633.28H1332.58C1326.05 2633.28 1319.78 2630.69 1315.16 2626.07C1310.54 2621.45 1307.95 2615.18 1307.95 2608.65V2593.26H1840.95C1851.03 2593.99 1861.14 2593.99 1871.21 2593.26C1873.54 2606.54 1873.12 2620.16 1869.98 2633.28H1869.99Z" fill="#4481D1"/>
<path d="M1841.23 2593.26H1709.55V2560.13C1751.59 2577.53 1795.94 2588.69 1841.2 2593.26H1841.23Z" fill="#C71B21"/>
<path d="M1903.87 2561.38C1902.25 2561.39 1900.66 2560.96 1899.25 2560.15C1897.85 2559.34 1896.68 2558.18 1895.87 2556.77C1895.52 2556.18 1861.14 2497.97 1811.78 2494.46C1809.34 2494.29 1807.07 2493.15 1805.46 2491.3C1803.86 2489.46 1803.05 2487.05 1803.22 2484.61C1803.42 2482.17 1804.56 2479.91 1806.4 2478.31C1808.24 2476.71 1810.64 2475.89 1813.07 2476.04C1872.29 2480.25 1910.27 2544.77 1911.84 2547.51C1912.66 2548.92 1913.08 2550.51 1913.09 2552.13C1913.09 2553.75 1912.66 2555.35 1911.86 2556.75C1911.05 2558.16 1909.88 2559.32 1908.48 2560.14C1907.08 2560.95 1905.48 2561.38 1903.86 2561.38H1903.87Z" fill="white"/>
<path d="M1307.95 2608.65V2593.26H1879.38C1881.7 2606.58 1881.03 2620.25 1877.43 2633.28H1332.58C1326.05 2633.28 1319.78 2630.69 1315.16 2626.07C1310.54 2621.45 1307.95 2615.18 1307.95 2608.65V2608.65Z" fill="#4481D1"/>
<path d="M1338.58 2404.62H1412.83C1407.81 2422.62 1408.41 2441.74 1414.55 2459.39C1423.2 2482.22 1438.39 2501.98 1458.22 2516.2C1555.83 2590.44 1694.27 2486.22 1826.41 2558.52C1843.63 2567.98 1859.54 2579.65 1873.72 2593.25H1312.24V2430.97C1312.24 2423.98 1315.01 2417.28 1319.95 2412.34C1324.89 2407.4 1331.59 2404.63 1338.58 2404.63V2404.62Z" fill="#F49D1A"/>
<path d="M1826.56 2558.52C1843.78 2567.97 1859.68 2579.65 1873.86 2593.25H1709.55V2531.55C1750.24 2530.18 1790.58 2539.47 1826.56 2558.52Z" fill="#C71B21"/>
<path d="M1442.04 2152.4C1427.07 2205.3 1454.9 2219.27 1441.1 2302.08C1438.54 2317.19 1435.06 2332.14 1430.67 2346.83H1354.19V1879.19C1367.29 1870.18 1381.24 1862.47 1395.85 1856.19H1587.08V2011.92C1485.54 2060.12 1453.13 2113.26 1442.04 2152.38V2152.4Z" fill="#E9B77A"/>
<path d="M1342.36 2325.68C1342.59 2325.41 1342.72 2325.04 1342.96 2324.78C1345.94 2321.75 1349.97 2319.98 1354.22 2319.83C1354.42 2319.83 1354.59 2319.71 1354.79 2319.71H1437.67C1429.76 2355.78 1418.49 2381.22 1412.94 2404.61H1338.3V2336.21C1338.3 2334.04 1338.73 2331.89 1339.57 2329.89C1340.27 2328.35 1341.21 2326.93 1342.36 2325.68V2325.68Z" fill="#4481D1"/>
<path d="M1238.01 2404.62H1068.49L1068.37 2405.27C1064.69 2424.06 1056.98 2441.82 1045.77 2457.34C1034.56 2472.86 1020.12 2485.76 1003.44 2495.16C937.404 2531.98 824.719 2587.37 735.52 2593.25H1264.34V2430.97C1264.34 2423.99 1261.57 2417.29 1256.63 2412.35C1251.69 2407.41 1244.99 2404.63 1238.01 2404.63V2404.62Z" fill="#F49D1A"/>
<path d="M973.953 2404.62L867.388 2462.35H774.531C739.811 2462.35 706.513 2476.14 681.962 2500.69C657.412 2525.24 643.619 2558.54 643.619 2593.26H1264.56V2430.96C1264.56 2427.5 1263.88 2424.07 1262.55 2420.87C1261.23 2417.68 1259.28 2414.77 1256.84 2412.33C1254.39 2409.88 1251.48 2407.94 1248.29 2406.62C1245.09 2405.29 1241.66 2404.61 1238.2 2404.62H973.953Z" fill="#F9BC40"/>
<path d="M989.553 1856.19H1222.44V2346.83H989.553V1856.19Z" fill="#FDD39D"/>
<path d="M1238.4 2404.61H973.748V2336.21C973.748 2331.83 975.487 2327.64 978.582 2324.54C981.677 2321.45 985.874 2319.71 990.251 2319.71H1221.9C1226.28 2319.71 1230.48 2321.45 1233.57 2324.54C1236.67 2327.64 1238.4 2331.83 1238.4 2336.21V2404.61V2404.61ZM644.572 2593.24H1268.52V2608.64C1268.52 2615.17 1265.92 2621.43 1261.3 2626.05C1256.68 2630.67 1250.42 2633.27 1243.88 2633.27H669.203C662.67 2633.27 656.406 2630.67 651.786 2626.05C647.167 2621.43 644.572 2615.17 644.572 2608.64V2593.24Z" fill="#5BA6E2"/>
<path d="M867.388 2462.33H774.531C739.811 2462.33 706.513 2476.12 681.962 2500.67C657.412 2525.22 643.619 2558.52 643.619 2593.24H867.388V2462.33Z" fill="#E42E21"/>
<path d="M867.388 2462.33H774.531C739.811 2462.33 706.513 2476.12 681.962 2500.67C657.412 2525.22 643.619 2558.52 643.619 2593.24H867.388V2462.33Z" fill="#E42E21"/>
<path d="M1095.82 2633.28H1243.92C1250.45 2633.28 1256.71 2630.69 1261.33 2626.07C1265.95 2621.45 1268.55 2615.18 1268.55 2608.65V2593.26H1072.98C1079.48 2607.2 1087.12 2620.59 1095.82 2633.28V2633.28Z" fill="#4481D1"/>
<path d="M706.661 2633.28H1244.06C1250.6 2633.28 1256.86 2630.69 1261.48 2626.07C1266.1 2621.45 1268.7 2615.18 1268.7 2608.65V2593.26H735.7C725.623 2593.99 715.506 2593.99 705.429 2593.26C703.101 2606.54 703.52 2620.16 706.661 2633.28V2633.28Z" fill="#4481D1"/>
<path d="M735.52 2593.26H867.183V2560.13C825.144 2577.53 780.787 2588.69 735.52 2593.26V2593.26Z" fill="#C71B21"/>
<path d="M672.758 2561.38C671.137 2561.38 669.544 2560.95 668.141 2560.13C666.738 2559.32 665.573 2558.15 664.764 2556.75C663.955 2555.34 663.531 2553.75 663.533 2552.13C663.536 2550.51 663.965 2548.91 664.778 2547.51C666.354 2544.76 704.335 2480.24 763.547 2476.03C765.964 2475.91 768.334 2476.73 770.148 2478.34C771.962 2479.94 773.074 2482.19 773.245 2484.6C773.416 2487.02 772.632 2489.4 771.063 2491.25C769.493 2493.09 767.263 2494.24 764.852 2494.46C715.308 2497.98 681.108 2556.18 680.763 2556.77C679.949 2558.17 678.782 2559.34 677.377 2560.15C675.972 2560.95 674.379 2561.38 672.758 2561.38V2561.38Z" fill="white"/>
<path d="M1268.67 2608.65V2593.26H697.243C694.93 2606.58 695.599 2620.25 699.201 2633.28H1244.06C1250.59 2633.28 1256.85 2630.69 1261.47 2626.07C1266.09 2621.45 1268.69 2615.18 1268.69 2608.65H1268.67Z" fill="#4481D1"/>
<path d="M1238.13 2404.62H1163.87C1168.89 2422.62 1168.29 2441.73 1162.16 2459.39C1153.51 2482.22 1138.32 2501.98 1118.49 2516.2C1020.88 2590.44 882.441 2486.22 750.297 2558.52C733.077 2567.98 717.174 2579.65 702.994 2593.25H1264.47V2430.97C1264.47 2427.51 1263.79 2424.08 1262.47 2420.89C1261.14 2417.69 1259.2 2414.78 1256.75 2412.34C1254.31 2409.89 1251.4 2407.95 1248.2 2406.63C1245.01 2405.31 1241.58 2404.63 1238.12 2404.63L1238.13 2404.62Z" fill="#F49D1A"/>
<path d="M750.297 2558.52C733.077 2567.97 717.174 2579.65 702.994 2593.25H867.305V2531.55C826.618 2530.18 786.279 2539.47 750.297 2558.52Z" fill="#C71B21"/>
<path d="M1134.59 2152.4C1149.57 2205.3 1121.73 2219.27 1135.54 2302.08C1138.09 2317.19 1141.58 2332.14 1145.97 2346.83H1222.45V1879.19C1209.35 1870.18 1195.39 1862.47 1180.78 1856.19H989.553V2011.92C1091.09 2060.12 1123.51 2113.26 1134.59 2152.38V2152.4Z" fill="#E9B77A"/>
<path d="M1234.51 2325.68C1234.28 2325.41 1234.15 2325.04 1233.9 2324.78C1230.92 2321.75 1226.9 2319.98 1222.65 2319.83C1222.46 2319.83 1222.28 2319.71 1222.07 2319.71H1139.19C1147.1 2355.78 1158.37 2381.22 1163.93 2404.61H1238.58V2336.21C1238.57 2334.04 1238.14 2331.89 1237.31 2329.89C1236.6 2328.35 1235.66 2326.93 1234.51 2325.68Z" fill="#4481D1"/>
<path d="M2222.7 1440.69C2216.05 1410.51 2209.89 1380.23 2204.22 1349.85L2216.32 1347.61C2216.42 1348.1 2225.49 1396.95 2234.73 1438L2222.7 1440.69ZM2303.5 1782.47C2281.71 1760.69 2247.96 1704 2231.27 1666.72L2242.5 1661.7C2258.74 1697.98 2291.37 1752.93 2312.21 1773.77L2303.5 1782.47Z" fill="#6FB33E"/>
<path d="M2245.13 1839.09C2228.54 1787.15 2222.39 1705.63 2218.71 1656.95L2218.53 1654.61L2230.83 1653.67L2230.99 1656.01C2234.62 1704.17 2240.72 1784.77 2256.85 1835.35L2245.13 1839.09Z" fill="#6FB33E"/>
<path d="M2199.03 1763.72L2187.54 1759.32C2187.85 1758.5 2218.87 1676.97 2222.64 1616.96L2201.3 1449.46L2202.5 1447.56C2219.57 1421.03 2270.63 1353.16 2293.57 1326.53L2302.91 1334.57C2279.56 1361.69 2230.57 1427.25 2214.08 1452.36L2234.89 1616.58C2231.04 1679.64 2200.35 1760.32 2199.04 1763.72H2199.03Z" fill="#6FB33E"/>
<path d="M2253.12 1457.48L2240.88 1456.13C2249.87 1373.94 2273.27 1268.84 2273.51 1267.78L2285.53 1270.48C2285.29 1271.51 2262.05 1375.97 2253.12 1457.48Z" fill="#6FB33E"/>
<path d="M2225.18 1552.19L2222.74 1540.12C2247.26 1535.54 2272.28 1534.24 2297.15 1536.25L2296 1548.52C2272.34 1546.59 2248.52 1547.82 2225.18 1552.19V1552.19ZM2294.17 1604.85C2278.16 1604.5 2265.1 1603.15 2252.49 1601.85C2240.13 1600.57 2227.33 1599.26 2211.81 1598.9L2212.1 1586.58C2228.11 1586.95 2241.16 1588.31 2253.77 1589.6C2266.14 1590.87 2278.93 1592.19 2294.46 1592.54L2294.17 1604.85ZM2203.06 1653.7L2204.28 1641.44L2270.84 1648L2269.64 1660.27L2203.06 1653.7Z" fill="#FDD39D"/>
<path d="M2229.99 1546.96H2217.68L2229.99 1546.83V1546.96Z" fill="black"/>
<path d="M2267.87 1479.74C2267.5 1480.48 2267.26 1481.22 2266.89 1481.95C2256.99 1504.24 2243.74 1524.88 2227.6 1543.16C2222.31 1548.95 2214.18 1555.11 2207.41 1551.04C2206.15 1550.28 2205.09 1549.22 2204.33 1547.96C2202.63 1545.19 2201.54 1542.08 2201.13 1538.85C2199.01 1527.69 2197.94 1516.35 2197.92 1504.98L2225.76 1551.41C2216.64 1553.75 2176.37 1558.06 2170.83 1564.96C2169.7 1566.37 2168.98 1568.07 2168.74 1569.87C2168.51 1571.66 2168.78 1573.49 2169.51 1575.14C2176 1590.82 2242.37 1582.9 2291.27 1598.33L2193.76 1599.53C2180.31 1602.99 2178.24 1607.61 2177.14 1615.74C2175.78 1626.33 2216.51 1648.37 2224.51 1654.16C2213.51 1652.83 2202.36 1653.38 2191.54 1655.79C2188.59 1658.2 2186.57 1661.58 2185.85 1665.33C2185.87 1666.02 2187.33 1667.69 2187.33 1667.69C2053.93 1669.03 1920.76 1679.14 1788.69 1697.97C1813.93 1609.66 1879.57 1466.44 1879.57 1466.44L2086.59 1474.57C2097.13 1475.69 2107.79 1474.82 2118 1471.98C2126.99 1468.9 2186.84 1432.45 2211.47 1426.04C2233.15 1420.5 2261.84 1421.36 2271.2 1441.68C2273.3 1447.91 2274.09 1454.51 2273.52 1461.06C2272.95 1467.61 2271.02 1473.97 2267.87 1479.74V1479.74Z" fill="#FDD39D"/>
<path d="M2267.87 1479.74C2267.5 1480.48 2267.26 1481.22 2266.89 1481.95C2256.99 1504.24 2243.74 1524.88 2227.6 1543.16C2222.31 1548.95 2214.18 1555.11 2207.41 1551.04C2206.15 1550.28 2205.09 1549.22 2204.33 1547.96C2202.63 1545.19 2201.54 1542.08 2201.13 1538.85C2199.01 1527.69 2197.94 1516.35 2197.92 1504.98L2225.76 1551.41C2216.64 1553.75 2176.37 1558.06 2170.83 1564.96C2169.7 1566.37 2168.98 1568.07 2168.74 1569.87C2168.51 1571.66 2168.78 1573.49 2169.51 1575.14C2176 1590.82 2242.37 1582.9 2291.27 1598.33L2193.76 1599.53C2180.31 1602.99 2178.24 1607.61 2177.14 1615.74C2175.78 1626.33 2216.51 1648.37 2224.51 1654.16C2213.51 1652.83 2202.36 1653.38 2191.54 1655.79C2188.59 1658.2 2186.57 1661.58 2185.85 1665.33C2185.87 1666.02 2187.33 1667.69 2187.33 1667.69C2053.93 1669.03 1920.76 1679.14 1788.69 1697.97C1813.93 1609.66 1879.57 1466.44 1879.57 1466.44L2086.59 1474.57C2097.13 1475.69 2107.79 1474.82 2118 1471.98C2126.99 1468.9 2186.84 1432.45 2211.47 1426.04C2233.15 1420.5 2261.84 1421.36 2271.2 1441.68C2273.3 1447.91 2274.09 1454.51 2273.52 1461.06C2272.95 1467.61 2271.02 1473.97 2267.87 1479.74V1479.74Z" fill="#FDD39D"/>
<path d="M2141.68 1668.31C2141.47 1668.1 2141.2 1667.92 2141.01 1667.7C2140.02 1666.58 2139.32 1665.24 2138.96 1663.8C2138.59 1662.35 2138.58 1660.84 2138.93 1659.39C2139.27 1657.94 2139.95 1656.6 2140.92 1655.47C2141.89 1654.34 2143.11 1653.45 2144.49 1652.89L2155.22 1647.1C2151.45 1646.84 2147.78 1645.81 2144.44 1644.06C2141.09 1642.31 2138.14 1639.88 2135.78 1636.94C2133.42 1634 2131.69 1630.59 2130.71 1626.95C2129.73 1623.3 2129.51 1619.5 2130.07 1615.76C2132.18 1599.95 2152.15 1592.76 2169.12 1592.86C2158.94 1590.11 2121.34 1589.14 2121.68 1575.52C2121.44 1571.79 2122.43 1568.09 2124.5 1564.99C2128.56 1560.23 2133.55 1556.36 2139.17 1553.6C2144.78 1550.85 2150.9 1549.27 2157.14 1548.96L2225.7 1475.16C2232.5 1472.18 2240.15 1471.7 2247.27 1473.82C2254.39 1475.94 2260.53 1480.52 2264.59 1486.73C2255.01 1507.2 2242.58 1526.2 2227.66 1543.16C2226.31 1544.63 2224.88 1546.01 2223.35 1547.29L2225.81 1551.41C2216.7 1553.75 2176.43 1558.07 2170.88 1564.96C2169.75 1566.38 2169.03 1568.07 2168.8 1569.87C2168.56 1571.67 2168.83 1573.49 2169.57 1575.15C2174.71 1587.55 2217.37 1585.21 2259.2 1591.34C2254.56 1595.55 2248.66 1598.1 2242.42 1598.58C2244.32 1598.3 2246.25 1598.4 2248.1 1598.87L2193.81 1599.53C2180.37 1602.99 2178.3 1607.61 2177.19 1615.74C2175.83 1626.28 2216.12 1648.13 2224.42 1654.04L2224.17 1654.12C2213.3 1652.77 2202.28 1653.33 2191.6 1655.79C2188.64 1658.2 2186.63 1661.58 2185.91 1665.33C2185.92 1666.02 2187.39 1667.7 2187.39 1667.7C2172.69 1667.72 2157.4 1667.94 2141.68 1668.31V1668.31Z" fill="#E9B77A"/>
<path d="M2228.31 1468.9C2218.41 1491.18 2205.16 1511.82 2189.02 1530.1C2183.73 1535.89 2187.35 1558.99 2180.57 1554.93C2179.32 1554.16 2178.26 1553.11 2177.49 1551.85C2175.79 1549.08 2174.7 1545.97 2174.29 1542.74C2172.18 1531.57 2171.11 1520.24 2171.09 1508.87L2113.7 1473.08C2115.2 1472.79 2116.68 1472.42 2118.13 1471.97C2127.12 1468.9 2186.98 1432.44 2211.61 1426.04C2217.35 1424.57 2223.23 1423.65 2229.15 1423.28C2230.51 1424.92 2231.67 1426.71 2232.62 1428.63C2234.72 1434.85 2235.51 1441.45 2234.94 1448C2234.36 1454.55 2232.44 1460.91 2229.29 1466.68C2228.92 1467.42 2228.68 1468.16 2228.31 1468.9V1468.9Z" fill="#E9B77A"/>
<path d="M2266.81 1285.06C2256.88 1283.28 2247.4 1279.56 2238.9 1274.11C2230.41 1268.66 2223.07 1261.59 2217.3 1253.31C2211.54 1245.03 2207.46 1235.69 2205.31 1225.83C2203.15 1215.97 2202.96 1205.78 2204.75 1195.85L2224.57 1085.29L2375.87 1112.44L2356.03 1222.99C2354.24 1232.93 2350.52 1242.41 2345.08 1250.91C2339.63 1259.4 2332.56 1266.74 2324.28 1272.5C2315.99 1278.27 2306.65 1282.34 2296.79 1284.5C2286.93 1286.65 2276.75 1286.84 2266.81 1285.06V1285.06Z" fill="#F73A5A"/>
<path d="M2382.34 1119.19C2384.83 1105.34 2349.72 1087.44 2303.93 1079.22C2258.14 1071.01 2219 1075.58 2216.51 1089.44C2214.03 1103.29 2249.13 1121.19 2294.92 1129.41C2340.72 1137.62 2379.85 1133.05 2382.34 1119.19Z" fill="#DB2D4E"/>
<path d="M2352.78 1113.89C2354.38 1104.98 2331.83 1093.49 2302.41 1088.21C2273 1082.93 2247.86 1085.87 2246.26 1094.77C2244.66 1103.67 2267.21 1115.17 2296.63 1120.45C2326.04 1125.73 2351.19 1122.79 2352.78 1113.89Z" fill="#F73A5A"/>
<path d="M2325.76 1109.07C2326.55 1104.65 2315.37 1098.95 2300.78 1096.33C2286.19 1093.71 2273.72 1095.17 2272.93 1099.59C2272.14 1104.01 2283.32 1109.71 2297.91 1112.33C2312.49 1114.95 2324.96 1113.49 2325.76 1109.07Z" fill="#DB2D4E"/>
<path d="M2212.01 1243.86L2225.62 1263C2235.46 1273.13 2247.91 1280.35 2261.59 1283.87C2275.27 1287.38 2289.66 1287.05 2303.16 1282.92C2316.67 1278.78 2328.78 1271 2338.14 1260.43C2347.51 1249.85 2353.78 1236.9 2356.26 1222.99L2376.09 1112.44C2304.5 1229.15 2212.01 1243.84 2212.01 1243.84V1243.86Z" fill="#DB2D4E"/>
<path d="M2210.18 1353.12C2222.13 1347.54 2231.38 1337.44 2235.89 1325.05C2240.4 1312.65 2239.8 1298.97 2234.23 1287.01L2203.5 1221.12L2113.33 1263.18L2144.07 1329.07C2149.65 1341.03 2159.74 1350.28 2172.14 1354.79C2184.54 1359.3 2198.22 1358.71 2210.18 1353.13V1353.12Z" fill="#F73A5A"/>
<path d="M2167.01 1260.38C2194.3 1247.65 2213.3 1230.63 2209.45 1222.37C2205.6 1214.11 2180.35 1217.74 2153.06 1230.47C2125.76 1243.2 2106.76 1260.22 2110.61 1268.48C2114.46 1276.74 2139.71 1273.11 2167.01 1260.38Z" fill="#DB2D4E"/>
<path d="M2164.64 1255.03C2182.18 1246.85 2194.39 1235.92 2191.91 1230.61C2189.44 1225.3 2173.21 1227.63 2155.68 1235.81C2138.14 1243.99 2125.93 1254.93 2128.41 1260.23C2130.88 1265.54 2147.11 1263.21 2164.64 1255.03Z" fill="#F73A5A"/>
<path d="M2162.18 1250.18C2170.88 1246.13 2176.93 1240.7 2175.7 1238.07C2174.48 1235.44 2166.43 1236.59 2157.73 1240.65C2149.04 1244.71 2142.98 1250.13 2144.21 1252.76C2145.44 1255.39 2153.48 1254.24 2162.18 1250.18Z" fill="#DB2D4E"/>
<path d="M2237.8 1318.24L2232.44 1332.47C2227.97 1340.44 2221.37 1347.03 2213.4 1351.49C2205.42 1355.96 2196.36 1358.14 2187.23 1357.79C2178.09 1357.44 2169.23 1354.58 2161.61 1349.51C2154 1344.45 2147.93 1337.39 2144.07 1329.1L2113.33 1263.21C2177.48 1324.37 2237.79 1318.24 2237.79 1318.24H2237.8Z" fill="#DB2D4E"/>
<path d="M2297.13 1333.68C2293.53 1328.98 2290.88 1323.62 2289.35 1317.9C2287.81 1312.19 2287.42 1306.22 2288.19 1300.36C2288.96 1294.49 2290.88 1288.83 2293.84 1283.7C2296.8 1278.57 2300.74 1274.08 2305.43 1270.47L2357.66 1230.36L2412.56 1301.84L2360.33 1341.96C2350.85 1349.25 2338.87 1352.46 2327.02 1350.91C2315.16 1349.35 2304.41 1343.16 2297.13 1333.68V1333.68Z" fill="#F73A5A"/>
<path d="M2412.75 1307.27C2419.3 1302.24 2411.14 1280.63 2394.52 1258.99C2377.91 1237.35 2359.13 1223.89 2352.58 1228.92C2346.03 1233.95 2354.19 1255.57 2370.81 1277.2C2387.43 1298.84 2406.21 1312.3 2412.75 1307.27Z" fill="#DB2D4E"/>
<path d="M2401.83 1293.26C2406.04 1290.03 2400.8 1276.14 2390.12 1262.24C2379.44 1248.34 2367.38 1239.69 2363.17 1242.92C2358.96 1246.16 2364.21 1260.04 2374.88 1273.95C2385.56 1287.85 2397.62 1296.5 2401.83 1293.26Z" fill="#F73A5A"/>
<path d="M2392.23 1280.57C2394.32 1278.97 2391.72 1272.08 2386.42 1265.18C2381.13 1258.29 2375.14 1254 2373.06 1255.6C2370.97 1257.21 2373.57 1264.1 2378.86 1270.99C2384.16 1277.88 2390.14 1282.17 2392.23 1280.57Z" fill="#DB2D4E"/>
<path d="M2289.47 1294.1L2287.81 1307.77C2288.07 1316.06 2290.62 1324.11 2295.16 1331.04C2299.71 1337.96 2306.08 1343.5 2313.58 1347.04C2321.07 1350.58 2329.39 1351.98 2337.63 1351.09C2345.87 1350.2 2353.71 1347.06 2360.27 1342L2412.5 1301.87C2335.38 1324.24 2289.47 1294.12 2289.47 1294.12V1294.1Z" fill="#DB2D4E"/>
<path d="M2203.69 1548.96C2197.44 1549.27 2191.33 1550.85 2185.71 1553.61C2180.1 1556.36 2175.11 1560.24 2171.05 1565C2168.98 1568.1 2167.99 1571.8 2168.25 1575.53C2167.88 1589.15 2205.49 1590.12 2215.67 1592.88C2198.7 1592.77 2178.73 1599.96 2176.63 1615.79C2176.07 1619.52 2176.29 1623.32 2177.28 1626.96C2178.26 1630.6 2179.99 1634 2182.35 1636.94C2184.71 1639.88 2187.65 1642.3 2191 1644.05C2194.34 1645.8 2198.01 1646.84 2201.77 1647.1L2191.04 1652.9C2189.66 1653.46 2188.44 1654.35 2187.47 1655.48C2186.5 1656.61 2185.82 1657.96 2185.47 1659.4C2185.13 1660.85 2185.14 1662.36 2185.51 1663.81C2185.87 1665.25 2186.57 1666.59 2187.56 1667.71C2193.25 1673.25 2199.91 1677.68 2207.22 1680.79C2217.54 1684.83 2228.53 1686.89 2239.61 1686.86C2250.18 1688.73 2261.07 1686.49 2270.03 1680.59C2278.06 1673.62 2276.88 1657.03 2266.36 1655.44C2276.56 1653.08 2286.29 1649.02 2295.14 1643.43C2299.54 1640.59 2303.17 1636.7 2305.7 1632.11C2308.23 1627.52 2309.58 1622.38 2309.64 1617.14C2309.52 1614.56 2308.89 1612.02 2307.79 1609.69C2306.68 1607.35 2305.12 1605.26 2303.2 1603.53C2301.27 1601.8 2299.02 1600.48 2296.58 1599.63C2294.14 1598.78 2291.55 1598.43 2288.97 1598.59C2295.79 1598.2 2302.24 1595.37 2307.14 1590.62C2312.04 1585.87 2315.08 1579.51 2315.69 1572.71C2316.31 1565.91 2314.46 1559.12 2310.48 1553.57C2306.51 1548.02 2300.67 1544.08 2294.03 1542.47C2302.18 1538.08 2308.69 1531.18 2312.6 1522.79C2316.51 1514.41 2317.61 1504.98 2315.73 1495.92C2314.47 1491.55 2312.3 1487.49 2309.35 1484.02C2306.41 1480.55 2302.77 1477.74 2298.66 1475.78C2294.55 1473.82 2290.08 1472.75 2285.53 1472.65C2280.98 1472.54 2276.45 1473.4 2272.26 1475.17L2203.69 1548.96Z" fill="#FDD39D"/>
<path d="M2203.58 1548.94L2272.14 1475.15C2272.68 1474.85 2273.27 1474.76 2273.83 1474.52C2272.97 1481.82 2271 1488.95 2267.98 1495.66C2267.61 1496.4 2267.36 1497.14 2266.99 1497.88C2257.1 1520.17 2243.85 1540.81 2227.71 1559.09C2225.27 1561.99 2222.15 1564.23 2218.62 1565.61C2215.09 1566.99 2211.27 1567.46 2207.51 1566.97C2202.28 1566.92 2192.41 1555.47 2191.8 1552.26C2191.46 1550.49 2191.32 1548.67 2191.03 1546.88C2192.07 1546.78 2202.57 1548.98 2203.58 1548.95V1548.94Z" fill="#E9B77A"/>
<path d="M2118.26 1471.98C2127.25 1468.9 2187.1 1432.45 2211.73 1426.04C2233.4 1420.5 2262.1 1421.36 2271.46 1441.68C2273.56 1447.91 2274.35 1454.51 2273.78 1461.06C2273.2 1467.61 2271.28 1473.97 2268.13 1479.74C2267.76 1480.48 2267.52 1481.22 2267.15 1481.95C2257.25 1504.24 2244 1524.88 2227.86 1543.16C2222.57 1548.95 2214.44 1555.11 2207.67 1551.04C2206.41 1550.28 2205.35 1549.22 2204.59 1547.96C2202.89 1545.19 2201.79 1542.08 2201.38 1538.85C2199.27 1527.69 2198.2 1516.35 2198.18 1504.98" fill="#FDD39D"/>
<path d="M1788.69 1697.95C1825.9 1692.41 1867.06 1687.38 1909.75 1683.11C1920.43 1632.05 1926.62 1628.98 1937.7 1576.78C1948.06 1527.92 1954.88 1494.57 1953.02 1469.3L1879.57 1466.42C1879.57 1466.42 1813.93 1609.65 1788.69 1697.95V1697.95Z" fill="#E9B77A"/>
<path d="M346.603 1440.69L334.583 1437.99C343.807 1396.95 352.884 1348.09 352.982 1347.61L365.076 1349.85C364.99 1350.34 355.876 1399.43 346.603 1440.69V1440.69ZM265.814 1782.47L257.107 1773.77C277.933 1752.92 310.556 1697.97 326.8 1661.7L338.031 1666.72C321.356 1703.99 287.588 1760.69 265.814 1782.47V1782.47Z" fill="#6FB33E"/>
<path d="M324.25 1839.08L312.514 1835.34C328.659 1784.72 334.743 1704.06 338.388 1655.87L338.548 1653.65L350.839 1654.6L350.667 1656.8C346.997 1705.53 340.839 1787.09 324.25 1839.08V1839.08Z" fill="#6FB33E"/>
<path d="M370.573 1763.72C369.268 1760.32 338.553 1679.64 334.674 1617.73L355.524 1452.36C339.046 1427.25 290.043 1361.69 266.693 1334.57L276.016 1326.53C298.972 1353.16 350.031 1421.03 367.1 1447.56L368.307 1449.46L346.928 1618.12C350.733 1676.98 381.755 1758.51 382.076 1759.32L370.573 1763.72Z" fill="#6FB33E"/>
<path d="M316.166 1457.5C307.237 1375.96 283.986 1271.54 283.752 1270.49L295.772 1267.78C296.006 1268.85 319.417 1373.94 328.407 1456.15L316.166 1457.5Z" fill="#6FB33E"/>
<path d="M344.121 1552.19C320.786 1547.81 296.97 1546.58 273.308 1548.52L272.15 1536.25C297.011 1534.24 322.029 1535.54 346.547 1540.12L344.121 1552.19ZM275.118 1604.85L274.835 1592.53C290.377 1592.2 303.16 1590.87 315.537 1589.6C328.148 1588.29 341.19 1586.95 357.212 1586.58L357.496 1598.9C341.954 1599.26 329.17 1600.57 316.793 1601.85C304.183 1603.15 291.141 1604.5 275.118 1604.86V1604.85ZM298.456 1647.98L365.02 1641.45L366.227 1653.73L299.65 1660.25L298.456 1647.98Z" fill="#FDD39D"/>
<path d="M351.684 1546.96H339.369L351.684 1546.83V1546.96Z" fill="black"/>
<path d="M301.215 1479.74C301.585 1480.48 301.831 1481.22 302.201 1481.95C312.1 1504.24 325.348 1524.88 341.487 1543.16C346.782 1548.95 354.91 1555.11 361.684 1551.04C362.941 1550.28 363.996 1549.22 364.763 1547.96C366.463 1545.19 367.554 1542.08 367.964 1538.85C370.08 1527.69 371.152 1516.35 371.166 1504.98L343.334 1551.41C352.447 1553.75 392.718 1558.06 398.26 1564.96C399.393 1566.37 400.114 1568.07 400.347 1569.87C400.579 1571.66 400.313 1573.49 399.578 1575.14C393.088 1590.82 326.721 1582.9 277.816 1598.33L375.329 1599.53C388.777 1602.99 390.846 1607.61 391.955 1615.74C393.309 1626.33 352.583 1648.37 344.578 1654.16C355.58 1652.83 366.728 1653.38 377.546 1655.79C380.502 1658.2 382.516 1661.58 383.235 1665.33C383.235 1666.02 381.758 1667.69 381.758 1667.69C515.16 1669.03 648.33 1679.14 780.404 1697.97C755.158 1609.66 689.517 1466.44 689.517 1466.44L482.497 1474.57C471.959 1475.69 461.304 1474.82 451.093 1471.98C442.103 1468.9 382.25 1432.45 357.62 1426.04C335.945 1420.5 307.25 1421.36 297.89 1441.68C295.789 1447.91 295 1454.51 295.573 1461.06C296.145 1467.61 298.066 1473.97 301.215 1479.74V1479.74Z" fill="#FDD39D"/>
<path d="M301.215 1479.74C301.585 1480.48 301.831 1481.22 302.201 1481.95C312.1 1504.24 325.348 1524.88 341.487 1543.16C346.782 1548.95 354.91 1555.11 361.684 1551.04C362.941 1550.28 363.996 1549.22 364.763 1547.96C366.463 1545.19 367.554 1542.08 367.964 1538.85C370.08 1527.69 371.152 1516.35 371.166 1504.98L343.334 1551.41C352.447 1553.75 392.718 1558.06 398.26 1564.96C399.393 1566.37 400.114 1568.07 400.347 1569.87C400.579 1571.66 400.313 1573.49 399.578 1575.14C393.088 1590.82 326.721 1582.9 277.816 1598.33L375.329 1599.53C388.777 1602.99 390.846 1607.61 391.955 1615.74C393.309 1626.33 352.583 1648.37 344.578 1654.16C355.58 1652.83 366.728 1653.38 377.546 1655.79C380.502 1658.2 382.516 1661.58 383.235 1665.33C383.235 1666.02 381.758 1667.69 381.758 1667.69C515.16 1669.03 648.33 1679.14 780.404 1697.97C755.158 1609.66 689.517 1466.44 689.517 1466.44L482.497 1474.57C471.959 1475.69 461.304 1474.82 451.093 1471.98C442.103 1468.9 382.25 1432.45 357.62 1426.04C335.945 1420.5 307.25 1421.36 297.89 1441.68C295.789 1447.91 295 1454.51 295.573 1461.06C296.145 1467.61 298.066 1473.97 301.215 1479.74V1479.74Z" fill="#FDD39D"/>
<path d="M427.526 1668.31C427.735 1668.1 428.006 1667.92 428.203 1667.7C429.188 1666.58 429.891 1665.24 430.253 1663.8C430.615 1662.35 430.626 1660.84 430.285 1659.39C429.944 1657.94 429.26 1656.6 428.292 1655.47C427.323 1654.34 426.098 1653.45 424.718 1652.89L413.991 1647.1C417.757 1646.84 421.429 1645.81 424.774 1644.06C428.119 1642.31 431.066 1639.88 433.428 1636.94C435.791 1634 437.518 1630.59 438.501 1626.95C439.483 1623.3 439.701 1619.5 439.139 1615.76C437.033 1599.95 417.058 1592.76 400.087 1592.86C410.272 1590.11 447.871 1589.14 447.526 1575.52C447.775 1571.79 446.783 1568.09 444.706 1564.99C440.645 1560.23 435.656 1556.36 430.044 1553.6C424.431 1550.85 418.315 1549.27 412.07 1548.96L343.511 1475.16C336.706 1472.18 329.065 1471.7 321.944 1473.82C314.824 1475.94 308.685 1480.52 304.619 1486.73C314.199 1507.2 326.634 1526.2 341.553 1543.16C342.895 1544.63 344.335 1546.01 345.863 1547.29L343.4 1551.41C352.513 1553.75 392.784 1558.07 398.326 1564.96C399.459 1566.38 400.181 1568.07 400.413 1569.87C400.645 1571.67 400.379 1573.49 399.644 1575.15C394.496 1587.55 351.836 1585.21 310.013 1591.34C314.647 1595.55 320.547 1598.1 326.787 1598.58C324.898 1598.3 322.973 1598.4 321.122 1598.87L375.395 1599.53C388.844 1602.99 390.913 1607.61 392.021 1615.74C393.376 1626.28 353.092 1648.13 344.792 1654.04L345.038 1654.12C355.91 1652.77 366.935 1653.33 377.612 1655.79C380.568 1658.2 382.582 1661.58 383.302 1665.33C383.289 1666.02 381.824 1667.7 381.824 1667.7C396.516 1667.72 411.812 1667.94 427.526 1668.31V1668.31Z" fill="#E9B77A"/>
<path d="M340.988 1468.9C350.887 1491.18 364.135 1511.82 380.274 1530.1C385.569 1535.89 381.949 1558.99 388.722 1554.93C389.979 1554.16 391.035 1553.11 391.801 1551.85C393.501 1549.08 394.592 1545.97 395.003 1542.74C397.118 1531.57 398.19 1520.24 398.205 1508.87L455.594 1473.08C454.099 1472.79 452.619 1472.42 451.161 1471.97C442.171 1468.9 382.318 1432.44 357.687 1426.04C351.941 1424.57 346.07 1423.65 340.15 1423.28C338.787 1424.92 337.621 1426.71 336.678 1428.63C334.576 1434.85 333.786 1441.45 334.359 1448C334.931 1454.55 336.852 1460.91 340.003 1466.68C340.372 1467.42 340.618 1468.16 340.988 1468.9V1468.9Z" fill="#E9B77A"/>
<path d="M302.546 1285.06C312.48 1283.28 321.965 1279.56 330.46 1274.11C338.955 1268.66 346.294 1261.59 352.058 1253.31C357.821 1245.03 361.897 1235.69 364.051 1225.83C366.206 1215.97 366.398 1205.78 364.615 1195.85L344.788 1085.29L193.494 1112.44L213.334 1222.99C215.116 1232.93 218.837 1242.41 224.285 1250.91C229.733 1259.4 236.801 1266.74 245.085 1272.5C253.369 1278.27 262.707 1282.34 272.567 1284.5C282.426 1286.65 292.613 1286.84 302.546 1285.06V1285.06Z" fill="#F73A5A"/>
<path d="M274.498 1129.43C320.289 1121.21 355.394 1103.31 352.907 1089.45C350.421 1075.6 311.283 1071.02 265.492 1079.24C219.701 1087.46 184.596 1105.36 187.083 1119.21C189.57 1133.07 228.707 1137.64 274.498 1129.43Z" fill="#DB2D4E"/>
<path d="M272.828 1120.47C302.244 1115.19 324.796 1103.69 323.198 1094.79C321.6 1085.88 296.458 1082.94 267.042 1088.22C237.626 1093.5 215.075 1105 216.673 1113.9C218.27 1122.81 243.412 1125.75 272.828 1120.47Z" fill="#F73A5A"/>
<path d="M271.613 1112.34C286.2 1109.73 297.383 1104.02 296.59 1099.6C295.797 1095.18 283.329 1093.73 268.741 1096.34C254.154 1098.96 242.971 1104.66 243.764 1109.08C244.557 1113.5 257.025 1114.96 271.613 1112.34Z" fill="#DB2D4E"/>
<path d="M357.571 1243.86L343.963 1263C334.122 1273.13 321.676 1280.35 307.994 1283.87C294.312 1287.38 279.925 1287.05 266.418 1282.92C252.911 1278.78 240.807 1271 231.439 1260.43C222.07 1249.85 215.801 1236.9 213.322 1222.99L193.494 1112.44C265.083 1229.15 357.571 1243.84 357.571 1243.84V1243.86Z" fill="#DB2D4E"/>
<path d="M359.024 1353.12C347.07 1347.54 337.821 1337.44 333.311 1325.05C328.801 1312.65 329.398 1298.97 334.972 1287.01L365.699 1221.12L455.872 1263.18L425.133 1329.07C419.556 1341.03 409.459 1350.28 397.061 1354.79C384.664 1359.3 370.982 1358.71 359.024 1353.13V1353.12Z" fill="#F73A5A"/>
<path d="M458.902 1268.49C462.755 1260.23 443.752 1243.21 416.458 1230.48C389.164 1217.75 363.915 1214.13 360.062 1222.39C356.209 1230.65 375.212 1247.66 402.506 1260.39C429.8 1273.12 455.05 1276.75 458.902 1268.49Z" fill="#DB2D4E"/>
<path d="M441.095 1260.24C443.571 1254.93 431.361 1243.99 413.825 1235.81C396.288 1227.63 380.065 1225.31 377.59 1230.61C375.114 1235.92 387.324 1246.85 404.86 1255.03C422.396 1263.21 438.619 1265.54 441.095 1260.24Z" fill="#F73A5A"/>
<path d="M425.049 1252.77C426.277 1250.14 420.221 1244.72 411.524 1240.66C402.827 1236.61 394.781 1235.45 393.553 1238.08C392.325 1240.71 398.381 1246.14 407.078 1250.19C415.775 1254.25 423.821 1255.41 425.049 1252.77Z" fill="#DB2D4E"/>
<path d="M331.582 1318.24L336.927 1332.47C341.406 1340.44 347.997 1347.03 355.975 1351.49C363.953 1355.96 373.009 1358.14 382.145 1357.79C391.282 1357.44 400.145 1354.58 407.759 1349.51C415.374 1344.45 421.444 1337.39 425.302 1329.1L456.041 1263.21C391.89 1324.37 331.582 1318.24 331.582 1318.24V1318.24Z" fill="#DB2D4E"/>
<path d="M272.219 1333.68C275.823 1328.98 278.468 1323.62 280.002 1317.9C281.536 1312.19 281.929 1306.22 281.158 1300.36C280.387 1294.49 278.468 1288.83 275.51 1283.7C272.552 1278.57 268.613 1274.08 263.918 1270.47L211.689 1230.36L156.787 1301.84L209.016 1341.96C218.497 1349.25 230.481 1352.46 242.334 1350.91C254.187 1349.35 264.936 1343.16 272.219 1333.68V1333.68Z" fill="#F73A5A"/>
<path d="M198.564 1277.18C215.181 1255.55 223.342 1233.93 216.794 1228.9C210.245 1223.87 191.466 1237.34 174.849 1258.97C158.232 1280.61 150.07 1302.23 156.619 1307.25C163.168 1312.28 181.947 1298.82 198.564 1277.18Z" fill="#DB2D4E"/>
<path d="M194.425 1273.94C205.101 1260.04 210.345 1246.15 206.137 1242.92C201.929 1239.69 189.864 1248.34 179.188 1262.24C168.512 1276.14 163.268 1290.03 167.476 1293.26C171.683 1296.49 183.749 1287.84 194.425 1273.94Z" fill="#F73A5A"/>
<path d="M190.619 1271.01C195.913 1264.11 198.513 1257.22 196.426 1255.62C194.338 1254.02 188.354 1258.31 183.059 1265.2C177.765 1272.09 175.165 1278.98 177.253 1280.59C179.34 1282.19 185.324 1277.9 190.619 1271.01Z" fill="#DB2D4E"/>
<path d="M279.817 1294.1L281.48 1307.77C281.216 1316.06 278.671 1324.11 274.124 1331.04C269.578 1337.96 263.207 1343.5 255.713 1347.04C248.219 1350.58 239.894 1351.98 231.654 1351.09C223.415 1350.2 215.581 1347.06 209.016 1342L156.787 1301.87C233.906 1324.24 279.817 1294.12 279.817 1294.12V1294.1Z" fill="#DB2D4E"/>
<path d="M365.756 1548.96C372.001 1549.27 378.118 1550.85 383.731 1553.61C389.343 1556.36 394.332 1560.24 398.391 1565C400.47 1568.1 401.462 1571.8 401.212 1575.53C401.569 1589.15 363.958 1590.12 353.773 1592.88C370.744 1592.77 390.719 1599.96 392.813 1615.79C393.371 1619.52 393.151 1623.32 392.167 1626.96C391.183 1630.6 389.456 1634 387.095 1636.94C384.735 1639.88 381.791 1642.3 378.449 1644.05C375.107 1645.8 371.44 1646.84 367.677 1647.1L378.404 1652.9C379.783 1653.46 381.009 1654.35 381.977 1655.48C382.946 1656.61 383.629 1657.96 383.971 1659.4C384.312 1660.85 384.301 1662.36 383.939 1663.81C383.577 1665.25 382.874 1666.59 381.889 1667.71C376.199 1673.25 369.531 1677.68 362.221 1680.79C351.904 1684.83 340.915 1686.89 329.832 1686.86C319.264 1688.73 308.379 1686.49 299.413 1680.59C291.384 1673.62 292.566 1657.03 303.083 1655.44C292.885 1653.08 283.157 1649.02 274.302 1643.43C269.901 1640.59 266.273 1636.7 263.743 1632.11C261.213 1627.52 259.861 1622.38 259.807 1617.14C259.923 1614.56 260.553 1612.02 261.659 1609.69C262.765 1607.35 264.325 1605.26 266.249 1603.53C268.173 1601.8 270.422 1600.48 272.864 1599.63C275.306 1598.78 277.892 1598.43 280.472 1598.59C273.656 1598.2 267.209 1595.37 262.305 1590.62C257.401 1585.87 254.365 1579.51 253.752 1572.71C253.139 1565.91 254.988 1559.12 258.963 1553.57C262.939 1548.02 268.776 1544.08 275.411 1542.47C267.264 1538.08 260.752 1531.18 256.843 1522.79C252.933 1514.41 251.835 1504.98 253.711 1495.92C254.973 1491.55 257.147 1487.49 260.091 1484.02C263.034 1480.55 266.679 1477.74 270.786 1475.78C274.894 1473.82 279.37 1472.75 283.92 1472.65C288.47 1472.54 292.991 1473.4 297.184 1475.17L365.756 1548.96Z" fill="#FDD39D"/>
<path d="M365.86 1548.94L297.3 1475.15C296.759 1474.85 296.167 1474.76 295.613 1474.52C296.472 1481.82 298.445 1488.95 301.463 1495.66C301.833 1496.4 302.079 1497.14 302.448 1497.88C312.347 1520.17 325.596 1540.81 341.734 1559.09C344.169 1561.99 347.295 1564.23 350.825 1565.61C354.354 1566.99 358.174 1567.46 361.931 1566.97C367.165 1566.92 377.03 1555.47 377.646 1552.26C377.978 1550.49 378.126 1548.67 378.409 1546.88C377.375 1546.78 366.87 1548.98 365.86 1548.95V1548.94Z" fill="#E9B77A"/>
<path d="M451.315 1471.98C442.324 1468.9 382.472 1432.45 357.841 1426.04C336.166 1420.5 307.472 1421.36 298.112 1441.68C296.011 1447.91 295.222 1454.51 295.794 1461.06C296.366 1467.61 298.288 1473.97 301.437 1479.74C301.807 1480.48 302.053 1481.22 302.422 1481.95C312.321 1504.24 325.57 1524.88 341.708 1543.16C347.004 1548.95 355.132 1555.11 361.905 1551.04C363.162 1550.28 364.218 1549.22 364.984 1547.96C366.684 1545.19 367.776 1542.08 368.186 1538.85C370.301 1527.69 371.373 1516.35 371.388 1504.98" fill="#FDD39D"/>
<path d="M780.502 1697.95C743.285 1692.41 702.128 1687.38 659.443 1683.11C648.753 1632.05 642.571 1628.98 631.487 1576.78C621.13 1527.92 614.307 1494.57 616.167 1469.3L689.615 1466.42C689.615 1466.42 755.256 1609.65 780.502 1697.95Z" fill="#E9B77A"/>
<path d="M1288.43 2098.25C1416.21 2032.63 1542.37 1966.84 1610.39 1913.56C1741.21 1811.1 1814.91 1753.39 1863.06 1644.6C1881.78 1602.32 1933.14 1481.42 1891.6 1338.93C1880.66 1301.47 1845.6 1181.2 1724.5 1114.79C1603.5 1048.43 1482.25 1082.8 1447.37 1094.41C1386.01 1115.18 1331.2 1151.72 1288.43 1200.37C1245.67 1151.72 1190.85 1115.18 1129.5 1094.41C1094.62 1082.8 973.366 1048.43 852.368 1114.79C731.271 1181.2 696.21 1301.47 685.274 1338.93C643.722 1481.42 695.089 1602.32 713.808 1644.6C761.961 1753.39 835.656 1811.1 966.482 1913.56C1034.5 1966.84 1160.66 2032.63 1288.43 2098.25V2098.25Z" fill="#F73A5A"/>
<path d="M1891.51 1338.95C1877.53 1287.21 1853.46 1238.75 1820.69 1196.34C1848.06 1326.02 1802.39 1433.59 1784.98 1472.97C1736.81 1581.77 1663.12 1639.47 1532.29 1741.93C1528.89 1744.6 1525.35 1747.3 1521.67 1750.02C1431.44 1816.41 1322.36 1852.22 1210.35 1852.22C1098.33 1852.22 989.251 1816.41 899.028 1750.02C895.333 1747.3 891.786 1744.61 888.387 1741.95C793.559 1667.68 728.842 1616.85 682.02 1553.1C689.776 1584.51 700.387 1615.13 713.719 1644.6C761.872 1753.41 835.567 1811.12 966.392 1913.58C1034.41 1966.86 1160.57 2032.65 1288.35 2098.26C1416.12 2032.65 1542.28 1966.86 1610.3 1913.58C1741.12 1811.12 1814.82 1753.41 1862.97 1644.62C1881.69 1602.34 1933.05 1481.44 1891.51 1338.95V1338.95Z" fill="#DB2D4E"/>
<path d="M732.165 1318.02C717.583 1318.04 703.103 1320.44 689.295 1325.13C687.867 1329.72 686.479 1334.33 685.132 1338.95C662.943 1417.82 664.347 1501.47 689.172 1579.55C707.63 1585.8 727.227 1587.96 746.603 1585.88C765.978 1583.79 784.668 1577.52 801.376 1567.49C818.084 1557.46 832.409 1543.91 843.356 1527.79C854.304 1511.67 861.613 1493.36 864.775 1474.13C867.937 1454.9 866.876 1435.21 861.667 1416.43C856.458 1397.66 847.226 1380.24 834.61 1365.38C821.994 1350.53 806.297 1338.6 788.609 1330.42C770.92 1322.25 751.664 1318.01 732.177 1318.02H732.165ZM1885.44 1585.97C1912.09 1506.08 1914.18 1420.04 1891.45 1338.95C1889.93 1333.75 1887.88 1326.82 1885.26 1318.79C1852.26 1322.3 1821.74 1337.9 1799.56 1362.58C1777.38 1387.26 1765.12 1419.28 1765.15 1452.46C1765.17 1485.64 1777.47 1517.64 1799.68 1542.29C1821.9 1566.94 1852.44 1582.5 1885.44 1585.97V1585.97Z" fill="#F95F81"/>
<path d="M1906.93 1437.55C1906.75 1431.78 1906.44 1425.94 1905.99 1420.03C1905.31 1410.72 1904.31 1401.44 1902.97 1392.21C1902.8 1390.97 1902.55 1389.69 1902.36 1388.45C1901.35 1382 1900.15 1375.48 1898.77 1368.89C1896.71 1358.82 1894.25 1348.83 1891.41 1338.96L1891.35 1338.75C1889.48 1332.31 1887.52 1325.91 1885.46 1319.53L1885.21 1318.79C1863.41 1321.11 1842.51 1328.77 1824.36 1341.09C1817.27 1386.64 1803.99 1431.01 1784.87 1472.97C1781.1 1481.49 1777.11 1489.6 1773.01 1497.55C1781.52 1521.38 1796.58 1542.32 1816.46 1557.96C1836.35 1573.6 1860.24 1583.31 1885.4 1585.98V1585.95C1886.14 1583.64 1886.86 1581.2 1887.59 1578.78C1890.39 1569.54 1892.91 1560.22 1895.14 1550.83C1895.62 1548.86 1896.05 1546.83 1896.5 1544.82C1897.38 1540.88 1898.23 1536.86 1899.03 1532.77C1899.44 1530.64 1899.85 1528.48 1900.24 1526.31C1901.1 1521.52 1901.9 1516.64 1902.63 1511.67L1903.17 1508.2C1904 1502.17 1904.69 1495.98 1905.28 1489.68C1905.46 1487.76 1905.62 1485.8 1905.77 1483.84C1906.2 1478.58 1906.52 1473.24 1906.75 1467.81C1906.83 1466.3 1906.93 1464.81 1906.98 1463.28C1907.19 1456.51 1907.23 1449.63 1907.1 1442.63C1907.06 1440.95 1906.98 1439.24 1906.93 1437.55V1437.55Z" fill="#D65476"/>
<path d="M1388.83 1583.85C1483.09 1583.85 1559.5 1512.23 1559.5 1423.89C1559.5 1335.54 1483.09 1263.92 1388.83 1263.92C1294.57 1263.92 1218.16 1335.54 1218.16 1423.89C1218.16 1512.23 1294.57 1583.85 1388.83 1583.85Z" fill="white"/>
<path d="M1114.58 1519.66C1171.78 1519.66 1218.15 1467.2 1218.15 1402.48C1218.15 1337.77 1171.78 1285.3 1114.58 1285.3C1057.38 1285.3 1011.01 1337.77 1011.01 1402.48C1011.01 1467.2 1057.38 1519.66 1114.58 1519.66Z" fill="white"/>
<path d="M1642.77 1497.05C1606.6 1691.59 1120.31 1684.18 986.324 1615.37C986.324 1615.37 1082.65 1894.8 1318.22 1880.75C1553.79 1866.7 1631.03 1560.19 1642.77 1497.05Z" fill="#333333"/>
<path d="M1388.58 1590C1291.09 1590 1211.75 1515.49 1211.75 1423.87C1211.75 1332.24 1291.09 1257.75 1388.59 1257.75C1486.09 1257.75 1565.41 1332.27 1565.41 1423.88C1565.41 1515.49 1486.08 1590 1388.59 1590H1388.58ZM1388.58 1270.06C1297.86 1270.06 1224.07 1339.07 1224.07 1423.88C1224.07 1508.7 1297.86 1577.69 1388.59 1577.69C1479.32 1577.69 1553.1 1508.68 1553.1 1423.87C1553.1 1339.05 1479.3 1270.06 1388.59 1270.06H1388.58Z" fill="#333333"/>
<path d="M1390.18 1532.28C1438.51 1532.28 1477.7 1491.79 1477.7 1441.84C1477.7 1391.89 1438.51 1351.4 1390.18 1351.4C1341.84 1351.4 1302.65 1391.89 1302.65 1441.84C1302.65 1491.79 1341.84 1532.28 1390.18 1532.28Z" fill="#333333"/>
<path d="M1432.19 1474.71C1446.22 1474.71 1457.6 1463.33 1457.6 1449.3C1457.6 1435.27 1446.22 1423.9 1432.19 1423.9C1418.16 1423.9 1406.79 1435.27 1406.79 1449.3C1406.79 1463.33 1418.16 1474.71 1432.19 1474.71Z" fill="white"/>
<path d="M1114.43 1525.83C1053.94 1525.83 1004.7 1470.5 1004.7 1402.48C1004.7 1334.46 1053.94 1279.15 1114.43 1279.15C1174.93 1279.15 1224.16 1334.47 1224.16 1402.48C1224.16 1470.48 1174.93 1525.83 1114.43 1525.83ZM1114.43 1291.47C1060.73 1291.47 1017.02 1341.27 1017.02 1402.48C1017.02 1463.71 1060.73 1513.51 1114.43 1513.51C1168.14 1513.51 1211.85 1463.71 1211.85 1402.48C1211.85 1341.27 1168.14 1291.47 1114.43 1291.47Z" fill="#333333"/>
<path d="M1157.71 1497.06C1181.55 1497.06 1200.87 1477.74 1200.87 1453.9C1200.87 1430.07 1181.55 1410.75 1157.71 1410.75C1133.88 1410.75 1114.56 1430.07 1114.56 1453.9C1114.56 1477.74 1133.88 1497.06 1157.71 1497.06Z" fill="#333333"/>
<path d="M1166.08 1453.1C1173.73 1453.1 1179.93 1446.9 1179.93 1439.25C1179.93 1431.6 1173.73 1425.39 1166.08 1425.39C1158.42 1425.39 1152.22 1431.6 1152.22 1439.25C1152.22 1446.9 1158.42 1453.1 1166.08 1453.1Z" fill="white"/>
<path d="M852.469 1547.4C886.237 1561.43 919.304 1576.87 952.765 1591.57C969.23 1598.84 986.238 1607.61 1002.17 1613.77C1018.91 1619.73 1036.04 1624.54 1053.43 1628.17C1088.72 1635.16 1124.41 1639.89 1160.3 1642.34C1196.24 1645.02 1232.35 1646.18 1268.41 1645.42C1304.45 1645.08 1340.46 1642.91 1376.29 1638.9C1412.03 1635.19 1447.48 1628.98 1482.36 1620.33C1517.09 1612.04 1550.39 1598.62 1581.15 1580.5C1596.36 1571.33 1609.86 1559.59 1621.04 1545.8C1631.95 1531.43 1639.41 1514.76 1642.84 1497.05C1641.97 1515.66 1636.3 1533.74 1626.4 1549.52C1616.08 1565.27 1603.1 1579.11 1588.04 1590.42C1557.48 1612 1523.55 1628.36 1487.63 1638.82C1416.47 1659.28 1342.82 1669.79 1268.78 1670.03C1194.83 1671.73 1120.97 1663.93 1049.01 1646.81C1030.88 1642.12 1013.14 1636.03 995.954 1628.58C987.26 1624.37 979.017 1620.03 971.225 1615.56L947.309 1602.26C915.732 1583.95 883.762 1566.39 852.481 1547.4H852.469Z" fill="#333333"/>
<path d="M1160.28 1747.31L1151.62 1763.02L1149.38 1746.15L1128.17 1743.85C1128.17 1743.85 1121.42 1771.2 1111.35 1804.38C1138.76 1830.6 1171.27 1850.91 1206.86 1864.05C1242.45 1877.18 1280.37 1882.87 1318.24 1880.74C1399.28 1875.9 1461.56 1836.47 1508.9 1784.24C1505.68 1764.1 1500.19 1744.39 1492.52 1725.5L1456.48 1738.67L1456.95 1751.33L1449.02 1742.75C1449.02 1742.75 1375.66 1751.99 1349.07 1747.53C1349.07 1747.53 1431.37 1733.77 1440.31 1729.27L1460.46 1687.74L1459.97 1724.22C1459.97 1724.22 1480.84 1725.77 1493.92 1690.52C1499.43 1675.68 1508.65 1646.67 1520.74 1617.34C1400.5 1665.37 1218.48 1668.22 1092.95 1646.54C1107.3 1672.17 1119.12 1699.13 1128.23 1727.05L1143.06 1727.64L1144.17 1699.95L1152.75 1734.6C1152.75 1734.6 1216.67 1742.26 1226.94 1741.21C1204.94 1745.17 1182.63 1747.21 1160.28 1747.31V1747.31Z" fill="white"/>
<path d="M1301.3 1890.49C1074.08 1890.49 978.574 1621.17 977.613 1618.38L970.113 1596.66L990.557 1607.15C1088.6 1657.52 1386.48 1674.22 1541.08 1598.33C1594.72 1572 1625.88 1537.35 1633.69 1495.38L1651.85 1498.74C1648.99 1514.07 1579.07 1874.44 1318.78 1889.97C1312.87 1890.33 1307.04 1890.49 1301.3 1890.49ZM1003.43 1632.99C1031.14 1696.31 1128.82 1883.25 1317.68 1871.54C1495.82 1860.9 1580.24 1676.18 1614.29 1569.44C1595.38 1588.23 1573.36 1603.61 1549.22 1614.91C1397.22 1689.5 1122.28 1678.58 1003.43 1632.99V1632.99Z" fill="#333333"/>
<path d="M1206.94 1189.84C1211.07 1181.17 1205.64 1169.95 1194.8 1164.79C1183.96 1159.62 1171.83 1162.46 1167.7 1171.13C1163.57 1179.8 1169 1191.02 1179.84 1196.18C1190.68 1201.35 1202.81 1198.5 1206.94 1189.84Z" fill="white"/>
<path d="M1184.38 1988.69C1189.51 1980.57 1185.44 1968.79 1175.29 1962.38C1165.14 1955.97 1152.75 1957.36 1147.62 1965.48C1142.5 1973.6 1146.57 1985.38 1156.72 1991.79C1166.87 1998.2 1179.25 1996.81 1184.38 1988.69Z" fill="white"/>
<path d="M805.51 1278.99C803.411 1278.99 801.348 1278.45 799.516 1277.43C797.683 1276.41 796.142 1274.93 795.039 1273.15C793.937 1271.36 793.308 1269.32 793.214 1267.23C793.119 1265.13 793.562 1263.05 794.5 1261.17C795.535 1259.1 900.658 1054.89 1118.1 1144.44C1121.12 1145.69 1123.52 1148.08 1124.78 1151.1C1126.03 1154.12 1126.04 1157.51 1124.8 1160.53C1123.55 1163.55 1121.16 1165.95 1118.14 1167.21C1115.13 1168.47 1111.73 1168.47 1108.71 1167.23C912.739 1086.53 820.35 1264.57 816.532 1272.19C815.507 1274.24 813.933 1275.96 811.987 1277.16C810.04 1278.36 807.797 1278.99 805.51 1278.99V1278.99ZM1107.24 1950.17C1105.15 1950.18 1103.1 1949.64 1101.27 1948.62C878.958 1825.12 797.985 1676.17 794.648 1669.89C793.113 1667.01 792.786 1663.63 793.74 1660.51C794.694 1657.38 796.85 1654.76 799.734 1653.23C802.618 1651.69 805.994 1651.37 809.119 1652.32C812.244 1653.27 814.862 1655.43 816.397 1658.31C817.173 1659.79 897.764 1807.39 1113.22 1927.1C1115.6 1928.42 1117.48 1930.5 1118.56 1933.01C1119.63 1935.52 1119.84 1938.31 1119.16 1940.95C1118.47 1943.59 1116.93 1945.93 1114.77 1947.6C1112.61 1949.27 1109.96 1950.17 1107.24 1950.17V1950.17Z" fill="white"/>
<path d="M55.5078 4.17773H875.974" stroke="#467EEA" stroke-width="7.86453"/>
</svg>
