<svg width="4657" height="2620" viewBox="0 0 4657 2620" fill="none" xmlns="http://www.w3.org/2000/svg">
<path opacity="0.67" d="M1040.4 2262.44C1040.4 2262.44 1254.89 2065.02 1008.51 1645.87C762.122 1226.72 805.927 827.773 1210.09 763.583C1614.26 699.393 1852.81 823.164 2077.38 544.862C2301.96 266.56 3008.98 243.416 3035.42 659.463C3068.21 1175.24 3443.46 1223.68 3570.46 1395.63C3868.34 1798.87 3272.58 2107.81 3570.46 2262.47H1040.4V2262.44Z" fill="#E4FFB0"/>
<path d="M3108.28 1898.95C3108.28 1898.95 3031.95 1875.47 2996.82 1809.9C2961.7 1744.32 2881.1 1375.27 2776.51 1315.61C2776.51 1315.61 3022.63 1266.27 3127.9 1614.56C3149.7 1686.73 3149.22 1763.83 3127.34 1835.98L3108.28 1898.95Z" fill="#FFE5B8"/>
<path d="M3109.74 2072.91C3109.74 2072.91 3151.9 1621.01 2897.8 1382.2" stroke="#FFC77D" stroke-width="0.391891" stroke-miterlimit="10" stroke-linecap="round"/>
<path d="M3202.39 1922.84C3202.39 1922.84 3141.63 1869.01 3134.57 1780.25C3127.49 1691.48 3177.09 1272.14 3489.13 1182.23C3489.13 1182.23 3423.71 1514.22 3327.03 1739.76C3303.8 1793.98 3272 1844.07 3232.95 1888.25L3202.39 1922.84Z" fill="#FFE5B8"/>
<path d="M3208.03 2150.73C3208.03 2150.73 3143.1 1748.18 3376.92 1310.76" stroke="#FFC77D" stroke-width="0.391891" stroke-miterlimit="10" stroke-linecap="round"/>
<path d="M3278.42 1947.41C3278.42 1947.41 3367.87 1933.8 3416.72 1897.56C3493.66 1840.48 3712.66 1601.86 3927.88 1604.85C3927.88 1604.85 3786.93 1493.76 3624.78 1517.37C3462.64 1540.97 3235.58 1710.23 3278.42 1947.41Z" fill="#FFE5B8"/>
<path d="M3235.39 2072.89C3235.39 2072.89 3347.6 1619.92 3764.84 1561.79" stroke="#FFC77D" stroke-width="0.391891" stroke-miterlimit="10" stroke-linecap="round"/>
<path d="M3463.78 1794.89C3367.05 1789.7 3335.01 1850.11 3335.01 1850.11C3335.01 1850.11 3354.61 1795.91 3344.1 1741.38" stroke="#FFC77D" stroke-width="0.391891" stroke-miterlimit="10" stroke-linecap="round"/>
<path d="M3454.89 1645.88C3454.89 1645.88 3454.63 1693.86 3435.03 1732.51C3435.03 1732.51 3477.38 1712.4 3570.49 1708.66" stroke="#FFC77D" stroke-width="0.391891" stroke-miterlimit="10" stroke-linecap="round"/>
<path d="M3594.73 1552.55C3594.73 1552.55 3581.14 1598.13 3547.16 1641.24C3547.16 1641.24 3592.06 1621.45 3680.18 1630.62" stroke="#FFC77D" stroke-width="0.391891" stroke-miterlimit="10" stroke-linecap="round"/>
<path d="M3170.59 1691.04C3170.59 1691.04 3205.08 1741.38 3212.92 1820.54C3212.92 1820.54 3245.06 1754.16 3298.2 1731.22" stroke="#FFC77D" stroke-width="0.391891" stroke-miterlimit="10" stroke-linecap="round"/>
<path d="M3214.74 1515.75C3214.74 1515.75 3249.11 1564.36 3256.53 1609.94C3256.53 1609.94 3295.75 1576.01 3363.84 1559.46" stroke="#FFC77D" stroke-width="0.391891" stroke-miterlimit="10" stroke-linecap="round"/>
<path d="M3286.62 1383.81L3308.01 1458.58C3308.01 1458.58 3363.7 1413.67 3403.43 1397.44" stroke="#FFC77D" stroke-width="0.391891" stroke-miterlimit="10" stroke-linecap="round"/>
<path d="M2904.61 1441.77L2982.71 1484.8C2982.71 1484.8 2985.45 1446.11 3008.98 1424.88" stroke="#FFC77D" stroke-width="0.391891" stroke-miterlimit="10" stroke-linecap="round"/>
<path d="M2955.64 1583.99C2955.64 1583.99 3000.66 1575.74 3042.7 1602.09C3042.7 1602.09 3048.03 1564.46 3076 1542.15" stroke="#FFC77D" stroke-width="0.391891" stroke-miterlimit="10" stroke-linecap="round"/>
<path d="M2996.59 1710.99C2996.59 1710.99 3060.94 1709.58 3087.55 1752.91C3087.55 1752.91 3096.5 1711.62 3126.79 1697.24" stroke="#FFC77D" stroke-width="0.391891" stroke-miterlimit="10" stroke-linecap="round"/>
<path d="M3734.63 992.316L2978.13 1080.84C2960.98 1082.85 2945.46 1070.58 2943.47 1053.43L2886.74 568.337C2884.73 551.186 2897 535.66 2914.15 533.671L3670.64 445.149C3687.79 443.135 3703.32 455.411 3705.3 472.562L3762.04 957.65C3764.05 974.777 3751.78 990.303 3734.63 992.316Z" fill="#EFEFEF"/>
<path d="M2889.59 592.74L3708.18 496.965" stroke="black" stroke-width="0.13063" stroke-miterlimit="10"/>
<path d="M3035.39 659.452L3074.81 996.438" stroke="#4BB9EF" stroke-width="0.653152" stroke-miterlimit="10" stroke-linecap="round"/>
<path d="M3045.68 976.353L3654.07 905.152" stroke="#4BB9EF" stroke-width="0.653152" stroke-miterlimit="10" stroke-linecap="round"/>
<path opacity="0.23" d="M3203.58 719.144L3110.82 730.367L3139.31 965.905L3232.07 954.682L3203.58 719.144Z" fill="#4BB9EF"/>
<path d="M3218.76 844.288L3126 855.511L3139.36 965.934L3232.12 954.711L3218.76 844.288Z" fill="#4BB9EF"/>
<path opacity="0.23" d="M3320.82 769.132L3228.07 780.355L3248.91 952.65L3341.66 941.427L3320.82 769.132Z" fill="#4BB9EF"/>
<path d="M3331.18 855.277L3238.42 866.5L3248.84 952.647L3341.6 941.424L3331.18 855.277Z" fill="#4BB9EF"/>
<path opacity="0.23" d="M3427.73 706.952L3334.97 718.175L3361.68 938.998L3454.44 927.775L3427.73 706.952Z" fill="#4BB9EF"/>
<path d="M3433.59 755.482L3340.83 766.705L3361.67 939L3454.43 927.776L3433.59 755.482Z" fill="#4BB9EF"/>
<path opacity="0.23" d="M3530.74 602.286L3437.98 613.509L3475.68 925.2L3568.44 913.976L3530.74 602.286Z" fill="#4BB9EF"/>
<path d="M3536.95 653.326L3444.19 664.549L3475.72 925.23L3568.48 914.007L3536.95 653.326Z" fill="#4BB9EF"/>
<path d="M2936.66 571.196C2942.53 571.196 2947.29 566.439 2947.29 560.571C2947.29 554.703 2942.53 549.945 2936.66 549.945C2930.8 549.945 2926.04 554.703 2926.04 560.571C2926.04 566.439 2930.8 571.196 2936.66 571.196Z" fill="#4BB9EF"/>
<path d="M2973.25 566.761C2979.12 566.761 2983.87 562.004 2983.87 556.135C2983.87 550.267 2979.12 545.51 2973.25 545.51C2967.38 545.51 2962.63 550.267 2962.63 556.135C2962.63 562.004 2967.38 566.761 2973.25 566.761Z" fill="#4BB9EF"/>
<path d="M3009.84 562.311C3015.71 562.311 3020.46 557.553 3020.46 551.685C3020.46 545.817 3015.71 541.06 3009.84 541.06C3003.97 541.06 2999.21 545.817 2999.21 551.685C2999.21 557.553 3003.97 562.311 3009.84 562.311Z" fill="#4BB9EF"/>
<path d="M1463.69 1898.52C1463.69 1898.52 1555.93 1877.42 1573.27 1762.09C1590.61 1646.76 1649.14 1683.85 1659.98 1577.5C1670.83 1471.17 1633.98 1394.73 1675.17 1309.36C1716.35 1224.02 1654.02 1150.29 1593.06 1202.33C1532.11 1254.37 1527.07 1340.46 1473.22 1377.63C1419.4 1414.79 1420.51 1519.91 1443.24 1577.5C1473.97 1655.45 1345.35 1719.98 1463.69 1898.52Z" fill="#BDD6E5"/>
<path d="M1460.28 2105.53C1460.28 2105.53 1445.63 1553.61 1581.78 1294.83" stroke="#7AB5D3" stroke-width="0.391891" stroke-miterlimit="10" stroke-linecap="round"/>
<path d="M1384.59 2000.88C1384.71 2000.75 1384.66 1870.99 1267.61 1843.43C1150.55 1815.87 1170.08 1708.07 1068.2 1700.18C966.333 1692.3 868.099 1724.47 801.592 1719.98C659.262 1710.37 662.876 1846.76 801.592 1867.09C940.307 1887.41 951.149 1965.19 1096.37 1978.34C1241.61 1991.46 1319.49 2062.32 1384.59 2000.88Z" fill="#BDD6E5"/>
<path d="M827.148 1783.05C827.148 1783.05 1189.59 1783.05 1593.01 2173.6" stroke="#7AB5D3" stroke-width="0.391891" stroke-miterlimit="10" stroke-linecap="round"/>
<path d="M1379.68 1900.13C1379.68 1900.13 1467.75 1847.24 1401.99 1764.66C1336.24 1682.09 1403.79 1556.79 1298.33 1495.19C1192.87 1433.6 1108.65 1444.95 1055.34 1359.53C1002.03 1274.12 854.021 1249.33 832.24 1311.89C817.856 1353.23 1000.38 1427.17 1028.15 1547.08C1055.92 1667 1112.39 1704.57 1207.1 1763.72C1301.82 1822.86 1284.36 1894.72 1379.68 1900.13Z" fill="#BDD6E5"/>
<path d="M958.301 1369.9C958.301 1369.9 1288.9 1519.26 1502.35 2227.85" stroke="#7AB5D3" stroke-width="0.391891" stroke-miterlimit="10" stroke-linecap="round"/>
<path d="M3377.03 2262.44H1279.17C1285.45 2208.71 1306.99 2151.8 1340.2 2098.38C1443.02 1932.91 1657.65 1801.2 1876.65 1902.51C1968.09 1944.82 2045.78 1976.86 2118.09 1998.02C2312.01 2054.74 2467.36 2033.29 2746.32 1922.31C2764.54 1915.08 2782.27 1908.82 2799.56 1903.53C3198.39 1781 3351.29 2156.63 3370.02 2207.62C3371.38 2211.31 3372.01 2213.3 3372.01 2213.3C3372.01 2213.3 3375.96 2233.31 3377.03 2262.44Z" fill="#DBF998"/>
<path d="M3491.49 2262.45H1133.64C1176.08 2200.71 1247.85 2135.26 1340.24 2098.39C1429.74 2062.63 1538.6 2053.68 1658.91 2100.86C1893.82 2193.05 1981.11 2110.18 2118.13 1998.02C2155.56 1967.39 2196.72 1934.56 2245.59 1902.52C2422.66 1786.51 2661.28 1819.99 2799.58 1903.54C2839.29 1927.48 2870.7 1955.55 2890.05 1985.39C2986.86 2134.68 3067.8 2200.32 3319.22 2203.21C3337.32 2203.4 3354.23 2204.96 3370.02 2207.63C3421.15 2216.24 3460.78 2236.66 3491.49 2262.45Z" fill="#E4FFB0"/>
<path d="M988.582 2262.45H1133.63H1279.21H3377.07H3491.5H3666.04" stroke="#050505" stroke-width="0.522521" stroke-miterlimit="10" stroke-linecap="round"/>
<path d="M1402.54 535.436L1762.92 602.974C1773.91 605.036 1781.14 615.613 1779.1 626.603L1690.23 1100.92C1688.17 1111.91 1677.59 1119.14 1666.61 1117.1L1306.22 1049.56C1295.23 1047.5 1288.01 1036.92 1290.04 1025.93L1378.91 551.617C1380.98 540.628 1391.55 533.374 1402.54 535.436Z" fill="#EAC07D"/>
<path d="M1741.08 635.847L1681.05 956.287L1681.02 956.312L1658.12 1078.58C1657.59 1081.39 1654.85 1083.28 1652.01 1082.75L1470.39 1048.69L1445.89 1044.11H1445.87C1445.84 1044.08 1445.84 1044.08 1445.84 1044.08L1332.13 1022.78C1329.3 1022.25 1327.4 1019.51 1327.94 1016.67L1410.89 573.913C1411.42 571.075 1414.16 569.207 1417 569.74L1736.9 629.685C1739.74 630.267 1741.61 633.009 1741.08 635.847Z" fill="#EFEFEF"/>
<path d="M1659.53 649.33L1490.32 617.623C1478.97 615.489 1471.48 604.572 1473.61 593.194L1478.39 567.649L1688.73 607.071L1683.95 632.616C1681.82 643.969 1670.88 651.465 1659.53 649.33Z" stroke="black" stroke-width="0.391891" stroke-miterlimit="10" stroke-linecap="round" stroke-linejoin="round"/>
<path d="M1681.02 956.308L1658.13 1078.57C1657.59 1081.39 1654.85 1083.28 1652.01 1082.75L1470.39 1048.69C1506.58 1052.91 1573.16 1050 1602.07 980.082C1602.07 980.106 1661.38 998.106 1681.02 956.308Z" fill="#E0DFDE"/>
<path d="M1458.72 644.901L1431.14 639.812L1426.06 667.391L1453.63 672.479L1458.72 644.901Z" stroke="#C1C1C1" stroke-width="0.13063" stroke-miterlimit="10"/>
<path d="M1442.44 732.895L1414.87 727.807L1409.78 755.385L1437.35 760.473L1442.44 732.895Z" stroke="#C1C1C1" stroke-width="0.13063" stroke-miterlimit="10"/>
<path d="M1426.14 820.888L1398.57 815.8L1393.48 843.378L1421.06 848.466L1426.14 820.888Z" stroke="#C1C1C1" stroke-width="0.13063" stroke-miterlimit="10"/>
<path d="M1409.93 908.868L1382.35 903.779L1377.26 931.357L1404.84 936.446L1409.93 908.868Z" stroke="#C1C1C1" stroke-width="0.13063" stroke-miterlimit="10"/>
<path d="M1586.62 671.174L1690.36 690.314" stroke="#C1C1C1" stroke-width="0.391891" stroke-miterlimit="10" stroke-linecap="round"/>
<path d="M1477.95 651.088L1563.99 666.978" stroke="#C1C1C1" stroke-width="0.391891" stroke-miterlimit="10" stroke-linecap="round"/>
<path d="M1473.79 673.488L1686.24 712.716" stroke="#C1C1C1" stroke-width="0.391891" stroke-miterlimit="10" stroke-linecap="round"/>
<path d="M1670.22 732.933L1682.1 735.116" stroke="#C1C1C1" stroke-width="0.391891" stroke-miterlimit="10" stroke-linecap="round"/>
<path d="M1637.45 906.169L1649.36 908.377" stroke="#C1C1C1" stroke-width="0.391891" stroke-miterlimit="10" stroke-linecap="round"/>
<path d="M1517.53 704.744L1649.77 729.149" stroke="#C1C1C1" stroke-width="0.391891" stroke-miterlimit="10" stroke-linecap="round"/>
<path d="M1469.64 695.919L1497.02 700.965" stroke="#C1C1C1" stroke-width="0.391891" stroke-miterlimit="10" stroke-linecap="round"/>
<path d="M1570.28 759.979L1674.02 779.12" stroke="#C1C1C1" stroke-width="0.391891" stroke-miterlimit="10" stroke-linecap="round"/>
<path d="M1461.52 739.894L1547.56 755.783" stroke="#C1C1C1" stroke-width="0.391891" stroke-miterlimit="10" stroke-linecap="round"/>
<path d="M1457.43 762.31L1669.89 801.537" stroke="#C1C1C1" stroke-width="0.391891" stroke-miterlimit="10" stroke-linecap="round"/>
<path d="M1501.04 793.55L1633.28 817.955" stroke="#C1C1C1" stroke-width="0.391891" stroke-miterlimit="10" stroke-linecap="round"/>
<path d="M1453.29 784.725L1480.67 789.771" stroke="#C1C1C1" stroke-width="0.391891" stroke-miterlimit="10" stroke-linecap="round"/>
<path d="M1554.68 844.545L1658.42 863.685" stroke="#C1C1C1" stroke-width="0.391891" stroke-miterlimit="10" stroke-linecap="round"/>
<path d="M1446 824.49L1532.03 840.356" stroke="#C1C1C1" stroke-width="0.391891" stroke-miterlimit="10" stroke-linecap="round"/>
<path d="M1441.77 846.875L1654.22 886.102" stroke="#C1C1C1" stroke-width="0.391891" stroke-miterlimit="10" stroke-linecap="round"/>
<path d="M1538.11 934.178L1641.85 953.318" stroke="#C1C1C1" stroke-width="0.391891" stroke-miterlimit="10" stroke-linecap="round"/>
<path d="M1429.37 914.122L1515.4 929.988" stroke="#C1C1C1" stroke-width="0.391891" stroke-miterlimit="10" stroke-linecap="round"/>
<path d="M1425.28 936.538L1637.73 975.741" stroke="#C1C1C1" stroke-width="0.391891" stroke-miterlimit="10" stroke-linecap="round"/>
<path d="M1485.52 878.116L1617.75 902.521" stroke="#C1C1C1" stroke-width="0.391891" stroke-miterlimit="10" stroke-linecap="round"/>
<path d="M1437.68 869.291L1465.07 874.361" stroke="#C1C1C1" stroke-width="0.391891" stroke-miterlimit="10" stroke-linecap="round"/>
<path d="M1427.25 647.483L1443.18 662.451L1437.29 663.785C1438.36 661.626 1439.4 660.194 1440.61 658.593C1441.8 657.065 1443.09 655.609 1444.44 654.275C1447.14 651.582 1450.12 649.253 1453.22 647.191C1456.38 645.202 1459.65 643.456 1463.05 642.073C1464.72 641.321 1466.47 640.787 1468.17 640.156C1469.91 639.598 1471.66 639.137 1473.38 638.628C1473.67 638.555 1473.96 638.701 1474.06 638.992C1474.13 639.259 1474.01 639.526 1473.77 639.647L1473.72 639.671C1472.1 640.423 1470.45 641.102 1468.87 641.879C1467.32 642.752 1465.72 643.48 1464.21 644.426C1461.18 646.221 1458.37 648.307 1455.72 650.539C1453.13 652.844 1450.77 655.343 1448.74 658.035C1447.72 659.37 1446.8 660.777 1446 662.232C1445.22 663.615 1444.42 665.265 1444.08 666.405L1442.46 671.742L1438.21 667.739L1422.27 652.771C1420.82 651.388 1420.75 649.084 1422.1 647.628C1423.49 646.173 1425.79 646.1 1427.25 647.483Z" fill="#FF6700"/>
<path d="M1410.14 740.287L1426.08 755.255L1420.18 756.589C1421.25 754.43 1422.29 752.999 1423.51 751.398C1424.69 749.87 1425.98 748.414 1427.34 747.08C1430.03 744.387 1433.01 742.058 1436.12 739.996C1439.27 738.007 1442.55 736.26 1445.94 734.877C1447.62 734.125 1449.36 733.592 1451.06 732.961C1452.81 732.403 1454.55 731.942 1456.28 731.433C1456.57 731.36 1456.86 731.505 1456.95 731.796C1457.03 732.063 1456.91 732.33 1456.66 732.452L1456.61 732.476C1454.99 733.228 1453.34 733.907 1451.76 734.683C1450.21 735.557 1448.61 736.284 1447.11 737.231C1444.07 739.026 1441.26 741.112 1438.62 743.344C1436.02 745.649 1433.67 748.147 1431.63 750.84C1430.61 752.174 1429.69 753.581 1428.89 755.037C1428.11 756.42 1427.31 758.069 1426.97 759.209L1425.35 764.546L1421.1 760.544L1405.17 745.576C1403.71 744.193 1403.64 741.888 1405 740.433C1406.36 738.977 1408.66 738.904 1410.14 740.287Z" fill="#FF6700"/>
<path d="M1395.43 820.133L1411.36 835.101L1405.47 836.435C1406.54 834.276 1407.58 832.845 1408.79 831.244C1409.98 829.715 1411.27 828.26 1412.62 826.925C1415.32 824.233 1418.3 821.904 1421.4 819.842C1424.56 817.853 1427.83 816.106 1431.23 814.723C1432.9 813.971 1434.65 813.437 1436.35 812.807C1438.09 812.249 1439.84 811.788 1441.56 811.278C1441.85 811.206 1442.14 811.351 1442.24 811.642C1442.31 811.909 1442.19 812.176 1441.95 812.297L1441.9 812.321C1440.27 813.073 1438.63 813.753 1437.05 814.529C1435.5 815.402 1433.9 816.13 1432.39 817.076C1429.36 818.871 1426.55 820.958 1423.9 823.19C1421.31 825.494 1418.95 827.993 1416.92 830.686C1415.9 832.02 1414.98 833.427 1414.18 834.883C1413.4 836.265 1412.6 837.915 1412.26 839.055L1410.63 844.392L1406.39 840.389L1390.45 825.421C1389 824.039 1388.93 821.734 1390.28 820.278C1391.67 818.823 1393.97 818.75 1395.43 820.133Z" fill="#FF6700"/>
<path d="M1378.26 912.907L1394.2 927.875L1388.3 929.21C1389.37 927.05 1390.41 925.619 1391.63 924.018C1392.82 922.49 1394.1 921.034 1395.46 919.7C1398.15 917.007 1401.14 914.678 1404.24 912.616C1407.39 910.627 1410.67 908.88 1414.06 907.498C1415.74 906.745 1417.48 906.212 1419.18 905.581C1420.93 905.023 1422.67 904.562 1424.4 904.053C1424.69 903.98 1424.98 904.125 1425.08 904.417C1425.15 904.683 1425.03 904.95 1424.78 905.072L1424.74 905.096C1423.11 905.848 1421.46 906.527 1419.88 907.303C1418.33 908.177 1416.73 908.905 1415.23 909.851C1412.2 911.646 1409.38 913.732 1406.74 915.964C1404.14 918.269 1401.79 920.767 1399.75 923.46C1398.73 924.794 1397.81 926.201 1397.01 927.657C1396.24 929.04 1395.44 930.689 1395.1 931.83L1393.47 937.167L1389.23 933.164L1373.29 918.196C1371.84 916.813 1371.76 914.508 1373.12 913.053C1374.5 911.622 1376.81 911.549 1378.26 912.907Z" fill="#FF6700"/>
<path d="M2360.29 600.812C2358.16 602.365 2353.94 604.354 2346.59 606.877C2344.12 607.726 2341.55 608.308 2338.95 608.575C2324.42 610.346 2308.87 604.208 2299.8 595.621C2288.69 585.141 2287.16 571.046 2308.75 563.356C2310.06 562.895 2311.37 562.483 2312.61 562.119C2329.03 557.412 2338.05 562.701 2343 570.318C2349.62 580.507 2348.92 594.796 2348.92 594.796C2348.92 594.796 2355.01 594.917 2358.89 596.057C2361.9 596.906 2363.62 598.362 2360.29 600.812Z" fill="#A3794D"/>
<path d="M2360.25 600.807C2358.11 602.359 2353.89 604.348 2346.54 606.871C2344.07 607.72 2341.5 608.303 2338.9 608.569C2324.37 610.34 2308.83 604.203 2299.76 595.615L2298.66 593.602C2299.34 594.111 2312.59 603.718 2328.79 596.537C2345.31 589.211 2342.95 570.58 2342.91 570.337H2342.93C2349.55 580.526 2348.85 594.814 2348.85 594.814C2348.85 594.814 2354.94 594.936 2358.82 596.076L2360.25 600.807Z" fill="#846040"/>
<path d="M2374.15 819.215L2267.21 806.746L2247.71 743.332L2242.05 724.992C2242.05 724.992 2238.13 679.943 2287.61 663.859C2337.06 647.775 2290.81 599.232 2345.77 601.076C2345.77 601.076 2352.05 575.677 2388.19 587.758C2395.64 590.256 2402.21 594.162 2408.32 598.82C2412.54 602.046 2416.55 605.637 2420.5 609.373C2420.55 609.397 2420.57 609.446 2420.6 609.47V609.494C2438.52 626.5 2454.87 646.417 2482.81 648.624C2525.82 652.021 2558.27 657.382 2574.08 723.682C2589.95 789.959 2374.15 819.215 2374.15 819.215Z" fill="#A3794D"/>
<path d="M2345.79 601.073C2309.65 605.779 2342.03 648.936 2302.6 668.441C2263.18 687.945 2271.86 718.366 2271.86 718.366C2271.86 718.366 2257.8 733.431 2247.71 743.329L2242.05 724.989C2242.05 724.989 2238.12 679.939 2287.61 663.856C2337.09 647.772 2290.83 599.229 2345.79 601.073Z" fill="#B7885E"/>
<path d="M2494.32 699.376C2494.32 699.376 2458.01 710.778 2426.86 669.464C2395.72 628.175 2362.92 654.06 2362.92 654.06C2362.92 654.06 2342.02 722.349 2296.27 725.455C2250.53 728.584 2374.35 763.42 2374.35 763.42C2374.35 763.42 2445.03 772.202 2447.31 771.305C2449.59 770.407 2494.32 699.376 2494.32 699.376Z" fill="#846040"/>
<path d="M2473.18 700.496L2457.02 750.276C2457.02 750.276 2444.39 757.894 2430.51 766.19C2414.31 775.845 2396.46 786.325 2395.17 786.495C2392.84 786.811 2305.74 757.966 2305.74 757.966L2309.26 718.909C2309.26 718.909 2313.58 719.807 2320.42 720.534C2331.24 721.65 2348.36 722.257 2364.68 717.939C2364.68 717.939 2365.41 703.237 2356.24 681.38C2356.19 681.307 2356.17 681.234 2356.15 681.137C2356.12 681.113 2356.1 681.064 2356.1 681.064C2353.7 675.388 2350.64 669.226 2346.71 662.725L2393.86 656.587C2393.86 656.587 2399.05 688.755 2424.47 701.03C2436.04 706.585 2451.81 708.065 2473.18 700.496Z" fill="#FFC7B6"/>
<path d="M2424.55 701C2374.03 710.655 2358.04 684.479 2356.32 681.35C2356.27 681.252 2356.25 681.156 2356.22 681.107C2356.2 681.083 2356.17 681.034 2356.17 681.034L2365.2 660.293L2393.96 656.557C2393.91 656.581 2399.11 688.749 2424.55 701Z" fill="#E2A698"/>
<path d="M2408.32 598.82C2380.14 581.475 2345.74 601.076 2345.74 601.076C2345.74 601.076 2352.02 575.677 2388.16 587.758C2395.64 590.256 2402.21 594.162 2408.32 598.82Z" fill="#B7885E"/>
<path d="M2413.77 757.396L2320.54 720.522C2331.35 721.637 2348.48 722.244 2364.8 717.926C2364.8 717.902 2405.11 740.196 2413.77 757.396Z" fill="#F2B1A5"/>
<path d="M2296.17 1775.99L2182.46 1827.93L2152.58 1841.58L2078.77 1875.28L2085.44 1902.4L2073.29 1916.52L2038.14 1899.15L2014.61 1768.01L2067.25 1733.97L2067.27 1733.95L2133.95 1690.84L2221.49 1634.22L2296.17 1775.99Z" fill="#FFC7B6"/>
<path d="M2182.5 1827.92L2152.61 1841.58L2067.29 1733.97L2067.31 1733.94L2133.99 1690.83L2182.5 1827.92Z" fill="#F2B1A5"/>
<path d="M2216.2 1512.57L2152.8 1656.46L2033.37 1595.49L1980.1 1568.32L1943.89 1549.84L1927.11 1571.52L1908.87 1570.77L1900.77 1533.2L1987.21 1435.09L2070.77 1463.35L2098.91 1472.89L2216.2 1512.57Z" fill="#FFC7B6"/>
<path d="M2098.95 1472.87L2033.41 1595.48L1980.15 1568.31L2067.44 1466.13L2070.81 1463.34L2098.95 1472.87Z" fill="#F2B1A5"/>
<path d="M2028.06 1456.07L1923.86 1534.81C1923.86 1534.81 1923.86 1534.84 1923.88 1534.86C1924.61 1536.51 1939.28 1571.2 1909.09 1616.35C1889.75 1645.14 1862.47 1642.69 1844.59 1636.8C1833.75 1633.21 1826.38 1628.31 1826.38 1628.31L1837.31 1603.47L1878.69 1509.58L1919.81 1466.13L1944.52 1439.98L1933.19 1435.66L1914.4 1428.46L1928.88 1395.61L2025.66 1438.26C2033.1 1441.27 2034.44 1451.26 2028.06 1456.07Z" fill="#FFAA00"/>
<path d="M1844.54 1636.8L1919.73 1466.14L1878.62 1509.59L1826.3 1628.31C1826.33 1628.31 1833.7 1633.21 1844.54 1636.8Z" fill="#606060"/>
<path d="M1947.19 1403.74L1928.8 1395.64L1914.32 1428.49L1933.12 1435.67L1947.19 1403.74Z" fill="#606060"/>
<path d="M2085.31 2009.7C2075.58 2016.1 2067 2018.89 2067 2018.89L2051.18 1988.86L2005.37 1901.91L1996.71 1841.56L1991.49 1805.26L1980.89 1811.55L1963.26 1822L1946.21 1789.64L2041.55 1739.38C2048.66 1735.3 2057.49 1740.56 2057.27 1748.72L2054.12 1881.83C2054.12 1881.83 2054.12 1881.83 2054.14 1881.85C2054.17 1881.85 2054.19 1881.85 2054.24 1881.85C2056.5 1882.48 2093.07 1892.96 2109.83 1945.26C2120.6 1978.91 2101.34 1999.14 2085.31 2009.7Z" fill="#FFAA00"/>
<path d="M2085.24 2009.68L1996.64 1841.56L2005.3 1901.92L2066.93 2018.88C2066.93 2018.85 2075.51 2016.09 2085.24 2009.68Z" fill="#606060"/>
<path d="M1964.33 1780.08L1946.21 1789.63L1963.26 1822L1980.89 1811.54L1964.33 1780.08Z" fill="#606060"/>
<path d="M2643.07 1674.76C2534.48 1729.37 2341.32 1800.38 2231.54 1839.8C2196.44 1852.39 2174.88 1861.41 2174.88 1861.41L2088.41 1678.59L2142.88 1648.3L2443.28 1481.32L2306.34 1078.28L2583.5 1080L2623.69 1154.09C2623.69 1154.09 2691.44 1301.58 2724.98 1421.33C2758.53 1541.02 2766.73 1612.59 2643.07 1674.76Z" fill="#34A4E8"/>
<path d="M2227.44 1841.29C2192.61 1854.6 2170.78 1862.9 2170.78 1862.9L2088.41 1678.6L2142.88 1648.3L2227.44 1841.29Z" fill="#4AB2FF"/>
<path d="M2267.66 1099.46C2267.66 1099.46 2246.58 1220.13 2637.07 1162.13L2454.72 1082.72L2267.66 1099.46Z" fill="#D38700"/>
<path d="M2526.77 1820.99C2414.52 1856.21 2171.17 1715.17 2062.67 1646.73C2029.2 1625.63 2008.56 1611.41 2008.56 1611.41L2089.06 1446.86C2107.23 1453.68 2124.98 1460.66 2142.18 1467.72C2266.39 1518.57 2361.45 1571.53 2363.12 1572.45C2362.44 1571.53 2339.74 1540.94 2297.22 1413.09C2293.36 1401.47 2289.31 1389.05 2285.14 1375.78C2226.15 1188.89 2289.43 1094.64 2289.43 1094.64C2293.05 1087.87 2299.06 1082.51 2306.92 1078.39C2373.33 1043.38 2571.69 1094.57 2571.69 1094.57C2571.69 1094.57 2674.39 1774.68 2526.77 1820.99Z" fill="#4AB2FF"/>
<path d="M2373.39 1092.64L2357.91 1124.9C2357.91 1124.9 2238.87 1231.79 2298.44 1414.7L2297.32 1413.1C2293.46 1401.48 2289.41 1389.06 2285.24 1375.79C2226.25 1188.9 2289.54 1094.65 2289.54 1094.65C2293.15 1087.88 2299.16 1082.52 2307.02 1078.4L2373.39 1092.64Z" fill="#AFE1F9"/>
<path d="M2154.28 848.033C2154.28 848.033 2140.46 944.56 2253.36 1044.58L2279.39 900.506C2279.39 900.506 2261.2 809.727 2154.28 848.033Z" fill="#D18600"/>
<path d="M2286.31 909.993C2286.31 909.993 2281 958.948 2262.62 1004.65C2238.8 1063.77 2193.05 1117.38 2108.52 1052.54C2106.27 1050.79 2103.99 1049 2101.68 1047.11C2101.66 1047.08 2101.64 1047.08 2101.64 1047.06L2101.61 1047.03C2093.95 1040.73 2085.99 1033.47 2077.7 1025.2H2077.67C2077.6 1025.13 2077.55 1025.05 2077.45 1024.98C2070.71 1018.24 2063.77 1010.79 2056.59 1002.64C2039.78 983.547 2024.79 964.309 2011.43 945.46C2011.38 945.435 2011.36 945.387 2011.33 945.338C1958.7 871.056 1931.58 802.742 1920.79 771.278C1917.73 762.399 1915.99 756.456 1915.33 754.127C1915.14 753.399 1915.02 753.059 1915.02 753.059C1939.78 749.833 1979.61 710.484 1979.61 710.484C1982.95 715.191 1986.84 720.237 1991.08 725.525C1992.61 727.393 1994.16 729.285 1995.79 731.226C2015.07 754.369 2041.07 781.54 2066 806.503C2066.15 806.648 2066.32 806.818 2066.49 806.988C2078.91 819.408 2091.04 831.247 2101.97 841.775H2102C2102.02 841.8 2102.07 841.848 2102.1 841.873C2102.17 841.945 2102.29 842.042 2102.44 842.188C2103.36 843.086 2104.28 843.935 2105.18 844.808C2105.56 845.172 2105.95 845.56 2106.37 845.972C2129.67 868.291 2146.41 883.574 2146.41 883.574L2166.83 847.525L2194.22 861.862L2286.31 909.993Z" fill="#FFC7B6"/>
<path d="M2262.59 1004.66C2238.77 1063.77 2193.03 1117.39 2108.5 1052.54C2127.61 1065.81 2197.2 1118.26 2244.98 984.132L2262.59 1004.66Z" fill="#F2B1A5"/>
<path d="M2576.23 674.823C2576.23 674.823 2653.1 712.789 2689.46 844.759L2591.78 857.471L2576.23 674.823Z" fill="#D18600"/>
<path d="M2794.32 756.572C2749.94 797.886 2677.78 832.65 2677.78 832.65L2619.23 840.267L2563.85 697.21L2568.51 694.032L2580.93 685.541C2586.87 683.843 2634.02 671.277 2634.02 671.277C2634.02 671.277 2617.6 656.746 2594.44 630.206C2569.96 602.211 2537.97 560.849 2509.81 509.201C2509.81 509.201 2515.8 506.168 2524.07 500.37C2524.44 500.128 2524.8 499.861 2525.19 499.594C2537.73 490.667 2554.83 475.747 2564.41 455.733L2564.43 455.758C2564.46 455.758 2564.46 455.758 2564.46 455.782C2565.72 456.801 2600.45 484.942 2644.67 521.791C2704.87 571.984 2782.61 638.309 2817 674.091C2840.94 698.957 2823.72 729.208 2794.32 756.572Z" fill="#FFC7B6"/>
<path d="M2600.62 724.103L2588.44 732.011L2568.6 694.045L2581.02 685.554C2586.96 683.856 2634.11 671.29 2634.11 671.29C2594.82 694.749 2600.62 724.103 2600.62 724.103Z" fill="#F2B1A5"/>
<path d="M2101.91 841.716C2101.95 841.747 2102.01 841.81 2102.04 841.842C2101.91 841.747 2101.88 841.716 2101.91 841.716Z" fill="#F2B1A5"/>
<path d="M2162.43 934.871C2162.43 934.871 2162.21 934.386 2161.92 933.513C2162.12 933.974 2162.26 934.41 2162.43 934.871Z" fill="#F2B1A5"/>
<path d="M2194.17 861.815C2193.95 868.462 2190.87 874.454 2185.08 880.518C2161.69 905.02 2163.76 921.832 2165.53 927.266C2144.01 883.527 2117.07 856.72 2106.32 845.925C2129.63 868.243 2146.37 883.527 2146.37 883.527L2166.79 847.477L2194.17 861.815Z" fill="#F2B1A5"/>
<path d="M2584.09 881.425C2668.99 1017.88 2637.19 1162.1 2637.19 1162.1C2637.19 1162.1 2593.09 1185.51 2492.29 1162.86C2481.71 1160.5 2470.55 1157.62 2458.72 1154.17C2419.18 1142.58 2385.52 1132.82 2357.99 1124.94L2357.94 1124.91L2351.95 1123.22C2344.48 1121.08 2337.49 1119.09 2331.01 1117.25L2321.65 1114.58C2286.14 1104.49 2267.8 1099.47 2267.8 1099.47C2268.07 1099.18 2268.31 1098.88 2268.58 1098.59C2274.21 1092.29 2278.99 1085.81 2282.99 1079.33C2290.46 1067.35 2295.36 1055.34 2298.54 1044.37C2301.62 1033.89 2303.12 1024.38 2303.82 1016.74C2304.89 1005.27 2304.14 998.015 2304.14 998.015L2253.45 1044.57C2253.62 1025.4 2250.68 1006.89 2245.68 989.403C2232.8 944.232 2206.29 905.854 2185.14 880.527C2167.99 859.979 2154.36 848.02 2154.36 848.02C2197.3 821.65 2194.21 756.49 2225.07 734.098C2234.94 726.942 2246.63 722.648 2258.76 720.246C2263.12 719.397 2267.54 718.791 2271.93 718.354C2292.01 716.462 2311.83 718.766 2325.1 721.071C2335.04 722.818 2341.32 724.564 2341.32 724.564C2385.81 733.759 2424.59 753.287 2424.59 753.287L2445.94 716.607C2451.64 706.831 2461.99 700.742 2473.32 700.475C2480.79 700.281 2487.8 699.893 2494.32 699.335C2503.83 698.534 2512.37 697.418 2519.99 696.06C2561.78 688.661 2576.23 674.809 2576.23 674.809C2583.92 692.397 2592.19 708.869 2600.63 724.055C2600.66 724.079 2600.66 724.079 2600.66 724.079C2601.48 725.583 2602.31 727.063 2603.16 728.519C2603.21 728.591 2603.23 728.688 2603.28 728.737C2603.55 729.174 2603.79 729.61 2604.03 730.047C2619.09 756.441 2634.54 778.832 2648.08 796.639C2671.65 827.618 2689.43 844.696 2689.43 844.696C2649.85 872.303 2584.09 881.425 2584.09 881.425Z" fill="#FFAA00"/>
<path d="M2350.35 617.067C2342.25 622.768 2324.67 658.259 2356.2 681.039C2401 713.401 2415.4 658.575 2402.53 636.256C2389.62 613.962 2365.73 606.272 2350.35 617.067Z" fill="#FFC7B6"/>
<path d="M2564.47 455.716L2561.07 521.725C2561.07 521.725 2561.07 521.726 2529.06 513.89C2523.65 512.58 2517.32 511.027 2509.9 509.208C2505.02 508.019 2500.82 506.66 2497.23 505.156C2497.19 505.132 2497.11 505.108 2497.06 505.084C2496.46 504.841 2495.85 504.598 2495.27 504.332C2495.1 504.235 2495 504.186 2495 504.186C2475.79 495.453 2475.67 483.032 2478.36 474.857C2464.73 497.272 2453.31 479.805 2453.31 479.805C2436.11 458.069 2448.38 417.289 2492.41 411.564C2536.38 405.815 2563.96 451.786 2564.47 455.716Z" fill="#FFC7B6"/>
<path d="M1998.55 742.143L1996.47 743.113L1944.54 766.887L1927.75 774.578C1927.75 774.578 1924.99 773.559 1920.69 771.303C1909.66 765.529 1888.53 751.677 1878.32 726.399C1878.25 726.253 1878.22 726.18 1878.22 726.18C1874.46 716.792 1872.21 705.875 1872.52 693.188C1873.98 632.782 1951.84 643.796 1944.97 668.443C1942.45 677.516 1940.85 683.266 1939.83 686.88C1942.47 682.029 1949.14 677.832 1966 689.306C1972.14 693.503 1977.18 698.476 1981.26 703.716C1988.8 713.299 1993.24 723.657 1995.71 731.202C1997.85 737.728 1998.55 742.143 1998.55 742.143Z" fill="#FFC7B6"/>
<path d="M2404.03 639.452C2404.03 639.452 2367.28 651.945 2358.4 632.028C2358.4 632.028 2361.85 657.476 2331.58 656.312C2312 655.56 2335.24 613.858 2335.24 613.858L2375.09 603.863L2393.48 611.456L2404.03 639.452Z" fill="#A3794D"/>
<path d="M2341.23 724.576C2385.72 733.771 2424.5 753.299 2424.5 753.299L2395.71 780.033C2383.53 791.338 2363.98 788.402 2355.66 774.017L2325.03 721.083C2334.95 722.854 2341.23 724.576 2341.23 724.576Z" fill="#D38700"/>
<path d="M2494.27 699.344L2495.33 744.636C2495.79 763.752 2476.1 776.755 2458.71 768.847L2424.51 753.321L2445.85 716.641C2451.55 706.864 2461.91 700.775 2473.24 700.508C2480.73 700.29 2487.72 699.902 2494.27 699.344Z" fill="#D38700"/>
<path opacity="0.09" d="M2584.03 881.411C2668.92 1017.87 2637.13 1162.09 2637.13 1162.09C2637.13 1162.09 2593.03 1185.5 2492.22 1162.84C2700.38 1113.77 2544.98 849.923 2544.98 849.923C2605.23 884.468 2656.31 807.348 2656.31 807.348C2679.89 838.327 2689.37 844.755 2689.37 844.755C2649.79 872.29 2584.03 881.411 2584.03 881.411Z" fill="black"/>
<path d="M2258.76 720.256C2247.82 725.229 2232.97 740.609 2226.18 786.338C2219.85 828.889 2200.88 860.644 2185.14 880.537C2167.99 859.989 2154.36 848.029 2154.36 848.029C2197.29 821.66 2194.21 756.499 2225.07 734.108C2234.94 726.951 2246.63 722.658 2258.76 720.256Z" fill="#FFE2AE"/>
<path opacity="0.09" d="M2576.14 674.823C2583.83 692.411 2592.1 708.883 2600.55 724.07C2578.11 687.996 2524.7 695.298 2519.9 696.074C2561.69 688.675 2576.14 674.823 2576.14 674.823Z" fill="black"/>
<path opacity="0.09" d="M2329.85 1101.32C2293.66 1044.38 2324.54 947.976 2324.54 947.976C2277.58 1006.25 2245.59 989.386 2245.59 989.386C2250.59 1006.88 2253.55 1025.39 2253.35 1044.55L2304.04 997.998C2304.04 997.998 2304.77 1005.25 2303.73 1016.73C2303.03 1024.34 2301.52 1033.88 2298.44 1044.36C2298.08 1045.57 2297.71 1046.78 2297.3 1048.02C2297.16 1048.51 2296.99 1048.99 2296.82 1049.48C2296.57 1050.23 2296.31 1051 2296.04 1051.76C2295.85 1052.34 2295.63 1052.9 2295.43 1053.48C2295.17 1054.23 2294.88 1054.98 2294.59 1055.74C2294.37 1056.29 2294.17 1056.83 2293.95 1057.38C2293.47 1058.57 2292.98 1059.76 2292.48 1060.95C2292.23 1061.53 2291.97 1062.12 2291.7 1062.67C2291.36 1063.43 2291.02 1064.18 2290.66 1064.95C2290.39 1065.54 2290.1 1066.12 2289.81 1066.7C2289.39 1067.55 2288.96 1068.4 2288.52 1069.25C2288.28 1069.71 2288.06 1070.19 2287.79 1070.65C2287.09 1071.99 2286.36 1073.35 2285.59 1074.68C2285.49 1074.85 2285.39 1075 2285.3 1075.17C2284.57 1076.43 2283.82 1077.69 2283.04 1078.98C2278.99 1085.55 2274.16 1092.12 2268.44 1098.55C2268.17 1098.84 2267.93 1099.14 2267.66 1099.43C2267.66 1099.43 2286 1104.45 2321.51 1114.54L2330.87 1117.21L2351.8 1123.18L2357.79 1124.87C2356.92 1124.51 2343.22 1118.52 2329.85 1101.32Z" fill="black"/>
<path d="M2428.8 751.046C2432.34 758.736 2435.25 766.281 2437.99 774.044C2440.71 781.782 2443.13 789.594 2445.24 797.502C2447.38 805.387 2449.2 813.344 2450.65 821.373C2452.2 829.379 2453.15 837.482 2453.97 845.56L2452.69 845.73C2451.18 837.797 2449.56 829.888 2447.35 822.15C2445.24 814.387 2442.79 806.721 2440.03 799.176C2437.29 791.632 2434.28 784.184 2430.98 776.906C2427.71 769.653 2424.12 762.351 2420.28 755.631L2428.8 751.046Z" fill="#D38700"/>
<path d="M2434.29 784.211C2438.83 784.211 2442.52 780.529 2442.52 775.988C2442.52 771.446 2438.83 767.764 2434.29 767.764C2429.75 767.764 2426.07 771.446 2426.07 775.988C2426.07 780.529 2429.75 784.211 2434.29 784.211Z" fill="#D38700"/>
<path d="M2737.07 799.376C2790.6 758.232 2787.18 724.585 2779.37 707.167C2743.76 628.057 2689.7 564.959 2644.7 521.777C2704.9 571.97 2782.64 638.295 2817.04 674.077C2840.95 698.967 2828.56 737.927 2737.07 799.376Z" fill="#F2B1A5"/>
<path d="M1944.6 766.864C1948.09 792.724 1962.01 868.316 2011.27 945.339C1958.64 871.057 1931.52 802.743 1920.73 771.279C1909.69 765.505 1888.57 751.653 1878.36 726.375C1879.42 728.51 1889.1 746.51 1915.27 754.128C1923.13 756.408 1932.47 757.766 1943.5 757.475C1943.53 757.5 1943.77 760.823 1944.6 766.864Z" fill="#FCD8D2"/>
<path d="M2077.62 1025.19C2077.55 1025.12 2077.47 1025.04 2077.37 1024.96C2077.47 1025.04 2077.55 1025.14 2077.62 1025.19Z" fill="#FCD8D2"/>
<path d="M2594.49 630.214C2570.01 602.219 2538.02 560.857 2509.86 509.209C2504.99 508.02 2500.79 506.662 2497.2 505.158C2501.57 506.686 2511.8 508.675 2524.12 500.379C2524.51 500.136 2524.85 499.869 2525.24 499.603C2525.24 499.603 2526.28 504.867 2529.05 513.891C2536.06 536.792 2554.17 583.903 2594.49 630.214Z" fill="#FCD8D2"/>
<path d="M2142.24 1467.71C2142.24 1467.71 2086.33 1576.32 2062.73 1646.72C2029.26 1625.61 2008.62 1611.4 2008.62 1611.4L2089.12 1446.85C2107.26 1453.66 2125.04 1460.68 2142.24 1467.71Z" fill="#A3CDE2"/>
<path opacity="0.15" d="M1909.09 1616.36C1889.75 1645.16 1862.47 1642.71 1844.59 1636.81C1833.75 1633.22 1826.38 1628.32 1826.38 1628.32L1837.31 1603.48C1838.58 1603.65 1941.64 1617.26 1923.86 1534.83C1923.86 1534.83 1923.86 1534.85 1923.88 1534.87C1924.61 1536.55 1939.28 1571.24 1909.09 1616.36Z" fill="black"/>
<path opacity="0.15" d="M2085.19 2009.69C2075.47 2016.1 2066.88 2018.89 2066.88 2018.89L2051.07 1988.85C2141.51 1926 2055.75 1882.67 2054.05 1881.82C2054.03 1881.8 2054.03 1881.8 2054.03 1881.8L2054.15 1881.82C2056.4 1882.45 2092.98 1892.93 2109.74 1945.23C2120.48 1978.91 2101.23 1999.14 2085.19 2009.69Z" fill="black"/>
<path d="M2362.21 661.461C2364.34 661.461 2366.07 659.734 2366.07 657.603C2366.07 655.473 2364.34 653.746 2362.21 653.746C2360.08 653.746 2358.35 655.473 2358.35 657.603C2358.35 659.734 2360.08 661.461 2362.21 661.461Z" fill="black"/>
<path d="M2386.26 653.763C2388.39 653.763 2390.12 652.036 2390.12 649.906C2390.12 647.776 2388.39 646.049 2386.26 646.049C2384.13 646.049 2382.4 647.776 2382.4 649.906C2382.4 652.036 2384.13 653.763 2386.26 653.763Z" fill="black"/>
<path d="M2378.11 659.714C2378.11 659.714 2379.12 664.881 2386.26 666.579C2387.52 666.87 2386.4 670.922 2383.88 671.455" stroke="black" stroke-width="0.0653152" stroke-miterlimit="10" stroke-linecap="round"/>
<path d="M2376.14 676.788C2376.62 677.467 2378.37 679.772 2381.38 680.306C2384.99 680.961 2388.94 678.778 2390.96 674.823" stroke="black" stroke-width="0.0653152" stroke-miterlimit="10" stroke-linecap="round"/>
<path d="M2146.32 883.525C2146.32 883.525 2158.23 896.286 2165.48 927.265" stroke="#050505" stroke-width="0.13063" stroke-miterlimit="10" stroke-linecap="round"/>
<path d="M2615.96 676.086C2615.96 676.086 2644.68 667.644 2669.08 671.258" stroke="#050505" stroke-width="0.13063" stroke-miterlimit="10" stroke-linecap="round"/>
<path d="M2338.95 655.995C2338.95 655.995 2330.97 650.706 2329.46 661.453C2327.96 672.175 2339.26 681.879 2353.64 679.114V667.13L2338.95 655.995Z" fill="#FFC7B6"/>
<path d="M2404.04 639.456C2404.04 639.456 2404.55 629.728 2413.4 636.23C2422.25 642.731 2414.78 663.109 2406.41 663.667C2398.05 664.225 2404.04 639.456 2404.04 639.456Z" fill="#FFC7B6"/>
<path d="M2338.93 655.999L2345.77 665.12H2348.22L2342.69 648.018L2338.93 655.999Z" fill="#A3794D"/>
<path d="M2404 639.459C2404 639.459 2402.86 648.532 2404 651.638C2404 651.638 2400.89 639.556 2392.14 637.664C2383.38 635.772 2400.99 632.788 2400.99 632.788L2404 639.459Z" fill="#A3794D"/>
<path d="M2326.13 723.022C2326.13 723.022 2351.59 768.533 2358.34 777.824C2365.08 787.115 2382.35 792.428 2395.72 780.032" stroke="white" stroke-width="0.13063" stroke-miterlimit="10" stroke-linecap="round"/>
<path d="M2324.55 947.976C2322.95 954.404 2320.79 960.882 2318.46 966.971C2311.5 985.165 2300.34 1001.44 2285.98 1014.62L2253.38 1044.55L2246.88 1038.66" stroke="#050505" stroke-width="0.13063" stroke-miterlimit="10" stroke-linecap="round" stroke-linejoin="round"/>
<path d="M2545.03 849.939C2545.03 849.939 2568.61 858.26 2584.08 881.428" stroke="#050505" stroke-width="0.13063" stroke-miterlimit="10" stroke-linecap="round" stroke-linejoin="round"/>
<path d="M2545 1171.39C2499.23 1170.63 2454.8 1153.02 2410.9 1140.21C2366.97 1127.4 2267.77 1099.46 2267.77 1099.46C2267.77 1099.46 2265.66 1108.22 2272.52 1121.95" stroke="#050505" stroke-width="0.13063" stroke-miterlimit="10" stroke-linecap="round" stroke-linejoin="round"/>
<path d="M2635.43 779.493C2588.5 713.993 2576.18 674.839 2576.18 674.839C2576.18 674.839 2580.83 677.119 2586.85 681.462" stroke="#050505" stroke-width="0.13063" stroke-miterlimit="10" stroke-linecap="round" stroke-linejoin="round"/>
<path d="M2458.71 768.851C2458.71 768.851 2491.3 778.628 2495.33 744.641" stroke="white" stroke-width="0.13063" stroke-miterlimit="10" stroke-linecap="round"/>
<path d="M2262.56 1292.01C2262.56 1292.01 2316.31 1563.72 2406.22 1614.3" stroke="#050505" stroke-width="0.13063" stroke-miterlimit="10" stroke-linecap="round" stroke-linejoin="round"/>
<path d="M2008.62 1611.42C2008.62 1611.42 2309.58 1802.85 2459.91 1824.93" stroke="#050505" stroke-width="0.13063" stroke-miterlimit="10" stroke-linecap="round" stroke-linejoin="round"/>
<path d="M2596.81 1326.71C2596.81 1326.71 2611.66 1476.24 2603.07 1625.78" stroke="#050505" stroke-width="0.13063" stroke-miterlimit="10" stroke-linecap="round" stroke-linejoin="round"/>
<path d="M2301.79 718.224C2301.79 718.224 2236.35 709.588 2210.91 750.392" stroke="#050505" stroke-width="0.13063" stroke-miterlimit="10" stroke-linecap="round" stroke-linejoin="round"/>
<path d="M2180.94 1741.02L2227.36 1841.28" stroke="#050505" stroke-width="0.13063" stroke-miterlimit="10" stroke-linecap="round" stroke-linejoin="round"/>
<path d="M1919.98 691.038C1919.98 691.038 1963.76 657.633 1991 725.534" stroke="#050505" stroke-width="0.13063" stroke-miterlimit="10" stroke-linecap="round" stroke-linejoin="round"/>
<path d="M2484.65 497.756C2484.65 497.756 2475.02 488.731 2478.34 474.855C2481.66 461.003 2516.35 463.162 2516.35 463.162" stroke="#050505" stroke-width="0.13063" stroke-miterlimit="10" stroke-linecap="round" stroke-linejoin="round"/>
</svg>
