<svg width="500" height="500" viewBox="0 0 500 500" fill="none" xmlns="http://www.w3.org/2000/svg">
<g clip-path="url(#clip0_607_5589)">
<path d="M85.2105 336.56L72.0805 336.84L65.4205 336.95C63.2005 337 60.9605 336.95 58.7305 337H58.2805V336.55L58.2305 325.36V324.86H58.7305L71.9705 324.92C76.3805 324.92 80.7905 325.03 85.2105 325.08H85.4805V325.35C85.4805 327.25 85.3905 329.13 85.3505 331L85.2105 336.56ZM85.2105 336.56L85.0705 330.9C85.0705 329.04 84.9505 327.2 84.9305 325.37L85.2105 325.64C80.7905 325.69 76.3805 325.8 71.9705 325.8L58.7305 325.87L59.2305 325.37L59.1705 336.56L58.7305 336.11C60.9105 336.11 63.0805 336.11 65.2705 336.17L71.8505 336.28L85.2105 336.56Z" fill="#EBEBEB"/>
<path d="M70.4417 350.67L57.3117 351L50.6517 351.11C48.4217 351.16 46.1917 351.11 43.9617 351.16H43.5117V350.71V339.52V339H44.0017H57.2017C61.6117 339 66.0217 339.11 70.4417 339.16H70.7117V339.43C70.7117 341.33 70.6217 343.21 70.5817 345.08L70.4417 350.67ZM70.4417 350.67L70.2917 345C70.2917 343.14 70.1817 341.3 70.1617 339.47L70.4417 339.74C66.0217 339.79 61.6117 339.9 57.2017 339.9L44.0017 340L44.4917 339.5L44.4417 350.69L44.0017 350.24C46.1817 350.24 48.3517 350.24 50.5417 350.3L57.1217 350.41L70.4417 350.67Z" fill="#EBEBEB"/>
<path d="M99.98 339.48H73.5V350.67H99.98V339.48Z" fill="#EBEBEB"/>
<path d="M187.761 82.0005L174.641 82.2805L167.981 82.3905C165.751 82.3905 163.511 82.3905 161.281 82.4505H160.841V82.0005L160.781 70.8105V70.3105H161.281L174.521 70.3805C178.941 70.3805 183.351 70.4906 187.761 70.5406H188.001V70.8105C188.001 72.7105 187.911 74.6006 187.871 76.4706L187.761 82.0005ZM187.761 82.0005L187.621 76.3505C187.621 74.4905 187.511 72.6505 187.491 70.8105L187.761 71.0905C183.351 71.1405 178.941 71.2505 174.521 71.2505L161.281 71.3105L161.781 70.8105L161.731 82.0005L161.281 81.5605C163.461 81.5605 165.641 81.5605 167.831 81.6105L174.411 81.7306L187.761 82.0005Z" fill="#EBEBEB"/>
<path d="M173 96.1207L159.88 96.4007L153.22 96.5107C150.99 96.5607 148.75 96.5107 146.52 96.5707H146.08V96.1207L146 84.9307V84.4307H146.5L159.74 84.5007C164.15 84.5007 168.57 84.6107 172.98 84.6607H173.26V84.9307C173.26 86.8307 173.18 88.7207 173.13 90.5907L173 96.1207ZM173 96.1207L172.86 90.4707C172.86 88.6107 172.75 86.7707 172.73 84.9307L173 85.2107C168.59 85.2107 164.17 85.3707 159.76 85.3707L146.52 85.4307L147.02 84.9307V96.1207L146.57 95.6807C148.75 95.6807 150.93 95.6807 153.12 95.6807L159.7 95.8007L173 96.1207Z" fill="#EBEBEB"/>
<path d="M202.531 84.9307H176.051V96.1207H202.531V84.9307Z" fill="#EBEBEB"/>
<path d="M441.273 339.48H414.793V350.67H441.273V339.48Z" fill="#EBEBEB"/>
<path d="M441.273 -1.75977H414.793V9.43023H441.273V-1.75977Z" fill="#EBEBEB"/>
<path d="M456.003 23.5406L442.883 23.8206L436.223 23.9306C433.993 23.9306 431.763 23.9306 429.523 23.9906H429.083V23.5406L429.023 12.3506V11.8506H429.523L442.763 11.9206C447.183 11.9206 451.593 12.0306 456.003 12.0806H456.283V12.3506C456.283 14.2506 456.193 16.1406 456.153 18.0106L456.003 23.5406ZM456.003 23.5406L455.863 17.8906C455.863 16.0306 455.753 14.1806 455.733 12.3506L456.003 12.6306C451.593 12.6306 447.183 12.7806 442.763 12.7906L429.523 12.8506L430.023 12.3506L430.003 23.5406L429.553 23.1006C431.743 23.1006 433.913 23.1006 436.103 23.1506L442.683 23.2606L456.003 23.5406Z" fill="#EBEBEB"/>
<path d="M70.4417 9.4502L57.3117 9.7202L50.6517 9.84019C48.4217 9.84019 46.1917 9.84019 43.9617 9.84019H43.5117V9.4002V-1.78981V-2.2998H44.0017L57.2417 -2.23981C61.6517 -2.23981 66.0617 -2.12981 70.4817 -2.07981H70.7517V-1.80981C70.7517 0.0801932 70.6617 1.97019 70.6217 3.84019L70.4417 9.4502ZM70.4417 9.4502L70.2917 3.7902C70.2917 1.9302 70.1817 0.0901929 70.1617 -1.73981L70.4417 -1.46981C66.0217 -1.46981 61.6117 -1.30981 57.2017 -1.30981L44.0017 -1.24981L44.4917 -1.73981L44.4017 9.4502L44.0017 9.00019C46.1817 9.00019 48.3517 9.00019 50.5417 9.00019L57.1217 9.12019L70.4417 9.4502Z" fill="#EBEBEB"/>
<path d="M217.723 309.28H244.203V298.09H217.723V309.28Z" fill="#EBEBEB"/>
<path d="M232.492 284L245.612 283.72L252.282 283.61C254.502 283.61 256.742 283.61 258.972 283.61H259.412V284L259.462 295.19V295.69H259.002L245.762 295.63C241.352 295.63 236.932 295.51 232.522 295.46H232.242V295.19C232.242 293.29 232.322 291.4 232.372 289.54L232.492 284ZM232.492 284L232.632 289.65C232.682 291.52 232.742 293.36 232.762 295.19L232.492 294.92C236.902 294.92 241.322 294.76 245.732 294.75L258.972 294.69L258.472 295.19V284L258.922 284.45C256.742 284.45 254.562 284.45 252.372 284.39L245.802 284.28L232.492 284Z" fill="#EBEBEB"/>
<path d="M293.213 183.16H49.4531V-1H293.213V183.16ZM50.4531 182.16H292.213V0H50.4531V182.16Z" fill="#EBEBEB"/>
<path d="M58.5614 4.16059C58.5614 4.61746 58.4259 5.06408 58.1721 5.44395C57.9183 5.82383 57.5575 6.11991 57.1354 6.29475C56.7133 6.46959 56.2488 6.51533 55.8008 6.4262C55.3527 6.33707 54.9411 6.11706 54.618 5.794C54.2949 5.47094 54.0749 5.05934 53.9858 4.61124C53.8967 4.16315 53.9424 3.69869 54.1172 3.27659C54.2921 2.85449 54.5882 2.49372 54.968 2.23989C55.3479 1.98607 55.7945 1.85059 56.2514 1.85059C56.8641 1.85059 57.4516 2.09396 57.8848 2.52717C58.318 2.96038 58.5614 3.54794 58.5614 4.16059Z" fill="#A6A6A6"/>
<path d="M68.0028 4.16061C68.0028 4.61748 67.8673 5.0641 67.6135 5.44398C67.3597 5.82385 66.9989 6.11993 66.5768 6.29477C66.1547 6.46961 65.6903 6.51535 65.2422 6.42622C64.7941 6.33709 64.3825 6.11708 64.0594 5.79402C63.7363 5.47097 63.5163 5.05936 63.4272 4.61127C63.3381 4.16317 63.3838 3.69871 63.5587 3.27661C63.7335 2.85451 64.0296 2.49374 64.4094 2.23991C64.7893 1.98609 65.2359 1.85061 65.6928 1.85061C65.9965 1.84928 66.2975 1.90813 66.5784 2.02375C66.8592 2.13937 67.1144 2.30947 67.3292 2.52424C67.544 2.73901 67.7141 2.99419 67.8297 3.27505C67.9453 3.55591 68.0041 3.85689 68.0028 4.16061V4.16061Z" fill="#EBEBEB"/>
<path d="M77.4013 4.16061C77.4012 4.61791 77.2655 5.06492 77.0112 5.44501C76.757 5.8251 76.3956 6.12117 75.9729 6.29571C75.5502 6.47025 75.0853 6.51541 74.6369 6.42546C74.1885 6.33552 73.7769 6.11452 73.4543 5.79046C73.1316 5.4664 72.9124 5.05386 72.8244 4.60511C72.7364 4.15635 72.7836 3.69158 72.96 3.26966C73.1363 2.84774 73.434 2.48766 73.8152 2.23505C74.1964 1.98243 74.644 1.84863 75.1012 1.85061C75.4041 1.8506 75.704 1.91043 75.9837 2.02664C76.2634 2.14285 76.5174 2.31316 76.7311 2.5278C76.9448 2.74243 77.1141 2.99716 77.229 3.27737C77.344 3.55757 77.4026 3.85773 77.4013 4.16061Z" fill="#FFC727"/>
<path d="M292.723 8.18066H49.9531V9.18066H292.723V8.18066Z" fill="#EBEBEB"/>
<path d="M339.463 381.151H456.223L459.983 307.061H335.703L339.463 381.151Z" fill="#EBEBEB"/>
<path d="M447.711 341H344.791L343.371 315.19H449.371L447.711 341ZM345.711 340H446.711L448.241 316.19H344.431L345.711 340Z" fill="#DBDBDB"/>
<path d="M446.31 370.61H347.75L346.59 347.3H447.77L446.31 370.61ZM348.7 369.61H445.38L446.71 348.3H347.64L348.7 369.61Z" fill="#DBDBDB"/>
<path d="M408.114 331H386.244L385.434 324.71H408.934L408.114 331ZM387.114 330H407.234L407.784 325.71H386.564L387.114 330Z" fill="#DBDBDB"/>
<path d="M408.114 362.101H386.244L385.434 355.811H408.934L408.114 362.101ZM387.114 361.101H407.234L407.784 356.811H386.564L387.114 361.101Z" fill="#DBDBDB"/>
<path d="M355.651 381.15L354.521 389.22L352.241 405.44H347.781V381.15H355.651Z" fill="#EBEBEB"/>
<path d="M355.651 381.15L354.521 389.22H347.781V381.15H355.651Z" fill="#DBDBDB"/>
<path d="M440.031 381.15L441.171 389.22L443.451 405.44H447.901V381.15H440.031Z" fill="#EBEBEB"/>
<path d="M440.031 381.15L441.171 389.22H447.901V381.15H440.031Z" fill="#DBDBDB"/>
<path d="M456.911 17.1602H401.461V84.4202H456.911V17.1602Z" fill="#EBEBEB"/>
<path d="M450.581 23.2998H407.801V78.2798H450.581V23.2998Z" fill="white"/>
<path d="M409.471 23.2998H407.801V78.2798H409.471V23.2998Z" fill="#C7C7C7"/>
<path d="M458.58 17.1602H456.91V84.4202H458.58V17.1602Z" fill="#C7C7C7"/>
<path d="M430.14 66.0605H440.23V36.0106H430.14V66.0605Z" fill="#EBEBEB"/>
<path d="M445.13 46.0999H417.23V30.3799H445.13V46.0999ZM418.23 45.0999H444.13V31.3799H418.23V45.0999Z" fill="#EBEBEB"/>
<path d="M456.911 182.9H401.461V250.16H456.911V182.9Z" fill="#EBEBEB"/>
<path d="M450.581 189.04H407.801V244.02H450.581V189.04Z" fill="white"/>
<path d="M409.471 189.04H407.801V244.02H409.471V189.04Z" fill="#C7C7C7"/>
<path d="M458.58 182.9H456.91V250.16H458.58V182.9Z" fill="#C7C7C7"/>
<path d="M432.223 201.75H422.133V231.8H432.223V201.75Z" fill="#EBEBEB"/>
<path d="M445.13 211.84H417.23V196.12H445.13V211.84ZM418.23 210.84H444.13V197.12H418.23V210.84Z" fill="#EBEBEB"/>
<path d="M456.911 100.33H401.461V167.59H456.911V100.33Z" fill="#EBEBEB"/>
<path d="M450.581 106.47H407.801V161.45H450.581V106.47Z" fill="white"/>
<path d="M409.471 106.47H407.801V161.45H409.471V106.47Z" fill="#C7C7C7"/>
<path d="M458.58 100.33H456.91V167.59H458.58V100.33Z" fill="#C7C7C7"/>
<path d="M433.683 120.681H425.043V142.531H433.683V120.681Z" fill="#EBEBEB"/>
<path d="M443.28 149.52H419.07V133.46H443.28V149.52ZM420.07 148.52H442.28V134.46H420.07V148.52Z" fill="#DBDBDB"/>
<path d="M459.98 406.44L407.49 406.68L354.99 406.77L250 406.94L145.01 406.77L92.5195 406.69L40.0195 406.44L92.5195 406.19L145.01 406.11L250 405.94L354.99 406.11L407.49 406.2L459.98 406.44Z" fill="#263238"/>
<path d="M79.5897 405.766L251.13 406.496C292.82 373.756 297.13 325.256 267.38 295.856C249.38 278.066 226.52 281.656 204.75 278.856H204.69C197.11 277.856 189.69 276.106 182.61 272.376C160.2 260.556 147.61 232.666 128.71 209.196C126.356 206.256 123.893 203.403 121.32 200.636C105.82 184.086 74.9497 183.546 58.8097 206.826C17.7997 265.976 36.5797 353.976 79.5897 405.766Z" fill="#FA3B4E"/>
<path opacity="0.1" d="M75.7801 270.437C80.2701 340.817 161.55 367.087 212.31 346.007C256.45 327.667 242 285.827 204.75 278.827H204.69C197.11 277.827 189.69 276.077 182.61 272.347C160.2 260.527 147.61 232.637 128.71 209.167C100.62 194.567 72.4801 218.907 75.7801 270.437Z" fill="black"/>
<path d="M229.92 416.846C227.27 415.846 167.49 368.096 166.36 364.846C165.93 363.606 172.36 354.496 180.48 343.706C182.24 341.376 184.06 338.986 185.92 336.566C198 320.826 211.19 304.406 211.19 304.406L251.27 336.246L224.9 367.526L219.12 374.396C219.12 374.396 233.82 402.926 234.68 406.636C235.54 410.346 232.56 417.816 229.92 416.846Z" fill="#FFBAAB"/>
<path d="M229.91 416.846C227.27 415.846 167.49 368.106 166.36 364.846C166.01 363.846 170.21 357.616 176.15 349.536C184.85 359.926 215.15 390.856 223.43 394.996C228.68 397.626 227.64 392.466 225.68 387.326C229.68 395.396 234.21 404.636 234.68 406.636C235.51 410.336 232.57 417.816 229.91 416.846Z" fill="#263238"/>
<path d="M291.748 274.976C289.008 295.796 237.688 355.916 231.748 362.806L230.398 364.376L187.978 331.786L188.458 331.156L225.848 282.206C225.848 282.206 163.978 318.276 133.078 301.906C119.198 294.556 108.898 281.486 108.898 281.486L149.258 259.976C149.258 259.976 160.428 263.586 167.568 262.546C192.178 258.936 247.318 238.006 260.398 238.546C277.278 239.216 294.268 255.896 291.748 274.976Z" fill="#263238"/>
<path d="M231.41 295.156C227.661 293.121 223.687 291.531 219.57 290.416L219.76 290.156C226.93 292.376 234.55 295.086 239.12 301.396C241.22 304.316 242.53 308.196 241.7 311.796C241.327 313.468 240.329 314.935 238.911 315.896C237.493 316.857 235.761 317.24 234.07 316.966C224.57 315.906 222.91 304.046 215.49 299.766C214.76 299.326 213.972 298.99 213.15 298.766L213.34 298.516C214.872 298.985 216.296 299.754 217.53 300.776C221.09 303.686 223.02 307.926 225.83 311.466C228.64 315.006 233.05 317.906 237.56 316.236C242.56 314.406 242.18 307.926 240.29 303.956C238.4 299.986 235.04 297.276 231.41 295.156ZM222.85 349.026C221.863 350.172 221.206 351.564 220.949 353.054C220.692 354.544 220.844 356.076 221.39 357.486L221.83 357.816C221.668 357.41 221.538 356.992 221.44 356.566C220.16 351.506 223.44 347.616 228.23 346.496C232.77 345.436 237.38 346.576 241.97 346.156C243.593 346.038 245.182 345.629 246.66 344.946L247.09 344.416C242.82 346.826 237.64 345.696 233.01 345.696C229.47 345.696 225.37 346.286 222.85 349.026ZM202.85 312.296C204.91 319.146 211.6 324.486 218.12 326.696C222.088 328.025 226.32 328.368 230.45 327.696C235.45 326.906 240.84 324.876 245.8 326.756C250.76 328.636 252.64 334.756 251.07 339.476L251.53 338.886C252.039 336.893 252.021 334.801 251.48 332.816C251.119 331.389 250.422 330.068 249.448 328.964C248.474 327.86 247.251 327.003 245.88 326.466C241.4 324.766 236.48 326.266 231.98 327.116C227.272 328.125 222.378 327.838 217.82 326.286C213.403 324.739 209.502 321.998 206.55 318.366C205.006 316.47 203.835 314.298 203.1 311.966L202.85 312.296ZM196.51 338.366L196.74 338.546C197.086 337.501 197.501 336.479 197.98 335.486C199.56 332.306 202.78 329.876 206.46 331.196C210.59 332.656 213.11 337.596 213.22 341.746C213.214 344.621 212.783 347.479 211.94 350.226L212.19 350.416C212.905 347.938 213.354 345.39 213.53 342.816C213.612 340.986 213.312 339.159 212.65 337.451C211.987 335.743 210.975 334.192 209.68 332.896C207.41 330.696 204.19 329.756 201.29 331.316C198.87 332.596 197.62 335.186 196.74 337.666C196.66 337.886 196.58 338.126 196.51 338.366ZM273.68 245.976C274.513 245.176 275.481 244.53 276.54 244.066L276.24 243.866C276.015 243.96 275.798 244.071 275.59 244.196C273.924 245.094 272.575 246.482 271.725 248.173C270.875 249.863 270.566 251.774 270.84 253.646C271.41 258.266 274.21 262.376 273.84 267.156C273.833 268.302 273.524 269.426 272.945 270.414C272.366 271.402 271.536 272.221 270.54 272.786C269.4 273.261 268.157 273.434 266.931 273.288C265.705 273.143 264.537 272.684 263.54 271.956C259.21 268.956 258.31 262.616 258.21 257.786C258.155 254.959 258.464 252.135 259.13 249.386C259.7 247.036 260.63 244.776 261.03 242.386C261.25 241.136 261.25 239.857 261.03 238.606H260.77C261.24 241.296 260.39 243.976 259.62 246.526C258.057 251.345 257.562 256.447 258.17 261.476C258.7 265.476 260.01 270.166 263.69 272.476C266.56 274.246 270.57 274.266 272.69 271.396C274.81 268.526 274.24 264.256 273.2 261.026C271.65 255.976 269.24 250.196 273.68 245.976ZM272.15 311.556C272.31 311.346 272.46 311.126 272.6 310.926C273.53 306.076 273.6 300.816 277.6 297.576C279.061 296.446 280.811 295.753 282.65 295.576C282.73 295.446 282.82 295.316 282.89 295.176C281.388 295.332 279.935 295.795 278.62 296.536C273.22 299.566 273.41 305.976 272.15 311.506V311.556ZM252.54 314.976C254.89 319.436 260.84 322.056 265.65 320.556L266.03 320.036C263.975 320.782 261.734 320.846 259.64 320.216C257.635 319.665 255.825 318.565 254.411 317.04C252.998 315.516 252.038 313.627 251.64 311.586C251.239 309.307 251.316 306.97 251.865 304.722C252.414 302.474 253.424 300.364 254.83 298.526C257.74 294.616 262.01 291.956 266.45 290.106C274.12 286.916 283.45 286.536 290.02 281.106L290.3 280.356C288.943 281.577 287.426 282.607 285.79 283.416C281.24 285.686 276.18 286.576 271.33 288.016C267.036 289.189 262.976 291.093 259.33 293.646C252.98 298.356 248.55 307.316 252.54 314.976ZM217.12 249.356L216.84 249.456C217.838 250.515 218.711 251.687 219.44 252.946C224.37 261.356 223.71 271.776 228.44 280.296C230.3 283.626 232.99 286.656 236.62 288.056C238.181 288.686 239.852 288.997 241.535 288.972C243.218 288.946 244.879 288.584 246.42 287.906C247.952 287.166 249.238 285.999 250.125 284.547C251.011 283.095 251.461 281.418 251.42 279.716C251.42 275.866 249.42 272.146 246.88 269.346C243.71 265.836 239.55 263.416 235.99 260.346C232.118 257.202 229.419 252.844 228.33 247.976C228.21 247.346 228.11 246.716 228.05 246.076L227.78 246.156C228.039 248.706 228.779 251.183 229.96 253.456C231.96 257.456 235.3 260.336 238.8 262.996C242.58 265.886 246.62 268.666 249.03 272.866C251.3 276.866 252.2 282.196 248.79 285.866C246.04 288.786 241.49 289.236 237.79 288.176C233.44 286.936 230.32 283.406 228.3 279.486C223.91 270.926 224.54 260.536 219.38 252.326C218.736 251.249 217.978 250.243 217.12 249.326V249.356ZM193.9 264.866C194.304 269.159 195.613 273.316 197.74 277.066C199.97 280.767 203.187 283.772 207.03 285.746C209.189 286.867 211.432 287.817 213.74 288.586L214.12 288.396C211.085 287.426 208.17 286.114 205.43 284.486C201.288 281.891 198.088 278.036 196.3 273.486C194.021 267.971 193.466 261.894 194.71 256.056L194.41 256.146C193.775 258.997 193.603 261.931 193.9 264.836V264.866ZM171.11 304.056L171.42 303.996C172.7 299.996 175.11 296.436 179.56 295.516C181.402 295.148 183.308 295.242 185.105 295.79C186.903 296.338 188.536 297.323 189.86 298.656L190.11 298.566C188.893 297.301 187.401 296.332 185.75 295.736C184.085 295.128 182.3 294.924 180.541 295.139C178.782 295.355 177.099 295.984 175.63 296.976C173.402 298.777 171.816 301.25 171.11 304.026V304.056ZM142.11 305.136C142.38 305.206 142.654 305.259 142.93 305.296C143.23 305.276 143.53 305.276 143.83 305.296C144.733 305.316 145.623 305.513 146.45 305.876C146.71 305.876 146.97 305.936 147.24 305.956C145.665 305.089 143.84 304.789 142.07 305.106L142.11 305.136ZM172.61 272.646C172.41 276.136 172.61 279.726 174.86 282.646C176.76 285.146 179.97 285.646 182.14 283.136C184.92 279.906 185.27 274.566 185.03 270.526C184.726 266.73 183.995 262.979 182.85 259.346L182.54 259.426C182.86 260.496 183.15 261.556 183.42 262.616C184.71 267.866 185.42 273.456 183.91 278.736C183.24 281.136 181.97 284.136 179.16 284.516C177.07 284.796 175.45 283.206 174.48 281.516C172.22 277.636 172.8 273.106 173.22 268.846C173.46 266.376 173.77 263.846 173.92 261.406C173.821 261.433 173.721 261.453 173.62 261.466C173.35 265.166 172.8 268.876 172.57 272.616L172.61 272.646ZM147.84 266.456C148.29 271.296 147.65 276.106 147.84 280.936C148.01 284.936 149.16 289.076 152.61 291.506C154.003 292.546 155.738 293.021 157.466 292.836C159.195 292.65 160.789 291.818 161.93 290.506C164.83 287.286 164.86 282.836 163.98 278.836C162.8 273.446 160.98 268.166 159.4 262.886C159.34 262.686 159.28 262.466 159.21 262.256L158.86 262.196C158.93 262.456 159.01 262.706 159.08 262.956C159.88 265.666 160.66 268.366 161.46 271.066C162.94 276.066 165.46 282.126 163.46 287.356C163.069 288.506 162.423 289.553 161.572 290.419C160.72 291.285 159.683 291.947 158.54 292.356C157.341 292.637 156.09 292.6 154.909 292.249C153.729 291.899 152.661 291.246 151.81 290.356C147.81 286.596 148.04 280.786 148.27 275.746C148.578 271.292 148.353 266.817 147.6 262.416C147.52 261.976 147.4 261.496 147.27 261.016L146.98 261.166C147.378 262.898 147.652 264.656 147.8 266.426L147.84 266.456ZM112.84 279.406C117.51 284.196 120.56 290.816 127.74 292.206C130.53 292.736 133.79 292.376 135.74 290.046C138.43 286.786 137.11 282.046 135.63 278.586C134.33 275.526 132.53 272.706 130.94 269.786L130.68 269.926C131.07 270.676 131.5 271.426 131.91 272.146C134.37 276.476 138 282.046 136.75 287.276C135.69 291.726 130.99 292.726 127.08 291.716C120.51 290.046 117.52 283.836 113.15 279.266L112.84 279.406Z" fill="#455A64"/>
<path d="M239.25 263.976C237.859 265.536 236.573 267.187 235.4 268.916C234.07 270.646 232.73 272.366 231.4 274.096C231.64 273.586 231.87 273.096 232.11 272.576C232.94 270.856 233.61 269.066 234.59 267.416C234.599 267.407 234.607 267.395 234.611 267.382C234.615 267.369 234.617 267.355 234.615 267.342C234.613 267.328 234.609 267.315 234.601 267.304C234.594 267.293 234.584 267.283 234.572 267.276C234.56 267.269 234.547 267.265 234.534 267.263C234.52 267.262 234.506 267.264 234.494 267.269C234.481 267.274 234.47 267.282 234.46 267.291C234.451 267.301 234.444 267.313 234.44 267.326C233.44 268.966 232.25 270.516 231.39 272.246C230.98 273.056 230.59 273.876 230.23 274.706C230.04 275.166 229.83 275.626 229.66 276.086C229.565 276.305 229.481 276.529 229.41 276.756C228.817 277.556 228.237 278.366 227.67 279.186C226.41 281.016 225.3 282.936 224.03 284.746C223.96 284.846 224.11 284.936 224.18 284.846C225.47 283.146 226.92 281.556 228.23 279.846C229.54 278.136 230.83 276.366 232.08 274.586C233.33 272.806 234.49 271.096 235.71 269.356C237.046 267.644 238.275 265.851 239.39 263.986C239.391 263.977 239.389 263.968 239.386 263.959C239.384 263.95 239.379 263.942 239.373 263.935C239.367 263.928 239.36 263.923 239.351 263.919C239.343 263.914 239.334 263.912 239.325 263.911C239.316 263.911 239.306 263.912 239.298 263.915C239.289 263.918 239.281 263.922 239.274 263.928C239.267 263.934 239.261 263.942 239.257 263.95C239.253 263.958 239.251 263.967 239.25 263.976Z" fill="#37474F"/>
<path d="M196.461 324.367C198.791 326.527 201.301 328.527 203.761 330.547C206.221 332.567 208.711 334.547 211.201 336.547C216.201 340.547 221.141 344.547 226.201 348.487C228.971 350.637 231.761 352.767 234.641 354.767C234.771 354.857 234.911 354.647 234.801 354.547C230.081 350.257 225.051 346.327 220.061 342.347C215.071 338.367 210.061 334.347 205.061 330.467C202.301 328.327 199.551 326.127 196.661 324.157C196.491 324.097 196.361 324.277 196.461 324.367Z" fill="#37474F"/>
<path d="M162.239 215.977C162.268 216.495 162.157 217.012 161.917 217.473C161.678 217.933 161.32 218.322 160.879 218.597C160.143 219.1 159.375 219.555 158.579 219.957C158.699 217.047 158.469 214.047 158.299 211.187C158.099 207.817 157.679 204.527 157.199 201.187H157.119C157.379 204.557 157.529 207.947 157.699 211.327C157.849 214.277 157.779 217.277 157.949 220.227C157.129 220.617 156.299 220.957 155.449 221.227C155.449 220.227 155.449 219.157 155.449 218.127C155.449 215.017 155.169 211.947 155.009 208.847C155.009 208.767 154.899 208.767 154.909 208.847C155.019 211.847 154.909 214.927 154.909 217.947C154.909 219.117 154.909 220.277 154.849 221.447C154.269 221.647 153.689 221.827 153.119 222.007L151.979 222.327C151.979 220.327 151.809 218.237 151.739 216.237C151.609 213.007 151.299 209.797 151.129 206.567C151.129 206.545 151.121 206.525 151.106 206.51C151.091 206.495 151.07 206.487 151.049 206.487C151.028 206.487 151.007 206.495 150.992 206.51C150.977 206.525 150.969 206.545 150.969 206.567C151.119 209.777 151.069 213.017 151.149 216.237C151.209 218.307 151.149 220.427 151.239 222.517C146.11 223.722 140.806 224 135.579 223.337C132.543 222.979 129.536 222.411 126.579 221.637C125.869 221.447 124.039 220.917 122.249 220.367C122.249 219.367 122.189 218.367 122.179 217.477C122.179 215.327 122.029 213.157 122.069 211.017C122.069 210.947 121.989 210.947 121.989 211.017C121.879 213.167 121.649 215.307 121.599 217.477C121.599 218.347 121.599 219.247 121.539 220.147C120.899 219.957 120.279 219.757 119.739 219.567C119.939 215.507 119.739 211.377 119.669 207.327C119.669 207.227 119.549 207.227 119.539 207.327C119.389 211.327 118.999 215.327 119.049 219.327C118.636 219.205 118.237 219.041 117.859 218.837C116.969 218.097 117.569 202.037 117.619 198.287C117.719 191.287 118.519 180.997 120.499 174.287C121.282 171.375 122.698 168.673 124.646 166.372C126.595 164.071 129.027 162.229 131.769 160.977C134.409 159.797 137.489 159.977 140.309 160.067C143.251 160.189 146.109 161.089 148.589 162.677C151.119 164.063 153.274 166.043 154.869 168.447C156.439 171.12 157.653 173.988 158.479 176.977C160.569 184.067 161.339 203.527 161.849 210.427C161.979 212.297 162.209 214.147 162.239 215.977Z" fill="#263238"/>
<path d="M126.981 216.656C137.251 236.107 153.711 258.327 158.981 261.237C165.661 264.917 202.141 263.366 203.981 263.086C208.441 262.366 209.981 230.317 205.201 230.877C197.891 231.737 171.911 237.157 169.951 235.987C167.991 234.817 153.481 223.987 138.271 211.557C127.731 202.977 120.601 204.587 126.981 216.656Z" fill="#FFBAAB"/>
<path d="M199.169 261.687C203.491 263.099 207.909 264.199 212.389 264.977C215.919 265.407 226.139 266.357 226.989 262.507C227.579 259.887 221.639 258.617 217.459 257.627C215.259 257.107 212.359 255.367 212.749 253.937C213.439 251.447 219.129 252.937 222.949 254.367C230.339 257.187 240.479 262.777 244.049 258.677C245.389 257.127 243.199 255.067 240.169 253.187C244.909 255.187 249.849 256.637 251.419 254.977C252.309 254.027 252.189 252.977 251.419 251.827C252.002 251.988 252.62 251.973 253.194 251.785C253.769 251.596 254.275 251.242 254.649 250.767C255.799 249.077 254.769 247.027 252.879 245.067C253.132 245 253.366 244.874 253.563 244.701C253.759 244.527 253.912 244.31 254.009 244.067C256.229 239.067 239.319 228.547 234.009 228.177C218.369 227.057 201.579 231.907 201.579 231.907C196.429 237.507 199.149 261.687 199.169 261.687Z" fill="#FFBAAB"/>
<path d="M219.038 244.207C222.716 244.182 226.357 244.942 229.718 246.437C233.948 248.327 236.968 250.867 240.648 253.317C240.748 253.377 240.648 253.527 240.558 253.467C238.798 252.307 231.558 248.027 229.778 247.087C226.458 245.348 222.785 244.387 219.038 244.277C219.038 244.277 218.978 244.207 219.038 244.207Z" fill="#263238"/>
<path d="M220.811 237.356C224.989 237.652 229.127 238.369 233.161 239.496C237.511 240.886 241.161 243.716 244.821 246.426C246.987 248.053 249.124 249.72 251.231 251.426C251.321 251.496 251.231 251.656 251.131 251.576C247.451 248.776 243.687 246.083 239.841 243.496C236.288 241.072 232.292 239.372 228.081 238.496C225.681 238.006 223.241 237.696 220.801 237.396L220.811 237.356Z" fill="#263238"/>
<path d="M224.121 231.076C228.121 231.246 231.561 231.366 235.301 232.876C240.301 234.876 245.361 238.746 247.151 240.126C249.151 241.656 251.061 243.246 252.971 244.866C253.041 244.926 252.971 245.066 252.851 244.996C248.52 241.474 243.967 238.234 239.221 235.296C236.979 233.866 234.53 232.791 231.961 232.106C229.38 231.553 226.758 231.219 224.121 231.106V231.076Z" fill="#263238"/>
<path d="M141.78 245.126L153.31 219.886C147.707 215.491 141.846 211.434 135.76 207.736C125.46 201.446 120.5 205.016 126.76 220.026C130.554 229.061 135.611 237.512 141.78 245.126V245.126Z" fill="#455A64"/>
<path d="M149.621 218.197C148.551 219.967 147.741 221.917 146.831 223.767C145.921 225.617 145.081 227.317 144.271 229.117C142.585 232.85 140.975 236.613 139.441 240.407C139.441 240.467 139.521 240.527 139.551 240.457C141.351 236.827 143.111 233.187 144.811 229.457C145.661 227.627 146.461 225.777 147.261 223.927C148.061 222.077 149.051 220.167 149.731 218.207C149.751 218.187 149.651 218.137 149.621 218.197Z" fill="#263238"/>
<path opacity="0.1" d="M126.78 220.026C130.568 229.06 135.618 237.511 141.78 245.126L151.41 224.026L126.41 205.026C123.29 206.076 122.98 210.976 126.78 220.026Z" fill="black"/>
<path d="M88.3008 289.876C90.6508 290.706 158.661 273.116 158.661 273.116L151.371 249.466C151.371 249.466 155.521 242.046 153.901 234.746C151.731 224.996 134.271 208.576 132.901 207.596C127.351 203.696 122.051 203.596 117.301 205.956C97.4908 215.766 88.3008 289.876 88.3008 289.876Z" fill="#455A64"/>
<path d="M129.769 247.157C132.687 246.702 135.635 246.461 138.589 246.437C140.059 246.437 141.509 246.527 142.979 246.627C143.709 246.687 144.429 246.717 145.159 246.737C145.925 246.788 146.694 246.745 147.449 246.607C147.509 246.607 147.539 246.687 147.449 246.707C146.758 246.919 146.053 247.083 145.339 247.197C144.642 247.282 143.941 247.322 143.239 247.317C141.759 247.317 140.239 247.257 138.779 247.247C135.779 247.247 132.779 247.247 129.779 247.407C129.659 247.417 129.639 247.177 129.769 247.157Z" fill="#263238"/>
<path d="M123.362 251.446C125.654 250.613 127.991 249.908 130.362 249.336C131.542 249.056 132.732 248.846 133.942 248.666L135.672 248.436C136.312 248.366 136.952 248.376 137.592 248.286C137.652 248.286 137.682 248.376 137.592 248.386C136.992 248.486 136.412 248.686 135.822 248.816L134.052 249.206C132.862 249.476 131.682 249.756 130.492 250.006C128.112 250.516 125.752 251.006 123.392 251.636C123.272 251.676 123.242 251.486 123.362 251.446Z" fill="#263238"/>
<path d="M109.079 214.416C99.6186 228.366 79.3686 276.416 89.1586 283.836C98.9486 291.256 146.519 274.206 159.489 266.066C163.349 263.646 144.869 239.976 139.979 239.976C135.929 239.976 117.469 251.206 116.739 250.106C115.919 248.856 118.499 238.956 121.359 220.636C124.669 199.476 114.519 206.406 109.079 214.416Z" fill="#FFBAAB"/>
<path d="M159.34 229.367C169.11 226.837 172.01 227.687 179.11 221.167C183.78 216.887 188.51 218.027 186.28 224.227C182.65 234.357 170.73 240.277 166.01 241.137L159.34 229.367Z" fill="#FFBAAB"/>
<path d="M134.078 241.976C134.078 241.976 144.518 234.486 154.658 230.756C161.658 228.176 177.558 224.266 194.828 238.376C198.918 241.726 202.388 249.376 193.708 246.376C187.548 244.216 184.288 240.986 180.478 240.376C180.478 240.376 183.718 250.656 180.208 254.636C177.135 258.11 173.816 261.358 170.278 264.356C169.575 263.838 168.907 263.273 168.278 262.666C168.278 262.666 164.638 266.066 157.078 266.226L134.078 241.976Z" fill="#FFBAAB"/>
<path d="M161.738 229.377C165.398 230.767 173.108 233.867 178.528 238.587C184.528 243.837 194.738 255.587 190.818 259.967C187.948 263.197 183.668 259.067 183.668 259.067C183.668 259.067 186.858 264.797 183.618 267.147C180.678 269.297 177.548 265.897 177.548 265.897C177.548 265.897 178.888 269.707 175.648 271.227C171.758 273.047 169.648 264.757 164.058 263.227C162.818 262.847 161.738 229.377 161.738 229.377Z" fill="#FFBAAB"/>
<path d="M171.981 244.027C175.201 245.907 181.431 252.027 183.751 258.897C183.801 259.057 183.751 259.177 183.641 259.047C180.358 253.592 176.426 248.555 171.931 244.047C171.931 244.047 171.891 243.977 171.981 244.027Z" fill="#263238"/>
<path d="M166.81 250.256C169.42 252.166 175.56 258.786 177.67 265.806C177.72 265.966 177.62 266.086 177.55 265.946C174.554 260.344 170.931 255.1 166.75 250.316C166.75 250.316 166.77 250.236 166.81 250.256Z" fill="#263238"/>
<path d="M180.471 240.316C183.821 240.896 186.111 242.236 189.061 243.816C190.511 244.616 192.003 245.337 193.531 245.976C194.931 246.536 197.001 247.386 198.271 246.106C198.559 245.723 198.738 245.268 198.789 244.791C198.84 244.314 198.761 243.832 198.561 243.396C198.017 242.127 197.274 240.952 196.361 239.916C196.361 239.916 196.361 239.816 196.431 239.856C197.307 240.79 198.085 241.812 198.751 242.906C199.191 243.659 199.396 244.526 199.341 245.396C199.071 247.236 196.991 247.716 195.441 247.396C194.516 247.175 193.615 246.863 192.751 246.466C191.921 246.106 191.101 245.706 190.291 245.286C188.631 244.426 187.021 243.466 185.381 242.586C183.76 241.764 182.09 241.043 180.381 240.426C180.371 240.406 180.401 240.306 180.471 240.316Z" fill="#263238"/>
<path d="M188.57 250.916C186.086 247.236 183.36 243.725 180.41 240.406C180.41 240.356 180.41 240.296 180.47 240.326C183.27 242.426 188.06 248.326 189.24 250.236C190.42 252.146 191.78 254.576 192.04 256.816C192.44 260.196 190.27 261.096 189.46 261.366C188.496 261.656 187.462 261.607 186.53 261.226C185.428 260.713 184.442 259.982 183.63 259.076C183.63 259.076 183.63 258.966 183.69 259.006C185.02 260.206 187.12 261.286 188.93 260.836C189.338 260.754 189.726 260.59 190.069 260.354C190.413 260.119 190.705 259.817 190.93 259.466C191.337 258.593 191.415 257.603 191.15 256.676C190.625 254.623 189.753 252.675 188.57 250.916V250.916Z" fill="#263238"/>
<path d="M116.761 250.076C115.28 251.159 113.741 252.16 112.151 253.076C110.579 254.03 108.96 254.904 107.301 255.696C108.672 254.456 110.171 253.363 111.771 252.436C113.351 251.484 115.023 250.694 116.761 250.076V250.076Z" fill="#263238"/>
<path d="M93.2812 239.807L120.981 237.717C122.128 230.69 122.852 223.6 123.151 216.487C123.681 204.427 118.151 201.797 108.061 214.547C101.962 222.224 96.9854 230.729 93.2812 239.807Z" fill="#455A64"/>
<path d="M120.651 233.667C118.581 233.587 116.491 233.817 114.421 233.917C112.351 234.017 110.481 234.097 108.511 234.257C104.421 234.577 100.361 234.977 96.2908 235.477C96.2208 235.477 96.2208 235.607 96.2908 235.597C100.337 235.43 104.384 235.204 108.431 234.917C110.431 234.777 112.431 234.587 114.431 234.397C116.431 234.207 118.591 234.147 120.631 233.797C120.721 233.777 120.721 233.667 120.651 233.667Z" fill="#263238"/>
<path d="M121.739 234.977C121.909 233.977 122.039 232.977 122.159 231.977C122.159 231.767 122.159 231.557 122.229 231.347C122.655 230.154 123.016 228.939 123.309 227.707C123.309 227.707 123.309 227.647 123.239 227.707C122.891 228.614 122.59 229.538 122.339 230.477C122.499 228.937 122.639 227.397 122.659 225.847H122.579C122.209 227.847 121.979 229.847 121.679 231.847C121.539 232.847 120.939 237.607 120.879 237.617C120.819 237.627 118.579 237.867 118.439 237.927C118.299 237.987 118.349 238.117 118.439 238.117L121.299 237.907C121.299 237.907 121.599 235.807 121.739 234.977Z" fill="#263238"/>
<path d="M224.601 263.337H148.141V266.757H224.601V263.337Z" fill="#C7C7C7"/>
<path d="M224.598 263.337V266.767H178.738L181.358 263.337H224.598Z" fill="#A6A6A6"/>
<path d="M190.078 266.766H264.598L270.798 216.156H196.288L190.078 266.766Z" fill="#A6A6A6"/>
<path d="M193.98 266.766H268.5L274.7 216.156H200.19L193.98 266.766Z" fill="#C7C7C7"/>
<path d="M229.81 241.457C229.796 242.049 229.902 242.638 230.119 243.189C230.337 243.74 230.663 244.242 231.078 244.665C231.492 245.088 231.988 245.424 232.534 245.652C233.081 245.881 233.667 245.998 234.26 245.997C235.47 245.992 236.63 245.514 237.493 244.666C238.356 243.818 238.854 242.667 238.88 241.457C238.892 240.865 238.785 240.276 238.566 239.725C238.347 239.175 238.02 238.674 237.605 238.252C237.189 237.83 236.693 237.495 236.146 237.267C235.599 237.04 235.012 236.924 234.42 236.927C233.212 236.932 232.055 237.408 231.194 238.254C230.332 239.101 229.836 240.25 229.81 241.457V241.457Z" fill="white"/>
<path d="M121.98 207.636C122.04 208.886 126.39 217.706 131.92 218.426C133.73 218.656 135.43 208.866 135.43 208.866L135.72 208.176L139.78 198.456L127.72 187.456C127.72 187.456 121.98 207.106 121.98 207.636Z" fill="#FFBAAB"/>
<path d="M139.829 198.456L135.759 208.176C133.213 206.668 131.012 204.643 129.298 202.232C127.585 199.82 126.396 197.076 125.809 194.176C126.809 190.756 127.619 187.916 127.729 187.506C127.733 187.486 127.733 187.466 127.729 187.446L129.279 188.756L139.829 198.456Z" fill="#263238"/>
<path d="M155.581 185.106C153.911 203.516 142.701 204.596 138.731 204.226C135.121 203.896 122.901 202.306 122.661 183.826C122.421 165.346 131.511 160.306 139.791 160.636C148.071 160.966 157.251 166.706 155.581 185.106Z" fill="#FFBAAB"/>
<path d="M153.251 182.486C152.847 182.354 152.45 182.2 152.061 182.026C151.619 181.927 151.224 181.68 150.941 181.326C150.871 181.198 150.845 181.051 150.867 180.906C150.888 180.762 150.957 180.628 151.061 180.526C151.302 180.364 151.582 180.269 151.871 180.25C152.161 180.23 152.451 180.288 152.711 180.416C153.279 180.591 153.761 180.973 154.061 181.486C154.125 181.608 154.152 181.745 154.139 181.881C154.125 182.018 154.072 182.147 153.986 182.253C153.9 182.36 153.784 182.439 153.653 182.48C153.523 182.522 153.383 182.524 153.251 182.486V182.486Z" fill="#263238"/>
<path d="M140.521 181.897C140.961 181.897 141.371 181.897 141.801 181.837C142.253 181.878 142.706 181.769 143.091 181.527C143.197 181.428 143.267 181.296 143.289 181.153C143.311 181.009 143.283 180.863 143.211 180.737C143.038 180.504 142.805 180.322 142.538 180.209C142.271 180.096 141.978 180.058 141.691 180.097C141.095 180.09 140.518 180.304 140.071 180.697C139.973 180.792 139.906 180.913 139.876 181.046C139.847 181.178 139.856 181.317 139.904 181.444C139.952 181.571 140.035 181.682 140.145 181.762C140.254 181.843 140.385 181.889 140.521 181.897V181.897Z" fill="#263238"/>
<path d="M142.672 185.047C142.672 185.047 142.562 185.047 142.562 185.147C142.422 186.397 142.062 187.807 140.882 188.067C140.882 188.067 140.832 188.137 140.882 188.137C142.282 188.127 142.742 186.257 142.672 185.047Z" fill="#263238"/>
<path d="M141.73 183.587C139.73 183.157 139.04 187.157 140.88 187.587C142.72 188.017 143.4 183.977 141.73 183.587Z" fill="#263238"/>
<path d="M140.91 183.657C140.52 183.827 140.11 184.167 139.68 184.127C139.25 184.087 138.89 183.607 138.68 183.127C138.68 183.127 138.62 183.127 138.61 183.127C138.46 183.887 138.61 184.727 139.41 184.987C140.21 185.247 140.8 184.637 141.13 183.907C141.15 183.827 141.07 183.597 140.91 183.657Z" fill="#263238"/>
<path d="M150.03 186.026C150.03 186.026 150.12 186.106 150.11 186.156C149.84 187.386 149.73 188.846 150.78 189.456C150.78 189.456 150.78 189.536 150.78 189.526C149.42 189.076 149.58 187.156 150.03 186.026Z" fill="#263238"/>
<path d="M151.38 184.977C153.38 185.197 152.81 189.217 150.94 188.977C149.07 188.737 149.68 184.757 151.38 184.977Z" fill="#263238"/>
<path d="M152.18 185.326C152.46 185.586 152.72 186.026 153.1 186.106C153.48 186.186 153.92 185.806 154.26 185.436H154.32C154.23 186.206 153.86 186.966 153.1 187.006C152.34 187.046 152 186.316 151.93 185.526C151.92 185.426 152.06 185.226 152.18 185.326Z" fill="#263238"/>
<path d="M146.698 191.657C146.698 191.657 146.588 193.557 146.418 194.427C146.418 194.507 146.188 194.507 145.888 194.427C145.114 194.418 144.357 194.196 143.7 193.785C143.044 193.374 142.514 192.79 142.168 192.097C142.162 192.078 142.163 192.057 142.17 192.038C142.177 192.019 142.19 192.003 142.208 191.993C142.225 191.982 142.245 191.978 142.265 191.981C142.285 191.983 142.304 191.992 142.318 192.007C143.284 192.978 144.535 193.616 145.888 193.827C145.998 193.597 145.958 190.567 146.098 190.587C146.762 190.779 147.397 191.058 147.988 191.417C148.318 187.477 147.988 183.517 148.408 179.607C148.408 179.467 148.628 179.457 148.648 179.607C149.098 183.843 149.128 188.114 148.738 192.357C148.678 192.877 146.978 191.877 146.698 191.657Z" fill="#263238"/>
<path d="M122.88 184.886C125.88 185.616 127.52 178.716 127.52 178.716C127.52 178.716 133.66 179.716 137.15 171.246C136.538 173.867 135.171 176.252 133.22 178.106C133.22 178.106 144.34 179.416 150.4 171.106C150.4 171.106 147.81 175.426 145.84 176.786C145.84 176.786 150.59 176.266 153.42 172.936C153.42 172.936 154.42 178.486 155.67 180.176C155.67 180.176 158.36 161.176 140.46 160.256C140.46 160.256 129.33 159.166 123.95 167.256C118.57 175.346 122.88 184.886 122.88 184.886Z" fill="#263238"/>
<path d="M125.462 185.507C125.462 185.507 122.462 179.117 119.672 180.077C116.882 181.037 118.362 189.797 121.182 191.467C121.53 191.704 121.922 191.868 122.336 191.95C122.749 192.032 123.174 192.03 123.587 191.944C123.999 191.858 124.39 191.69 124.736 191.45C125.082 191.21 125.377 190.903 125.602 190.547L125.462 185.507Z" fill="#FFBAAB"/>
<path d="M120.168 182.576C120.168 182.576 120.098 182.626 120.168 182.656C122.168 183.896 122.898 186.056 123.318 188.236C123.232 188.002 123.097 187.789 122.921 187.612C122.745 187.435 122.533 187.298 122.299 187.211C122.066 187.123 121.816 187.087 121.567 187.106C121.318 187.124 121.076 187.196 120.858 187.316C120.798 187.316 120.858 187.446 120.858 187.446C121.254 187.383 121.66 187.446 122.018 187.625C122.377 187.804 122.671 188.091 122.858 188.446C123.156 189.04 123.39 189.663 123.558 190.306C123.618 190.516 123.978 190.476 123.948 190.246C123.948 190.246 123.948 190.246 123.948 190.196C124.448 187.526 122.978 183.366 120.168 182.576Z" fill="#263238"/>
<path d="M384.889 362.696C383.889 365.346 335.889 424.966 332.679 426.086C331.439 426.516 322.349 420.036 311.589 411.896C309.259 410.136 306.869 408.306 304.459 406.436C288.759 394.306 272.379 381.066 272.379 381.066L304.379 341.066L335.579 367.536L342.429 373.346C342.429 373.346 371.009 358.726 374.719 357.886C378.429 357.046 385.869 360.056 384.889 362.696Z" fill="#FFBAAB"/>
<path d="M384.901 362.696C383.901 365.336 335.951 424.966 332.681 426.086C331.601 426.466 324.521 421.556 315.551 414.876C324.701 408.226 359.441 376.876 364.111 368.446C366.561 363.986 362.981 364.026 358.591 365.256C365.751 361.726 372.951 358.306 374.691 357.906C378.401 357.076 385.871 360.056 384.901 362.696Z" fill="#263238"/>
<path d="M333.881 361.527L300.611 406.417L188.331 328.507L177.511 320.977C177.511 320.977 174.441 323.037 169.831 325.587C163.421 329.127 154.022 333.587 145.722 334.837C131.782 336.907 108.501 336.687 96.7215 320.977C86.8215 307.747 92.2015 290.487 92.2015 290.487L107.501 283.917C107.501 283.917 143.721 253.747 167.181 252.837C177.181 252.437 191.651 259.987 205.091 267.837C218.531 275.687 333.881 361.527 333.881 361.527Z" fill="#263238"/>
<path d="M330.15 358.756C330.33 360.756 330.503 362.73 330.67 364.676C330.67 365.026 330.73 365.376 330.77 365.726L330.42 366.176C330.17 363.606 329.95 361.026 329.72 358.436C329.869 358.535 330.013 358.642 330.15 358.756V358.756ZM310.92 344.506L310.53 344.226C310.61 345.546 310.814 346.855 311.14 348.136C312.24 352.626 314.58 356.846 316.71 360.916C319.31 365.589 321.612 370.422 323.6 375.386L323.83 375.096C322.356 371.288 320.65 367.575 318.72 363.976C316.31 359.356 313.59 354.696 311.97 349.706C311.413 348.021 311.061 346.275 310.92 344.506V344.506ZM296.74 395.286C296.212 397.602 295.045 399.722 293.37 401.406L293.61 401.566C294.952 400.274 295.979 398.69 296.61 396.936C298.1 392.766 297.5 388.176 296.9 383.936C296.22 379.306 294.9 373.836 296.6 369.286C296.959 368.133 297.675 367.123 298.646 366.404C299.617 365.685 300.792 365.293 302 365.286C304.116 365.475 306.073 366.488 307.45 368.106C311.13 372.106 310.38 377.336 308.99 382.106C307.77 386.326 306.07 390.476 306.35 394.956C306.411 396.014 306.582 397.063 306.86 398.086L307.1 397.756C304.93 389.526 311.62 381.686 310.41 373.336C310.141 371.679 309.474 370.111 308.468 368.767C307.461 367.422 306.144 366.341 304.63 365.616C303.921 365.259 303.148 365.049 302.356 364.999C301.564 364.949 300.77 365.06 300.023 365.326C299.275 365.591 298.589 366.005 298.005 366.543C297.422 367.081 296.954 367.732 296.63 368.456C294.84 372.156 295.57 376.806 296.12 380.726C296.74 385.456 297.85 390.496 296.74 395.286V395.286ZM268.82 384.366L269.14 384.586C269.489 382.755 270.098 380.984 270.95 379.326C273.132 375.174 276.402 371.694 280.41 369.256C284.15 366.946 288.41 365.466 292.08 363.096C295.643 360.863 298.327 357.468 299.68 353.486C301.165 349.452 301.712 345.133 301.28 340.856C301.101 339.379 300.724 337.933 300.16 336.556C300.04 336.446 299.91 336.356 299.78 336.256C301.158 339.651 301.573 343.361 300.98 346.976C300.33 351.976 298.65 357.196 294.82 360.686C291.42 363.776 287 365.416 282.97 367.496C276.23 370.976 270.43 376.856 268.82 384.366V384.366ZM265.82 359.796C268.56 361.616 272.09 362.116 274.82 360.076C277.82 357.826 278.64 353.656 278.61 350.076C278.61 345.226 277 339.756 279.61 335.306C280.586 333.806 281.889 332.547 283.422 331.624C284.955 330.701 286.678 330.137 288.46 329.976C289.39 329.876 290.329 329.876 291.26 329.976L290.82 329.656C289.818 329.589 288.812 329.633 287.82 329.786C284.812 330.211 282.068 331.736 280.12 334.066C277.39 337.506 277.7 342.066 278.04 346.196C278.4 350.516 278.74 355.806 275.39 359.136C271.88 362.656 266.77 360.856 263.74 357.676C256.96 350.546 259.93 338.676 266.99 332.966C271.91 328.966 278.07 327.186 283.67 324.396L283.39 324.186C282.59 324.586 281.79 324.966 280.98 325.326C273.93 328.496 265.87 331.226 261.98 338.456C258.28 345.386 258.83 355.166 265.81 359.796H265.82ZM269.06 318.546C270.013 317.613 270.78 316.507 271.32 315.286L271.03 315.086C270.81 315.611 270.546 316.117 270.24 316.596C267.94 320.206 263.64 321.326 259.65 320.186C257.645 319.635 255.835 318.535 254.421 317.01C253.008 315.486 252.048 313.597 251.65 311.556C251.03 308.263 251.464 304.859 252.89 301.826L252.69 301.686C250.69 305.856 250.25 310.606 252.51 314.946C255.48 320.556 264.14 323.246 269.05 318.546H269.06ZM246.48 366.546C245.56 366.636 244.63 366.766 243.71 366.886L244.09 367.156H244.28C249.28 366.446 254.86 366.156 258.28 370.666C260.012 372.956 260.835 375.806 260.59 378.666L260.91 378.896C261.064 377.251 260.878 375.592 260.362 374.023C259.845 372.454 259.011 371.008 257.91 369.776C254.98 366.516 250.61 366.136 246.47 366.586L246.48 366.546ZM247.31 344.256C243.01 346.816 237.74 345.656 233.02 345.656C229.48 345.656 225.38 346.246 222.86 348.986C222.21 349.684 221.704 350.503 221.37 351.396L221.68 351.606C222.277 350.282 223.185 349.122 224.327 348.226C225.47 347.329 226.812 346.722 228.24 346.456C232.78 345.396 237.39 346.536 241.98 346.116C245.45 345.826 248.79 344.466 250.56 341.316C251.963 338.693 252.296 335.629 251.49 332.766C251.128 331.339 250.432 330.018 249.458 328.914C248.484 327.809 247.261 326.953 245.89 326.416C241.41 324.716 236.49 326.216 231.99 327.066C227.282 328.075 222.388 327.788 217.83 326.236C213.413 324.689 209.512 321.947 206.56 318.316C203.34 314.316 201.15 308.586 203.49 303.626C203.95 302.52 204.645 301.526 205.526 300.713C206.407 299.9 207.453 299.287 208.593 298.917C209.733 298.547 210.94 298.427 212.13 298.567C213.32 298.706 214.467 299.102 215.49 299.726C222.91 304.006 224.57 315.866 234.07 316.926C235.761 317.199 237.493 316.816 238.911 315.855C240.329 314.894 241.327 313.428 241.7 311.756C242.53 308.156 241.22 304.276 239.12 301.356C234.26 294.626 225.92 292.006 218.36 289.676C213.91 288.306 209.36 286.896 205.43 284.416C201.288 281.821 198.088 277.965 196.3 273.416C194.794 269.687 194.007 265.708 193.98 261.686C193.902 261.633 193.818 261.59 193.73 261.556C193.707 262.651 193.751 263.747 193.86 264.836C194.264 269.128 195.573 273.286 197.7 277.036C199.93 280.737 203.147 283.742 206.99 285.716C214.73 289.836 223.76 290.716 231.37 295.156C235 297.276 238.37 300.156 240.25 303.996C242.13 307.836 242.5 314.446 237.52 316.276C233.01 317.946 228.52 314.896 225.79 311.506C223.06 308.116 221.05 303.726 217.49 300.816C214.49 298.386 210.49 297.166 206.98 299.236C205.396 300.243 204.115 301.659 203.271 303.335C202.428 305.012 202.054 306.885 202.19 308.756C202.63 317.286 210.48 324.116 218.08 326.696C222.048 328.025 226.28 328.368 230.41 327.696C235.41 326.906 240.8 324.876 245.76 326.756C252.76 329.376 253.72 340.466 247.3 344.296L247.31 344.256ZM197.85 335.066L198.1 335.246C199.71 332.156 202.87 329.866 206.47 331.156C210.6 332.616 213.12 337.556 213.23 341.706C213.259 342.995 213.172 344.283 212.97 345.556L213.22 345.736C213.394 344.745 213.501 343.742 213.54 342.736C213.622 340.906 213.322 339.079 212.66 337.371C211.997 335.663 210.985 334.112 209.69 332.816C207.42 330.616 204.2 329.676 201.3 331.236C199.766 332.128 198.555 333.483 197.84 335.106L197.85 335.066ZM169.23 323.656C169.23 324.416 169.15 325.206 169.09 325.976L169.46 325.786C169.97 319.216 169.41 312.436 170.85 306.066C171.94 301.266 174.33 296.536 179.57 295.446C181.877 295.003 184.265 295.278 186.411 296.235C188.557 297.192 190.357 298.784 191.57 300.796C192.742 302.825 193.43 305.097 193.579 307.435C193.729 309.774 193.335 312.115 192.43 314.276C190.67 318.656 187.52 322.276 184.61 325.916L184.81 326.056C189.97 319.526 196.13 312.186 193.02 303.326C192.449 301.585 191.497 299.994 190.232 298.669C188.967 297.343 187.422 296.318 185.71 295.666C184.045 295.075 182.265 294.885 180.513 295.113C178.761 295.341 177.088 295.979 175.63 296.976C172.02 299.616 170.78 304.436 170.13 308.616C169.35 313.576 169.48 318.646 169.22 323.696L169.23 323.656ZM133.29 329.326C133.558 331.452 133.665 333.595 133.61 335.736H133.89C134.12 328.226 131.2 320.496 133.72 313.176C135.14 309.056 139.19 305.056 143.8 305.176C148.41 305.296 151.12 309.736 151.75 313.916C152.75 320.576 148.91 327.506 149.37 334.076L149.66 334.006C149.585 333.131 149.585 332.251 149.66 331.376C150.05 326.376 152.19 321.606 152.24 316.556C152.24 313.196 151.37 309.456 148.86 307.036C147.647 305.904 146.11 305.181 144.465 304.969C142.82 304.758 141.149 305.068 139.69 305.856C130.77 310.316 132.38 321.256 133.28 329.366L133.29 329.326ZM172.58 272.576C172.38 276.066 172.58 279.656 174.83 282.576C176.73 285.076 179.94 285.576 182.11 283.066C184.89 279.836 185.24 274.496 185 270.456C184.7 265.456 183.29 260.736 181.84 256.006L181.45 255.866C182.15 258.106 182.84 260.336 183.39 262.546C184.68 267.796 185.39 273.386 183.88 278.666C183.21 281.066 181.94 284.066 179.13 284.446C177.04 284.726 175.42 283.136 174.45 281.446C172.19 277.566 172.77 273.036 173.19 268.776C173.63 264.186 174.3 259.556 173.89 254.946C173.89 254.456 173.8 253.946 173.72 253.466L173.42 253.406C173.67 255.131 173.77 256.874 173.72 258.616C173.63 263.326 172.86 267.976 172.57 272.616L172.58 272.576ZM147.81 266.386C148.26 271.226 147.62 276.036 147.81 280.866C147.98 284.866 149.13 289.006 152.58 291.436C153.973 292.476 155.708 292.951 157.436 292.765C159.165 292.58 160.759 291.748 161.9 290.436C164.8 287.216 164.83 282.766 163.95 278.766C162.77 273.376 160.95 268.096 159.37 262.816C158.467 260.12 157.729 257.372 157.16 254.586L156.91 254.666C156.91 254.776 156.91 254.866 156.91 254.976C157.452 257.651 158.15 260.292 159 262.886C159.8 265.596 160.58 268.296 161.38 270.996C162.86 275.996 165.38 282.056 163.38 287.286C162.989 288.436 162.343 289.483 161.491 290.349C160.64 291.215 159.603 291.877 158.46 292.286C157.261 292.567 156.01 292.53 154.829 292.179C153.649 291.828 152.581 291.176 151.73 290.286C147.73 286.526 147.96 280.716 148.19 275.676C148.498 271.222 148.273 266.747 147.52 262.346C147.27 261.092 146.915 259.861 146.46 258.666L146.25 258.766C147.057 261.252 147.577 263.822 147.8 266.426L147.81 266.386ZM127.73 292.176C130.52 292.706 133.78 292.346 135.73 290.016C138.42 286.756 137.1 282.016 135.62 278.556C134.04 274.846 131.75 271.496 129.98 267.886C129.884 267.937 129.793 267.997 129.71 268.066C130.39 269.456 131.14 270.796 131.9 272.116C134.36 276.446 137.99 282.016 136.74 287.246C135.68 291.696 130.98 292.696 127.07 291.686C120.59 290.036 117.6 283.976 113.32 279.426L113.08 279.606C117.59 284.366 120.67 290.806 127.73 292.176ZM91.5898 309.346C91.5794 309.426 91.5794 309.507 91.5898 309.586C92.3604 309.524 93.113 309.321 93.8098 308.986C97.5198 307.226 99.3898 303.076 102.62 300.676C106.62 297.746 112.2 296.586 116.62 299.126C120.75 301.496 123.13 306.386 121.48 310.986C120.04 314.986 116.48 317.746 113.48 320.636C110.661 323.221 108.588 326.516 107.48 330.176C107.562 330.236 107.653 330.284 107.75 330.316C108.726 326.983 110.532 323.951 113 321.506C115.67 318.756 118.87 316.346 120.8 312.986C121.723 311.486 122.22 309.763 122.24 308.001C122.259 306.24 121.799 304.507 120.91 302.986C119.947 301.359 118.593 299.998 116.97 299.027C115.348 298.056 113.509 297.506 111.62 297.426C109.578 297.385 107.549 297.761 105.658 298.531C103.766 299.301 102.052 300.45 100.62 301.906C98.0898 304.566 95.7098 308.976 91.5898 309.346Z" fill="#455A64"/>
<path d="M177.508 320.977C177.508 320.977 174.438 323.037 169.828 325.587C161.668 315.827 144.398 298.087 143.828 297.457L177.508 320.977Z" fill="#37474F"/>
<path d="M120.81 273.836C118.65 275.336 116.55 276.936 114.42 278.476C112.29 280.016 110.15 281.426 108.15 283.076C106.15 284.726 104.15 286.566 102.28 288.376C101.36 289.256 100.44 290.136 99.5499 291.046C98.6221 291.923 97.7629 292.869 96.9799 293.876C96.9099 293.976 97.0499 294.086 97.1399 294.026C98.1573 293.304 99.126 292.516 100.04 291.666C101.04 290.816 102.04 289.946 103.04 289.096C104.98 287.436 106.97 285.826 108.91 284.166C110.85 282.506 112.63 280.716 114.54 279.046C116.45 277.376 118.74 275.596 120.86 273.906C120.89 273.876 120.86 273.806 120.81 273.836Z" fill="#37474F"/>
<path d="M322.479 356.976C320.479 359.436 318.619 362.066 316.759 364.646C314.899 367.226 313.039 369.826 311.199 372.436C307.519 377.656 303.809 382.846 300.199 388.116C298.199 391.016 296.269 393.926 294.439 396.926C294.359 397.056 294.579 397.186 294.669 397.076C298.669 392.076 302.279 386.836 305.949 381.616C309.619 376.396 313.289 371.156 316.889 365.886C318.889 362.996 320.889 360.116 322.679 357.116C322.759 356.976 322.569 356.846 322.479 356.976Z" fill="#37474F"/>
<path d="M233.98 360.377C228.39 355.967 222.6 351.817 216.81 347.687C211.02 343.557 205.28 339.457 199.44 335.477C197.76 334.327 196.06 333.207 194.37 332.087C192.68 330.967 190.92 329.927 189.27 328.757C189.17 328.687 189.09 328.847 189.18 328.917C190.7 330.007 192.18 331.227 193.63 332.357C195.08 333.487 196.47 334.527 197.91 335.597C200.71 337.677 203.54 339.707 206.37 341.757C212.11 345.897 217.89 349.997 223.72 353.997C227.04 356.277 230.34 358.557 233.72 360.717C233.88 360.847 234.12 360.527 233.98 360.377Z" fill="#37474F"/>
<path d="M269.828 314.056C264.668 309.776 259.138 305.926 253.728 301.976C248.318 298.026 242.808 293.976 237.308 289.976L220.978 278.146C215.698 274.326 210.438 270.446 204.858 267.056C201.798 265.21 198.661 263.506 195.448 261.946C192.33 260.335 189.077 258.997 185.728 257.946C185.628 257.946 185.578 258.066 185.668 258.116C188.418 259.656 191.308 260.946 194.088 262.426C196.868 263.906 199.548 265.426 202.218 267.046C207.758 270.406 212.988 274.226 218.218 278.046C229.138 285.896 240.028 293.776 251.018 301.516C257.168 305.846 263.198 310.416 269.578 314.396C269.778 314.516 269.978 314.206 269.828 314.056Z" fill="#37474F"/>
<path d="M431.386 333.257C430.042 336.699 429.017 340.258 428.326 343.887C428.406 344.077 428.326 344.747 428.226 344.557C428.146 345.147 427.226 344.947 427.306 344.357C427.356 343.977 427.406 343.597 427.466 343.227C425.626 340.377 422.726 338.387 420.466 335.837C418.655 333.831 417.443 331.357 416.966 328.697C415.656 321.377 418.376 314.057 416.646 306.697C415.156 300.357 411.876 294.647 409.216 288.767C406.416 282.557 404.536 276.137 405.006 269.257C405.356 263.987 406.726 257.057 411.136 253.547C415.816 249.817 420.736 253.497 423.596 257.547C431.866 269.347 434.776 283.447 435.066 297.547C435.216 305.367 435.406 313.247 434.356 321.017C433.773 325.186 432.778 329.286 431.386 333.257V333.257Z" fill="#3CCEA3"/>
<path d="M428.064 346.727C429.351 339.496 430.036 332.171 430.114 324.827C430.114 324.827 430.114 324.827 430.164 324.747C430.904 318.847 431.994 313.007 432.384 307.057C432.775 300.626 432.574 294.172 431.784 287.777C431.784 287.697 431.664 287.707 431.674 287.777C432.179 294.036 432.209 300.324 431.764 306.587C431.534 309.947 431.164 313.287 430.634 316.587C430.464 317.667 430.244 318.747 430.054 319.837C429.344 302.975 425.02 286.463 417.374 271.417C417.264 271.217 416.904 271.417 417.004 271.597C422.401 282.974 426.003 295.118 427.684 307.597C424.044 298.737 417.934 291.127 413.684 282.537C413.684 282.537 413.584 282.537 413.604 282.537C417.214 291.977 423.994 299.847 427.854 309.187C428.314 312.877 428.604 316.587 428.734 320.297C428.88 325.383 428.709 330.473 428.224 335.537C426.014 330.097 423.674 324.867 421.994 319.187C421.985 319.157 421.964 319.131 421.936 319.116C421.908 319.101 421.875 319.098 421.844 319.107C421.814 319.117 421.788 319.138 421.773 319.166C421.758 319.194 421.755 319.227 421.764 319.257C423.084 325.117 425.014 331.487 428.114 336.697C427.764 340.277 427.274 343.857 426.684 347.407C425.114 356.897 422.494 366.157 420.734 375.597C420.726 375.653 420.739 375.71 420.771 375.756C420.803 375.802 420.852 375.834 420.907 375.846C420.962 375.857 421.019 375.847 421.067 375.818C421.115 375.788 421.15 375.742 421.164 375.687C424.119 366.202 426.424 356.526 428.064 346.727Z" fill="#263238"/>
<path d="M425.694 271.997C425.694 271.927 425.564 271.997 425.584 271.997C426.814 276.997 427.284 281.997 428.024 287.077C428.034 287.119 428.057 287.156 428.091 287.182C428.125 287.209 428.166 287.224 428.209 287.224C428.252 287.224 428.294 287.209 428.327 287.182C428.361 287.156 428.384 287.119 428.394 287.077C428.414 282.017 427.144 276.827 425.694 271.997Z" fill="#263238"/>
<path d="M467.865 296.887C466.406 299.595 464.776 302.207 462.985 304.707C459.235 310.087 455.415 314.967 454.115 321.547C453.705 324.509 452.971 327.416 451.925 330.217C450.842 332.586 449.417 334.782 447.696 336.737C443.766 341.337 439.056 345.167 435.356 349.977C431.513 354.999 428.477 360.59 426.356 366.547C426.246 366.877 425.725 366.727 425.835 366.407C425.84 366.381 425.84 366.354 425.835 366.327C425.829 366.316 425.826 366.304 425.826 366.292C425.826 366.28 425.829 366.268 425.835 366.257C426.835 351.957 429.486 337.727 435.266 324.537C437.819 318.741 440.746 313.116 444.025 307.697C446.741 302.885 450.389 298.663 454.756 295.277C457.656 293.167 463.886 289.277 467.406 292.037C469.096 293.387 468.765 295.187 467.865 296.887Z" fill="#3CCEA3"/>
<path d="M450.146 327.668C447.2 331.528 444.017 335.201 440.616 338.668C439.046 340.328 437.456 341.958 435.886 343.668C435.146 344.448 434.326 345.228 433.636 346.078C434.176 344.618 434.696 343.158 435.236 341.698C437.836 334.698 440.366 327.628 443.836 320.988C447.345 314.583 451.333 308.452 455.766 302.648C455.876 302.488 455.626 302.348 455.516 302.498C451.976 307.128 448.406 311.748 445.326 316.698C443.623 319.463 442.087 322.328 440.726 325.278C442.58 318.902 444.886 312.666 447.626 306.618C447.626 306.558 447.576 306.508 447.546 306.568C444.158 312.614 441.749 319.158 440.406 325.958C440.406 325.958 440.406 325.958 440.406 325.958C439.586 327.738 438.826 329.548 438.096 331.378C435.016 339.108 432.196 346.948 429.516 354.838C430.03 349.526 431.034 344.274 432.516 339.148C432.516 339.028 432.376 338.978 432.336 339.088C430.368 344.392 429.306 349.991 429.196 355.648C428.183 358.648 427.183 361.648 426.196 364.648C424.106 371.068 421.676 377.568 420.196 384.148C420.191 384.165 420.19 384.182 420.193 384.2C420.195 384.218 420.201 384.234 420.209 384.25C420.218 384.265 420.23 384.278 420.244 384.289C420.258 384.3 420.274 384.308 420.291 384.313C420.308 384.317 420.326 384.318 420.343 384.316C420.361 384.314 420.378 384.308 420.393 384.299C420.409 384.29 420.422 384.279 420.433 384.265C420.444 384.251 420.451 384.235 420.456 384.218C421.816 380.728 422.796 377.068 423.976 373.508C425.156 369.948 426.376 366.388 427.606 362.838C429.406 357.668 431.256 352.528 433.136 347.378C434.216 345.538 436.136 343.998 437.556 342.508C438.976 341.018 440.736 339.248 442.296 337.578C445.216 334.498 447.891 331.194 450.296 327.698C450.316 327.668 450.196 327.598 450.146 327.668Z" fill="#263238"/>
<path d="M451.394 321.648C447.838 325.313 444.668 329.334 441.934 333.648C441.934 333.708 441.984 333.778 442.024 333.728C445.204 329.728 448.334 325.728 451.514 321.728C451.564 321.668 451.454 321.548 451.394 321.648Z" fill="#263238"/>
<path d="M392.095 302.548C393.605 305.918 395.315 309.958 394.095 313.698C393.345 316.058 391.366 317.828 390.786 320.268C389.496 325.628 394.536 329.798 398.196 332.778C407.296 340.228 420.106 347.368 420.506 360.658C420.506 361.128 421.336 361.098 421.326 360.658C421.33 360.628 421.33 360.597 421.326 360.568C421.326 360.568 421.376 360.568 421.386 360.498C423.358 354.027 424.011 347.226 423.305 340.498C422.565 333.588 420.255 327.208 417.405 320.908C412.575 310.248 407.405 299.308 399.335 290.678C397.095 288.288 392.455 283.928 389.985 288.528C387.515 293.128 390.245 298.438 392.095 302.548Z" fill="#3CCEA3"/>
<path d="M398.804 324.787C404.544 332.497 414.444 337.517 419.194 345.967C417.336 333.67 412.613 321.982 405.404 311.847C405.375 311.793 405.365 311.731 405.377 311.671C405.389 311.611 405.422 311.557 405.47 311.519C405.518 311.481 405.577 311.461 405.639 311.462C405.7 311.463 405.758 311.486 405.804 311.527C411.155 317.963 415.197 325.382 417.704 333.367C416.727 327.873 415.248 322.48 413.284 317.257C413.214 317.057 413.504 316.917 413.594 317.117C416.101 322.859 417.684 328.961 418.284 335.197C423.754 353.777 422.234 374.737 418.714 393.337C418.714 393.607 418.254 393.567 418.294 393.337C420.294 378.587 421.624 363.517 419.604 348.697C419.554 348.387 419.504 348.087 419.464 347.777C414.284 338.667 404.464 333.667 398.684 324.927C398.624 324.807 398.744 324.707 398.804 324.787Z" fill="#263238"/>
<path d="M397.935 318.597C401.015 322.087 404.025 325.597 407.105 329.107C407.105 329.107 407.105 329.207 407.045 329.167C403.466 326.159 400.325 322.665 397.715 318.787C397.625 318.627 397.815 318.457 397.935 318.597Z" fill="#263238"/>
<path d="M398.827 305.017C401.316 310.272 404.229 315.315 407.537 320.097C407.537 320.157 407.487 320.237 407.437 320.177C403.636 315.709 400.657 310.604 398.637 305.097C398.632 305.085 398.629 305.071 398.629 305.058C398.629 305.044 398.631 305.031 398.637 305.018C398.642 305.006 398.649 304.994 398.659 304.985C398.668 304.975 398.68 304.967 398.692 304.962C398.704 304.957 398.718 304.954 398.731 304.954C398.745 304.954 398.758 304.957 398.771 304.962C398.783 304.967 398.795 304.974 398.804 304.984C398.814 304.993 398.822 305.005 398.827 305.017Z" fill="#263238"/>
<path d="M408.664 406.987H438.644L434.604 366.647H413.274L408.664 406.987Z" fill="#455A64"/>
<path d="M412.527 373.207H435.267L434.607 366.647H413.277L412.527 373.207Z" fill="#263238"/>
<path d="M409.607 368.617H437.707V362.177H409.607V368.617Z" fill="#455A64"/>
</g>
<defs>
<clipPath id="clip0_607_5589">
<rect width="500" height="500" fill="white"/>
</clipPath>
</defs>
</svg>
