<svg width="1788" height="1753" viewBox="0 0 1788 1753" fill="none" xmlns="http://www.w3.org/2000/svg">
<path d="M893.631 1722.55C463.764 1722.55 0 1452.92 0 861.275C0 269.63 463.764 0 893.631 0C1132.45 0 1352.77 78.5779 1516.09 221.867C1693.28 379.023 1787.26 600.89 1787.26 861.275C1787.26 1121.66 1693.28 1341.99 1516.09 1499.14C1352.77 1642.43 1130.91 1722.55 893.631 1722.55Z" fill="url(#paint0_radial_801_1939)"/>
<path d="M1631.5 349.285C1713.62 481.789 1756.45 639.561 1756.45 815.052C1756.45 1075.44 1662.47 1295.76 1485.28 1452.92C1321.96 1596.21 1100.1 1676.33 862.821 1676.33C584.563 1676.33 292.13 1563.08 120.491 1322.88C286.275 1594.98 597.967 1722.55 893.636 1722.55C1130.91 1722.55 1352.78 1642.43 1516.1 1499.14C1693.28 1341.99 1787.27 1121.66 1787.27 861.274C1787.27 664.983 1733.8 490.571 1631.5 349.285V349.285Z" fill="#EB8F00"/>
<path d="M452.032 1350.62C445.561 1405.01 505.034 1410.87 505.034 1410.87C505.034 1410.87 936.442 1428.58 1072.18 1428.74C1151.99 1428.89 1139.05 1348.47 1060.16 1288.84C1012.55 1252.79 935.825 1214.27 755.867 1214.27C616.892 1214.27 459.274 1290.07 452.032 1350.62V1350.62Z" fill="#422B0D"/>
<path d="M596.567 418.329C596.567 418.329 625.224 401.843 650.493 422.335C664.513 433.736 671.601 455.153 656.193 470.714C594.564 548.059 433.094 593.819 354.67 571.016C339.725 566.24 331.559 550.216 336.489 535.271C340.803 522.021 353.9 513.855 367.766 516.012C469.301 504.764 535.707 471.33 596.567 418.329V418.329Z" fill="#422B0D"/>
<path d="M984.846 409.542C984.846 409.542 956.188 393.056 930.92 413.548C916.899 424.949 909.812 446.365 925.219 461.927C986.849 539.272 1148.32 585.032 1226.74 562.229C1241.69 557.453 1249.85 541.429 1244.92 526.484C1240.61 513.234 1227.51 505.068 1213.65 507.225C1112.11 495.977 1045.71 462.543 984.846 409.542V409.542Z" fill="#422B0D"/>
<path d="M488.257 1372.8C456.98 1377.42 425.703 1381.12 394.272 1384.2C353.442 1388.05 310.148 1390.21 273.478 1371.72C256.376 1363.09 241.584 1350.3 224.636 1341.68C182.42 1320.11 129.881 1325.96 87.8183 1347.99C51.3027 1366.94 20.1798 1398.84 9.0864 1438.43C-2.00694 1478.03 10.319 1525.02 43.9072 1548.75C101.993 1589.73 67.7887 1600.67 83.5043 1657.84C100.298 1719.47 170.094 1766.15 232.34 1748.28C254.681 1741.81 273.478 1722.86 295.665 1718.54C319.854 1713.76 344.814 1727.32 369.004 1727.17C419.848 1726.86 455.594 1673.09 460.832 1622.4C463.451 1597.75 461.294 1572.79 465.454 1548.44C478.551 1472.95 547.268 1422.56 603.197 1370.33C629.852 1345.37 577.466 1357.7 568.376 1359.55C541.721 1364.63 514.912 1368.95 488.257 1372.8V1372.8Z" fill="white"/>
<path d="M9.09278 1438.3C20.1861 1398.7 51.4632 1366.8 87.8247 1347.85C129.887 1325.98 182.426 1319.97 224.643 1341.54C226.646 1342.62 228.649 1343.85 230.652 1345.08C212.933 1342.77 195.214 1340.61 176.88 1342.31C150.225 1344.62 123.416 1353.71 103.694 1371.89C95.9907 1378.98 89.5195 1387.45 83.9729 1396.39C69.644 1419.5 61.6321 1448 68.2573 1474.35C73.4958 1494.99 91.6766 1518.11 114.017 1521.5C138.669 1525.19 160.856 1502.39 186.586 1505.63C197.68 1507.01 209.543 1518.72 203.38 1528.12C199.683 1533.67 191.979 1534.44 185.354 1535.67C164.246 1539.52 145.448 1554.47 136.82 1574.19C132.506 1583.9 130.657 1594.53 130.657 1605.16C130.503 1644.91 157.929 1683.43 195.523 1696.22C219.866 1704.38 247.446 1701.61 270.095 1689.9C280.88 1684.35 287.043 1673.41 297.828 1668.17C308.459 1663.09 323.867 1662.32 335.422 1662.94C347.902 1663.55 360.228 1665.71 372.708 1664.78C402.29 1662.47 423.861 1642.29 436.187 1616.71C450.207 1587.44 444.815 1559.4 448.821 1527.97C452.21 1500.85 465.461 1475.58 482.563 1454.16C498.895 1433.67 518.77 1415.34 538.954 1398.7C549.431 1390.07 561.449 1383.6 573.159 1376.51C577.473 1373.89 604.128 1354.17 607.671 1355.87C611.677 1357.71 611.523 1361.87 602.741 1370.04C546.812 1422.27 478.095 1472.65 464.999 1548.15C460.684 1572.49 462.841 1597.61 460.376 1622.11C454.984 1672.8 419.393 1726.57 368.548 1726.88C344.358 1727.03 319.398 1713.47 295.209 1718.25C273.022 1722.56 254.225 1741.51 231.884 1747.98C169.792 1766.01 99.9966 1719.17 83.0484 1657.54C67.3329 1600.38 101.691 1589.44 43.4513 1548.46C10.3254 1524.89 -2.00057 1477.89 9.09278 1438.3V1438.3Z" fill="#92CBEB"/>
<path d="M616.598 1415.18C616.598 1415.18 686.856 1360.64 785.309 1359.25C905.641 1357.56 1010.87 1428.13 1010.87 1428.13L616.598 1415.18Z" fill="#F48FB1"/>
<path d="M963.114 791.947H1283.43" stroke="#422B0D" stroke-width="77.0371" stroke-miterlimit="10" stroke-linecap="round"/>
<path d="M296.743 791.947H617.064" stroke="#422B0D" stroke-width="77.0371" stroke-miterlimit="10" stroke-linecap="round"/>
<path d="M353.286 800.734C352.516 807.976 352.054 815.217 352.054 822.921C352.054 913.517 403.669 968.213 460.522 968.213C517.375 968.213 568.99 913.517 568.99 822.921C568.99 815.217 568.528 807.822 567.758 800.734H353.286Z" fill="#422B0D"/>
<path d="M1025.07 791.947C1023.68 801.808 1022.91 812.131 1022.91 823.07C1022.91 913.666 1074.52 968.362 1131.38 968.362C1188.23 968.362 1239.84 913.666 1239.84 823.07C1239.84 812.131 1239.07 801.808 1237.69 791.947H1025.07Z" fill="#422B0D"/>
<path d="M942.771 1529.03C912.572 1535.81 886.842 1537.51 861.42 1538.9C836.151 1539.97 811.808 1539.82 787.618 1538.74C763.428 1537.66 739.239 1535.66 714.587 1532.73C689.627 1529.5 665.129 1526.11 635.084 1520.25L633.39 1515.94C657.887 1505.31 683.926 1499.3 710.273 1496.06C736.619 1492.67 763.12 1491.59 789.621 1492.52C816.122 1493.91 842.468 1497.3 868.353 1502.38C894.391 1507.46 919.814 1514.71 944.466 1524.57L942.771 1529.03Z" fill="#EB8F00"/>
<defs>
<radialGradient id="paint0_radial_801_1939" cx="0" cy="0" r="1" gradientUnits="userSpaceOnUse" gradientTransform="translate(893.631 861.274) scale(877.602 877.602)">
<stop offset="0.5" stop-color="#FDE030"/>
<stop offset="0.9188" stop-color="#F7C02B"/>
<stop offset="1" stop-color="#F4A223"/>
</radialGradient>
</defs>
</svg>
