<svg width="1788" height="1723" viewBox="0 0 1788 1723" fill="none" xmlns="http://www.w3.org/2000/svg">
<path d="M893.631 1722.55C463.764 1722.55 0 1452.92 0 861.275C0 269.63 463.764 0 893.631 0C1132.45 0 1352.77 78.5779 1516.09 221.867C1693.28 379.023 1787.26 600.89 1787.26 861.275C1787.26 1121.66 1693.28 1341.99 1516.09 1499.14C1352.77 1642.43 1130.91 1722.55 893.631 1722.55Z" fill="url(#paint0_radial_801_1918)"/>
<path d="M1631.5 349.285C1713.62 481.789 1756.45 639.561 1756.45 815.052C1756.45 1075.44 1662.47 1295.76 1485.28 1452.92C1321.96 1596.21 1100.1 1676.33 862.821 1676.33C584.563 1676.33 292.746 1563.08 120.491 1322.88C286.275 1594.98 598.121 1722.55 893.636 1722.55C1130.91 1722.55 1352.78 1642.43 1516.1 1499.14C1693.28 1341.99 1787.27 1121.66 1787.27 861.274C1787.27 664.983 1733.8 490.571 1631.5 349.285V349.285Z" fill="#EB8F00"/>
<path d="M899.782 1448.3C768.203 1448.3 674.371 1351.38 646.022 1297.61C635.237 1279.43 633.234 1257.24 640.321 1237.37C644.635 1225.51 656.037 1217.49 668.671 1217.19C672.985 1217.34 677.145 1218.11 681.151 1219.65C747.403 1245.69 805.489 1283.44 900.552 1283.44C995.616 1283.44 1054.63 1245.69 1119.95 1219.65C1123.96 1218.11 1128.12 1217.19 1132.43 1217.19C1144.91 1217.8 1155.7 1225.66 1160.01 1237.37C1167.1 1257.24 1165.1 1279.43 1154.31 1297.61C1125.19 1351.38 1031.36 1448.3 899.782 1448.3V1448.3Z" fill="#422B0D"/>
<path d="M676.552 729.843L673.471 732.925C671.006 735.698 668.387 738.317 665.613 740.628L654.982 749.411C650.514 752.8 645.429 756.498 639.575 760.196C633.72 763.894 627.711 767.437 621.086 770.827C614.306 774.217 607.219 777.144 599.978 779.609C592.428 781.92 584.724 783.769 576.866 785.31C568.855 786.543 560.843 787.159 552.677 787.159H545.435C541.429 787.159 540.659 787.159 539.118 787.159L528.333 785.772C520.475 784.231 512.772 782.382 505.222 780.071C497.826 777.298 490.739 774.062 483.806 770.365C477.18 766.975 471.017 763.277 465.317 759.734C456.226 753.725 447.752 746.945 439.74 739.55L430.034 730.613L426.182 726.762C406.46 708.735 376.724 707.656 355.77 724.142C340.517 735.852 335.432 756.806 343.752 774.217L346.063 778.839C348.066 783.307 350.377 787.621 352.842 791.781C368.712 818.282 390.282 840.931 415.859 858.341C428.031 866.815 440.973 874.057 454.531 879.911C469.477 886.537 484.884 891.621 500.754 895.319C509.228 896.86 517.086 898.4 527.409 899.325C532.185 899.325 537.732 900.249 540.197 900.249H552.215C569.471 899.941 586.573 898.246 603.521 894.857C619.391 891.159 634.798 886.074 649.744 879.449C663.302 873.594 676.244 866.353 688.416 857.879C707.521 844.937 724.47 828.913 738.49 810.578L745.886 800.255L752.049 790.548C754.36 786.851 756.363 782.845 758.058 778.685L759.753 774.833C768.997 752.8 758.52 727.378 736.487 718.134C734.947 717.517 733.406 716.901 731.865 716.593C712.452 710.43 691.035 715.514 676.552 729.843V729.843Z" fill="#422B0D"/>
<path d="M1369.89 729.843L1366.8 732.925C1364.34 735.698 1361.72 738.317 1358.95 740.628L1348.32 749.411C1343.85 752.8 1338.76 756.498 1332.91 760.196C1327.05 763.894 1321.04 767.437 1314.42 770.827C1307.64 774.217 1300.55 777.144 1293.31 779.609C1285.76 781.92 1278.06 783.769 1270.2 785.31C1262.19 786.543 1254.18 787.159 1246.01 787.159H1238.77C1234.76 787.159 1233.99 787.159 1232.45 787.159L1221.67 785.772C1213.81 784.231 1206.11 782.382 1198.56 780.071C1191.16 777.298 1184.07 774.062 1177.14 770.365C1170.51 766.975 1164.35 763.277 1158.65 759.734C1149.56 753.725 1141.09 746.945 1133.07 739.55L1123.37 730.613L1119.52 726.762C1099.79 708.735 1070.06 707.656 1049.1 724.142C1033.85 735.852 1028.77 756.806 1037.09 774.217L1039.4 778.839C1041.4 783.307 1043.71 787.621 1046.18 791.781C1062.05 818.282 1083.62 840.931 1109.19 858.341C1121.36 866.815 1134.31 874.057 1147.87 879.911C1162.96 886.537 1178.68 891.775 1194.86 895.319C1203.33 896.86 1211.19 898.4 1221.51 899.325C1226.29 899.325 1231.84 900.249 1234.3 900.249H1246.32C1263.58 899.941 1280.68 898.246 1297.63 894.857C1313.8 891.313 1329.52 886.074 1344.62 879.449C1358.18 873.594 1371.12 866.353 1383.29 857.879C1402.4 844.937 1419.34 828.913 1433.36 810.578L1440.76 800.255L1446.92 790.548C1449.23 786.851 1451.24 782.845 1452.93 778.685L1454.63 774.833C1463.87 752.8 1453.39 727.378 1431.36 718.134C1429.82 717.517 1428.28 716.901 1426.74 716.593C1406.86 709.659 1384.68 714.898 1369.89 729.843V729.843Z" fill="#422B0D"/>
<path d="M351.599 558.982C340.813 570.229 322.787 570.692 311.539 559.752C301.37 550.046 299.984 534.176 308.15 522.775C325.406 498.123 346.514 476.398 370.858 458.526C435.415 408.76 516.304 385.186 597.501 392.736C635.712 397.512 628.316 446.354 594.266 449.589C503.054 456.831 417.388 495.503 351.599 558.982V558.982Z" fill="#422B0D"/>
<path d="M1431.21 558.982C1441.99 570.229 1460.02 570.692 1471.27 559.752C1481.44 550.046 1482.82 534.176 1474.66 522.775C1457.4 498.123 1436.29 476.398 1411.95 458.526C1347.39 408.76 1266.5 385.186 1185.31 392.736C1147.1 397.512 1154.49 446.354 1188.54 449.589C1279.75 456.831 1365.42 495.503 1431.21 558.982V558.982Z" fill="#422B0D"/>
<defs>
<radialGradient id="paint0_radial_801_1918" cx="0" cy="0" r="1" gradientUnits="userSpaceOnUse" gradientTransform="translate(893.631 861.275) scale(877.602 877.602)">
<stop offset="0.5" stop-color="#FDE030"/>
<stop offset="0.92" stop-color="#F7C02B"/>
<stop offset="1" stop-color="#F4A223"/>
</radialGradient>
</defs>
</svg>
