<svg width="531" height="531" viewBox="0 0 531 531" fill="none" xmlns="http://www.w3.org/2000/svg">
<path d="M476.921 411.993C480.682 414.599 485.857 413.669 488.345 409.828C513.262 371.355 527.821 327.042 530.536 281.191C533.414 232.58 522.867 184.114 500.05 141.095C477.232 98.0754 443.023 62.1599 401.164 37.2774C361.682 13.8079 316.829 1.00661 271.002 0.0569872C266.427 -0.0378276 262.754 3.72442 262.802 8.30071V8.30071C262.85 12.877 266.6 16.5335 271.176 16.6378C313.962 17.6134 355.827 29.6073 392.695 51.5236C431.941 74.8529 464.015 108.526 485.409 148.86C506.802 189.195 516.69 234.635 513.992 280.212C511.457 323.028 497.906 364.414 474.715 400.384C472.235 404.231 473.159 409.386 476.921 411.993V411.993Z" fill="#FE5248"/>
<path d="M232.342 10.4327C231.752 5.89438 227.592 2.68033 223.074 3.41164C191.43 8.53401 160.951 19.3489 133.125 35.3544C105.298 51.36 80.6241 72.2676 60.2851 97.0449C57.3814 100.582 58.0678 105.794 61.6941 108.586V108.586C65.3203 111.378 70.5127 110.692 73.4237 107.161C92.43 84.1049 115.447 64.641 141.388 49.7207C167.328 34.8003 195.726 24.6909 225.212 19.855C229.728 19.1143 232.932 14.9711 232.342 10.4327V10.4327Z" fill="#4080ED"/>
<path d="M49.0957 126.475C45.2452 124.001 40.106 125.112 37.7537 129.038C7.88275 178.889 -4.84602 237.244 1.66049 295.147C8.167 353.051 33.5294 407.126 73.719 449.104C76.884 452.41 82.1415 452.352 85.347 449.085V449.085C88.5524 445.819 88.4912 440.581 85.3331 437.269C47.8593 397.964 24.211 347.414 18.13 293.297C12.0489 239.18 23.8885 184.641 51.7047 138C54.0489 134.07 52.9461 128.949 49.0957 126.475V126.475Z" fill="#FEB03A"/>
<path d="M107.126 468.174C104.308 471.78 104.941 477 108.633 479.704C160.517 517.701 224.527 535.632 288.775 529.978C353.024 524.324 412.919 495.488 457.368 449.013C460.531 445.706 460.242 440.456 456.838 437.397V437.397C453.433 434.339 448.203 434.631 445.033 437.931C403.395 481.286 347.388 508.182 287.323 513.468C227.257 518.755 167.413 502.054 118.843 466.638C115.145 463.941 109.944 464.567 107.126 468.174V468.174Z" fill="#F17741"/>
<path d="M204.052 278.699C182.182 278.699 164.391 260.908 164.391 239.038C164.391 234.245 165.32 229.429 167.145 224.738C167.723 223.242 168.924 222.063 170.431 221.497C171.927 220.93 173.604 221.021 175.043 221.769C193.253 231.265 213.797 228.998 229.48 216.828C230.749 215.842 232.381 215.468 233.967 215.729C235.554 216.012 236.936 216.964 237.775 218.335C241.661 224.681 243.712 231.842 243.712 239.038C243.712 260.908 225.922 278.699 204.052 278.699ZM180.183 236.167C178.051 235.493 175.723 236.803 175.723 239.038V239.038C175.723 254.664 188.437 267.367 204.052 267.367C219.667 267.367 232.381 254.664 232.381 239.038V239.038C232.381 234.151 226.826 232.2 222.33 234.116C209.089 239.757 194.222 240.61 180.183 236.167Z" fill="#5E4992"/>
<path d="M204.043 256.023C210.302 256.023 215.375 250.949 215.375 244.691C215.375 238.433 210.302 233.359 204.043 233.359C197.785 233.359 192.712 238.433 192.712 244.691C192.712 250.949 197.785 256.023 204.043 256.023Z" fill="#5E4992"/>
<path d="M328.684 278.692C306.814 278.692 289.023 260.901 289.023 239.031C289.023 231.824 291.074 224.663 294.961 218.351C295.799 216.98 297.182 216.028 298.768 215.745C300.332 215.484 301.975 215.858 303.256 216.844C318.939 229.003 339.46 231.269 357.693 221.784C359.132 221.036 360.809 220.946 362.305 221.512C363.812 222.079 365.013 223.257 365.591 224.753C367.415 229.433 368.344 234.249 368.344 239.031C368.344 260.901 350.554 278.692 328.684 278.692ZM310.406 234.107C305.912 232.193 300.355 234.146 300.355 239.031V239.031C300.355 254.657 313.069 267.36 328.684 267.36C344.299 267.36 357.013 254.657 357.013 239.031V239.031C357.013 236.79 354.679 235.477 352.543 236.153C338.5 240.599 323.638 239.742 310.406 234.107Z" fill="#5E4992"/>
<path d="M328.675 256.023C334.933 256.023 340.007 250.949 340.007 244.691C340.007 238.433 334.933 233.359 328.675 233.359C322.417 233.359 317.344 238.433 317.344 244.691C317.344 250.949 322.417 256.023 328.675 256.023Z" fill="#5E4992"/>
<path d="M266.389 425.293C178.909 425.293 107.747 354.13 107.747 266.65C107.747 179.17 178.909 108.008 266.389 108.008C353.869 108.008 425.032 179.17 425.032 266.65C425.032 354.13 353.869 425.293 266.389 425.293ZM266.389 119.339C185.164 119.339 119.078 185.425 119.078 266.65C119.078 347.875 185.164 413.961 266.389 413.961C347.614 413.961 413.7 347.875 413.7 266.65C413.7 185.425 347.614 119.339 266.389 119.339Z" fill="#5E4992"/>
<path d="M351.356 209.995C349.668 209.995 309.951 209.7 300.693 183.558C299.65 180.601 301.191 177.371 304.138 176.317C307.095 175.264 310.325 176.827 311.367 179.773C317.962 198.369 351.028 198.663 351.356 198.663C354.484 198.675 357.022 201.213 357.011 204.34C357.022 207.457 354.484 209.995 351.356 209.995Z" fill="#5E4992"/>
<path d="M181.409 209.995C178.282 209.995 175.743 207.457 175.743 204.34C175.743 201.213 178.282 198.675 181.409 198.663C181.738 198.663 214.815 198.369 221.398 179.773C222.441 176.827 225.67 175.264 228.628 176.317C231.574 177.371 233.115 180.601 232.073 183.558C222.815 209.7 183.098 209.995 181.409 209.995Z" fill="#5E4992"/>
<path d="M317.339 368.638H215.354C212.227 368.638 209.688 366.1 209.688 362.972V357.306C209.688 326.065 235.105 300.648 266.346 300.648C297.588 300.648 323.004 326.065 323.004 357.306V362.972C323.004 366.1 320.466 368.638 317.339 368.638ZM231.795 327.996C220.394 341.416 235.294 357.306 252.903 357.306H266.346H279.79C297.398 357.306 312.298 341.416 300.898 327.996C292.578 318.203 280.177 311.98 266.346 311.98C252.516 311.98 240.115 318.203 231.795 327.996Z" fill="#5E4992"/>
</svg>
