<svg width="2696" height="3518" viewBox="0 0 2696 3518" fill="none" xmlns="http://www.w3.org/2000/svg">
<path d="M1314.32 3492.19V154.6H1391.63V3492.19C1390.94 3493.43 1375.6 3519.81 1349.61 3517.52C1327.71 3515.59 1315.8 3494.86 1314.32 3492.19V3492.19Z" fill="#0B4870"/>
<path d="M612.172 1187.05C626.895 1166.38 640.11 1144.67 651.716 1122.1C679.331 1068.41 721.881 985.675 688.522 935.04C683.324 927.154 673.406 915.669 653.345 906.57C651.217 913.211 649.073 919.847 646.913 926.478C605.454 1053.71 589.591 1081.64 594.107 1126.37C595.582 1140.95 599.698 1162.08 612.172 1187.05V1187.05Z" fill="#0B4870"/>
<path d="M604.879 1130.53C578.114 1226.43 448.989 1231.2 448.989 1231.2ZM463.597 1275.46C463.597 1275.46 304.88 1329.64 272.141 1350.47C272.141 1350.47 488.549 1578.63 804.948 1342.47C779.766 1326.91 775.27 1326.3 741.127 1311.37C697.071 1292.11 634.869 1266.14 599.886 1257.79L463.597 1275.46Z" fill="#EFB68F"/>
<path d="M456.738 1230.6L466.805 1296.41L604.881 1290.96L626.689 1119.92H593.596L456.738 1230.6Z" fill="#EFB68F"/>
<path d="M661.469 1080.08C655.991 1097.1 643.507 1111.38 626.645 1119.93C578.79 1143.7 567.669 1082.93 588.335 1055.27C612.923 1022.32 676.062 1034.39 661.469 1080.08V1080.08Z" fill="#EFB68F"/>
<path d="M436.966 1287.69C436.966 1287.69 521.17 1392.27 646.983 1272.88C667.782 1274.58 690.164 1286.21 717.629 1293.93C748.099 1302.5 777.404 1314.78 804.891 1330.48L788.265 2088.47H318.116L267.578 1353.09C286.652 1342.47 309.007 1324.59 334.573 1314.87C367.672 1302.3 401.986 1293.18 436.966 1287.69V1287.69Z" fill="#FFBE55"/>
<path d="M817.872 2329.71C783.535 2380.46 748.67 2396.42 726.816 2402.33C720.073 2404.16 698.542 2404.7 655.52 2406.56C622.376 2408 587.88 2408.76 551.587 2408.67C530.986 2408.63 510.386 2408.31 489.793 2407.73C425.855 2405.91 393.879 2405.35 381.451 2402.16C358.548 2396.27 318.312 2378.6 279.602 2313.57L316.929 2088.46H788.005L817.872 2329.71V2329.71Z" fill="#0B4870"/>
<path d="M928.27 3433.08L890.958 3201.69L798.832 3214.22L835.94 3445.35L928.27 3433.08Z" fill="#FFBE55"/>
<path d="M821.395 3426.02L805.02 3498.58H1093.33V3496.46C1093.33 3488.27 1091.01 3480.25 1086.64 3473.32C1082.27 3466.4 1076.03 3460.86 1068.63 3457.34L934.827 3403.95C930.013 3401.65 923.828 3401.75 920.162 3405.62C902.87 3423.87 883.879 3453.6 831.093 3421.35C827.263 3419.02 822.25 3421.61 821.395 3426.02V3426.02Z" fill="#0B4870"/>
<path d="M805.02 3498.55H1093.33V3517.59H805.02V3498.55Z" fill="#FFBE55"/>
<path d="M678.385 2780.91L865.956 2756.12L814.332 2298.59C807.112 2234.61 748.781 2189 684.94 2197.44C655.627 2207.35 628.806 2223.48 606.321 2244.74C572.88 2276.41 557.954 2311.12 551.559 2329.36C593.827 2479.88 636.106 2630.39 678.385 2780.91V2780.91Z" fill="#0B4870"/>
<path d="M778.94 3342.45L936.766 3321.59L848.992 2598.88C842.141 2542.75 790.804 2502.98 734.736 2510.4C677.859 2517.92 638.462 2570.97 647.71 2627.59L778.94 3342.45Z" fill="#0B4870"/>
<path d="M171.316 3433.08L208.624 3201.69L300.75 3214.22L263.642 3445.35L171.316 3433.08Z" fill="#FFBE55"/>
<path d="M417.108 2780.91L233.695 2756.12L281.166 2298.59C288.386 2234.61 346.718 2189 410.559 2197.44C414.117 2197.91 426.662 2199.76 441.87 2206.47C441.87 2206.47 470.826 2219.41 489.177 2244.74C509.48 2272.76 510.232 2307.1 508.205 2334.49C503.253 2401.24 471.512 2565.54 417.108 2780.91V2780.91Z" fill="#0B4870"/>
<path d="M320.666 3342.45L162.84 3321.59L250.614 2598.88C257.465 2542.75 308.802 2502.98 364.87 2510.4C421.747 2517.92 461.143 2570.97 451.896 2627.59L320.666 3342.45V3342.45Z" fill="#0B4870"/>
<path d="M758.995 2046.22C771.954 2041.91 779.287 2044.76 779.287 2044.76C786.665 2034.4 800.311 2033.08 809.169 2041.88L815.442 2048.11C823.634 2056.24 824.715 2070.11 817.899 2079.71L817.51 2080.26C817.51 2080.26 805.431 2112.77 778.083 2142.09C742.752 2179.97 710.499 2179.23 700.817 2166.1C691.672 2153.68 731.257 2106.68 745.758 2089.03L723.352 2096.25C720.51 2097.17 717.463 2095.91 715.83 2093.15C714.073 2090.18 714.406 2086.25 716.623 2083.7L734.207 2063.48C741.089 2055.57 749.522 2049.37 758.995 2046.22V2046.22Z" fill="#EFB68F"/>
<path d="M789.27 2037.11L972.497 1728.2C988.524 1701.59 1021.87 1696.89 1043.3 1718.22C1062.66 1737.48 1064.57 1770.57 1047.58 1792.46L822.101 2068.32L789.27 2037.11V2037.11Z" fill="#EFB68F"/>
<path d="M843.795 1381.06C889.494 1442.71 951.589 1507.38 1042.46 1677.24C1052.09 1695.23 1069.77 1729.31 1060.71 1763.13C1056.51 1778.82 1047.82 1789.7 1041.13 1796.41C1031.81 1795.05 1017.14 1791.55 1001.22 1781.59C980.909 1768.88 968.774 1752.03 962.849 1742.52L715.77 1444.54C693.041 1414.98 696.348 1370.43 722.995 1347.21C747.798 1325.61 823.078 1353.12 843.795 1381.06V1381.06Z" fill="#EFB68F"/>
<path d="M661.914 1282.58C692.549 1286.36 729.58 1294.55 768.884 1311.9C888.589 1364.72 946.905 1465.92 967.519 1506.81L858.839 1644.54C834.252 1623.31 810.936 1600.66 789.012 1576.7C743.85 1527.36 704.644 1484.53 681.136 1420.68C670.921 1392.93 658.048 1345.93 661.914 1282.58V1282.58Z" fill="#FFBE55"/>
<path d="M342.431 2046.22C329.543 2041.91 322.257 2044.76 322.257 2044.76C314.924 2034.4 301.355 2033.08 292.548 2041.88L286.312 2048.11C278.165 2056.24 277.095 2070.11 283.869 2079.71L284.259 2080.26C284.259 2080.26 296.266 2112.77 323.455 2142.09C358.581 2179.97 390.65 2179.23 400.271 2166.1C409.365 2153.68 370.01 2106.68 355.591 2089.03L377.87 2096.25C380.696 2097.17 383.727 2095.91 385.35 2093.15C387.096 2090.18 386.769 2086.25 384.562 2083.7L367.076 2063.48C360.23 2055.57 351.848 2049.37 342.431 2046.22V2046.22Z" fill="#EFB68F"/>
<path d="M312.151 2037.11L129.983 1728.2C114.053 1701.59 80.8985 1696.89 59.5875 1718.22C40.3399 1737.48 38.4403 1770.57 55.3273 1792.46L279.503 2068.32L312.151 2037.11Z" fill="#EFB68F"/>
<path d="M257.949 1381.06C212.516 1442.71 150.779 1507.38 60.4301 1677.24C50.8601 1695.23 33.2817 1729.31 42.2834 1763.13C46.4616 1778.82 55.0946 1789.7 61.7511 1796.41C71.0241 1795.05 85.607 1791.55 101.434 1781.59C121.624 1768.88 133.687 1752.03 139.581 1742.52L385.226 1444.54C407.823 1414.98 404.536 1370.43 378.043 1347.21C353.393 1325.61 278.548 1353.12 257.949 1381.06Z" fill="#EFB68F"/>
<path d="M439.161 1282.58C408.705 1286.29 371.618 1294.44 332.191 1311.9C215.549 1363.57 158.277 1461.41 137.801 1501.41L248.329 1658.51C270.155 1638.43 290.806 1617.11 310.179 1594.66C349.754 1548.81 394.501 1496.95 419.934 1420.69C429.632 1391.6 441.363 1344.46 439.161 1282.58V1282.58Z" fill="#FFBE55"/>
<path d="M271.939 3426.02L288.314 3498.58H0V3496.46C5.06625e-05 3488.27 2.32023 3480.25 6.69191 3473.32C11.0636 3466.4 17.3078 3460.86 24.7008 3457.34L158.507 3403.95C163.32 3401.65 169.505 3401.75 173.171 3405.62C190.463 3423.87 209.455 3453.6 262.241 3421.35C266.071 3419.02 271.083 3421.61 271.939 3426.02V3426.02Z" fill="#0B4870"/>
<path d="M288.355 3517.63H0.0419011V3498.6H288.355V3517.63Z" fill="#FFBE55"/>
<path d="M456.738 1230.6C462.043 1238.29 469.8 1246.39 480.696 1249.31C514.916 1258.49 553.954 1209.64 569.648 1190.01C584.08 1171.9 595.939 1151.89 604.886 1130.53C597.405 1142.62 587.574 1155.91 456.738 1230.6V1230.6Z" fill="#E0A882"/>
<path d="M624.884 906.451C573.235 843.235 458.277 831.862 401.21 881.694C375.316 904.305 368.322 933.425 357.999 976.39C354.845 989.524 332.658 1087.92 381.712 1178.56C400.698 1213.63 417.191 1223.23 428.702 1227.25C451.907 1235.34 474.038 1227.13 494.468 1220.04C535.866 1205.68 561.197 1179.52 570.47 1169.72C614.776 1122.91 692.821 989.601 624.884 906.451V906.451Z" fill="#EFB68F"/>
<path d="M555.469 943.475C555.469 943.475 631.716 973.102 596.898 1070.54L622.843 1074.06C622.843 1074.06 628.409 1035.48 662.29 1041.28C662.29 1041.28 689.72 905.774 620.595 872.824L555.469 943.475V943.475Z" fill="#0B4870"/>
<path d="M555.493 943.508C555.493 943.508 466.235 883.174 392.501 919.667C384.452 917.726 365.952 912.022 352.285 894.982C334.093 872.298 331.927 838.821 346.351 809.164C346.351 809.164 360.13 814.617 378.092 818.847C403.448 824.817 423.454 822.093 434.903 821.176C459.727 819.19 506.015 815.488 538.673 822.441C560.183 827.019 589.313 839.103 620.619 872.857C639.723 890.742 641.214 920.619 624.711 939.765C607.45 959.801 575.811 961.91 555.493 943.508Z" fill="#0B4870"/>
<path d="M392.375 919.682C392.375 919.682 367.705 951.879 353.281 1020.36C353.281 1020.36 359.759 913.44 384.101 908.038C408.443 902.636 392.375 919.682 392.375 919.682Z" fill="#0B4870"/>
<path d="M2695 807.755C2603.21 790.792 2462.84 773.766 2294.73 791.462C2052.89 816.916 1957.32 892.769 1751.3 900.398C1647.21 904.254 1495.56 891.407 1307.86 807.755V24.2797C1433.37 91.7203 1596.31 150.292 1781.01 134.598C1939.6 121.122 2010.61 61.6995 2194.66 24.2797C2319.13 -1.03039 2486.42 -14.4663 2695 24.2797L2695 807.755V807.755Z" fill="#FFBE55"/>
</svg>
